<?xml version="1.0" encoding="utf-8"?>
<!-- Generator: Adobe Illustrator 17.1.0, SVG Export Plug-In . SVG Version: 6.00 Build 0)  -->
<!DOCTYPE svg PUBLIC "-//W3C//DTD SVG 1.1//EN" "http://www.w3.org/Graphics/SVG/1.1/DTD/svg11.dtd">
<svg version="1.1" id="vector" xmlns="http://www.w3.org/2000/svg" xmlns:xlink="http://www.w3.org/1999/xlink" x="0px" y="0px"
	 viewBox="66.2 133.8 677.1 331.6" style="enable-background:new 66.2 133.8 677.1 331.6;" xml:space="preserve">
<line style="fill:none;stroke:#FFFFFF;stroke-miterlimit:10;" x1="67" y1="208.5" x2="375.9" y2="208.5"/>
<g>
	<g>
		<path style="fill:#00B9DF;" d="M77.5,229.3h-2.2l-0.4,2.5h-2.7l0.4-2.5h-2.3l-0.4,2.5h-2.7l0.4-2.5h-1.4v-2.9H68l0.4-2.1h-1.7
			v-2.9h2.1l0.4-2.4H72l-0.4,2.4h2.3l0.4-2.4H77l-0.4,2.4h1.4v2.9h-2l-0.4,2.1h1.7v2.9H77.5z M70.7,226.4h2.5l0.4-2.3h-2.5
			L70.7,226.4z"/>
		<path style="fill:#00B9DF;" d="M81.6,222.1l-2.1,0.5l-0.7-2.8l3.7-1.1h2.6v12.9h-3.5C81.6,231.8,81.6,222.1,81.6,222.1z"/>
		<path style="fill:#00B9DF;" d="M92.6,218.9h6.6c1.6,0,2.8,0.4,3.5,1.2c0.5,0.5,0.8,1.2,0.8,2.1l0,0c0,1.5-0.8,2.4-2,2.9
			c1.5,0.5,2.6,1.4,2.6,3.1l0,0c0,2.2-1.8,3.6-4.9,3.6h-6.6C92.6,231.7,92.6,218.9,92.6,218.9z M100,222.9c0-0.7-0.5-1.1-1.6-1.1
			h-2.3v2.2h2.2C99.4,224,100,223.7,100,222.9L100,222.9z M98.8,226.5h-2.7v2.4h2.8c1.1,0,1.7-0.4,1.7-1.2l0,0
			C100.5,227,100,226.5,98.8,226.5z"/>
		<path style="fill:#00B9DF;" d="M105.7,218.9h6.1c2,0,3.3,0.5,4.2,1.3c0.7,0.7,1.2,1.7,1.2,3l0,0c0,2-1.1,3.3-2.7,3.9l3,4.5h-4.1
			l-2.6-3.9h-1.6v3.9h-3.6L105.7,218.9L105.7,218.9z M111.7,225.1c1.2,0,1.9-0.6,1.9-1.5l0,0c0-1.1-0.7-1.5-2-1.5h-2.3v3.1
			L111.7,225.1L111.7,225.1z"/>
		<path style="fill:#00B9DF;" d="M123.4,218.8h3.4l5.4,12.9h-3.8l-0.9-2.3h-5l-0.9,2.3h-3.8L123.4,218.8z M126.5,226.7l-1.4-3.7
			l-1.4,3.7H126.5z"/>
		<path style="fill:#00B9DF;" d="M133.7,218.9h3.6v12.9h-3.6V218.9z"/>
		<path style="fill:#00B9DF;" d="M139.6,218.9h3.3l5.3,6.8v-6.8h3.6v12.9h-3.1l-5.5-7.1v7.1h-3.6L139.6,218.9L139.6,218.9z"/>
		<path style="fill:#00B9DF;" d="M154,218.9h5.5c3.2,0,5.4,1.7,5.4,4.5l0,0c0,3-2.3,4.6-5.5,4.6h-1.8v3.7H154V218.9z M159.3,225.3
			c1.2,0,2.1-0.7,2.1-1.7l0,0c0-1.1-0.8-1.7-2.1-1.7h-1.7v3.4L159.3,225.3L159.3,225.3z"/>
		<path style="fill:#00B9DF;" d="M166,225.4L166,225.4c0-3.8,2.9-6.7,7-6.7s6.9,2.9,6.9,6.7l0,0c0,3.7-2.9,6.7-7,6.7
			S166,229,166,225.4z M176.2,225.4L176.2,225.4c0-1.9-1.3-3.5-3.3-3.5s-3.3,1.6-3.3,3.4l0,0c0,1.9,1.3,3.5,3.3,3.5
			C174.8,228.8,176.2,227.2,176.2,225.4z"/>
		<path style="fill:#00B9DF;" d="M180.8,218.9h3.8l2.2,7.4l2.5-7.5h3l2.5,7.5l2.2-7.4h3.7l-4.3,12.9h-3.1l-2.6-7.4l-2.6,7.4H185
			L180.8,218.9z"/>
		<path style="fill:#00B9DF;" d="M202.1,218.9h10.4v3h-6.8v2h6.2v2.8h-6.2v2.1h6.9v3h-10.4V218.9z"/>
		<path style="fill:#00B9DF;" d="M214.5,218.9h6.1c2,0,3.3,0.5,4.2,1.3c0.7,0.7,1.2,1.7,1.2,3l0,0c0,2-1.1,3.3-2.7,3.9l3,4.5h-4.1
			l-2.6-3.9h-1.6v3.9h-3.6L214.5,218.9L214.5,218.9z M220.4,225.1c1.2,0,1.9-0.6,1.9-1.5l0,0c0-1.1-0.7-1.5-2-1.5h-2.3v3.1
			L220.4,225.1L220.4,225.1z"/>
		<path style="fill:#00B9DF;" d="M232.3,225.4L232.3,225.4c0-3.8,2.9-6.7,6.8-6.7c2.6,0,4.3,1.1,5.4,2.7l-2.7,2.1
			c-0.7-0.9-1.6-1.5-2.8-1.5c-1.8,0-3,1.5-3,3.4l0,0c0,2,1.2,3.4,3,3.4c1.3,0,2.1-0.6,2.9-1.6l2.7,1.9c-1.2,1.7-2.9,2.9-5.7,2.9
			C235.3,232.1,232.3,229.2,232.3,225.4z"/>
		<path style="fill:#00B9DF;" d="M246.3,218.9h3.6v12.9h-3.6V218.9z"/>
		<path style="fill:#00B9DF;" d="M255.4,222.1h-3.8v-3.1h11.3v3.1h-3.8v9.7h-3.6V222.1z"/>
		<path style="fill:#00B9DF;" d="M268,227l-4.9-8h4l2.7,4.6l2.7-4.6h4l-4.9,8v4.9H268V227z"/>
		<path style="fill:#FFFFFF;" d="M66.9,238.9h3.6v12.9h-3.6V238.9z"/>
		<path style="fill:#FFFFFF;" d="M72.8,238.9h3.3l5.3,6.8v-6.8h3.6v12.9h-3.1l-5.5-7.1v7.1h-3.6L72.8,238.9L72.8,238.9z"/>
		<path style="fill:#FFFFFF;" d="M95.4,242.1h-3.8v-3.1h11.2v3.1H99v9.7h-3.6C95.4,251.8,95.4,242.1,95.4,242.1z"/>
		<path style="fill:#FFFFFF;" d="M104.5,238.9h3.6v4.8h4.6v-4.8h3.6v12.9h-3.6v-4.9H108v4.9h-3.6V238.9z"/>
		<path style="fill:#FFFFFF;" d="M118.4,238.9h10.4v3H122v2h6.2v2.8H122v2.1h6.9v3h-10.4V238.9z"/>
		<path style="fill:#FFFFFF;" d="M135.6,246.2v-7.2h3.6v7.1c0,1.9,0.9,2.8,2.4,2.8c1.4,0,2.4-0.8,2.4-2.7v-7.2h3.6v7.1
			c0,4.1-2.4,6-6.1,6C137.9,252.1,135.6,250.2,135.6,246.2z"/>
		<path style="fill:#FFFFFF;" d="M148.8,249.9l2-2.4c1.2,1,2.7,1.5,4.2,1.5c1,0,1.5-0.4,1.5-0.9l0,0c0-0.5-0.4-0.8-2.1-1.2
			c-2.8-0.6-4.8-1.4-4.8-4l0,0c0-2.4,1.9-4.1,5-4.1c2.1,0,3.9,0.6,5.3,1.7l-1.8,2.5c-1.2-0.8-2.5-1.2-3.6-1.2
			c-0.9,0-1.2,0.4-1.2,0.8l0,0c0,0.6,0.4,0.8,2.2,1.2c2.9,0.6,4.8,1.6,4.8,4l0,0c0,2.6-2.1,4.2-5.2,4.2
			C152.5,252.1,150.4,251.3,148.8,249.9z"/>
		<path style="fill:#FFFFFF;" d="M166.2,238.8h3.4l5.4,12.9h-3.8l-0.9-2.3h-5l-0.9,2.3h-3.7L166.2,238.8z M169.3,246.7l-1.4-3.7
			l-1.4,3.7H169.3z"/>
		<path style="fill:#FFFFFF;" d="M66.5,267.9h3.9l-0.2,0.5h-3.9L66.5,267.9z"/>
		<path style="fill:#FFFFFF;" d="M76.2,264.2h4.9l-0.1,0.4h-4.5l-0.8,2.9h3.9l-0.1,0.4h-3.9l-0.9,3.2h-0.5L76.2,264.2z"/>
		<path style="fill:#FFFFFF;" d="M88.6,267.1c0,1.2-0.5,2.2-1.2,3c-0.7,0.7-1.7,1.2-2.8,1.2c-1.8,0-3-1.3-3-3c0-1.2,0.5-2.2,1.2-3
			c0.7-0.7,1.7-1.2,2.8-1.2C87.3,264,88.6,265.4,88.6,267.1z M86.9,269.8c0.7-0.7,1.2-1.7,1.2-2.8c0-1.4-1-2.6-2.5-2.6
			c-0.9,0-1.7,0.4-2.3,1c-0.7,0.7-1.2,1.7-1.2,2.8c0,1.4,1,2.6,2.5,2.6C85.4,270.8,86.2,270.4,86.9,269.8z"/>
		<path style="fill:#FFFFFF;" d="M92.9,268.3h-0.3h-1.9l-0.8,2.9h-0.5l1.9-7.1h2.5c0.8,0,1.5,0.2,1.9,0.6c0.3,0.3,0.4,0.7,0.4,1.2
			c0,0.6-0.3,1.1-0.6,1.4c-0.5,0.5-1.3,0.7-2.1,0.8l1.5,2.9h-0.6L92.9,268.3z M92.9,267.8c1.1,0,1.8-0.3,2.2-0.7
			c0.3-0.3,0.4-0.7,0.4-1.2c0-0.4-0.1-0.6-0.3-0.8c-0.3-0.3-0.8-0.4-1.5-0.4h-2.1l-0.9,3.1H92.9z"/>
		<path style="fill:#FFFFFF;" d="M98.4,264.2h2.6c1.2,0,2.1,0.6,2.1,1.6c0,1.1-0.8,1.7-1.9,1.9c0.7,0.2,1.3,0.6,1.3,1.4
			c0,1.2-1.1,2.1-2.9,2.1h-3.1L98.4,264.2z M99.7,270.7c1.4,0,2.3-0.6,2.3-1.6c0-0.8-0.8-1.2-1.9-1.2h-2.3l-0.7,2.9H99.7z
			 M100.2,267.4c1.4,0,2.3-0.6,2.3-1.6c0-0.8-0.6-1.2-1.6-1.2h-2.1l-0.7,2.8H100.2z"/>
		<path style="fill:#FFFFFF;" d="M105.6,264.2h4.9l-0.1,0.4H106l-0.7,2.8h3.9l-0.1,0.4h-3.9l-0.7,2.9h4.5l-0.1,0.4h-5L105.6,264.2z"
			/>
		<path style="fill:#FFFFFF;" d="M110,269.9l0.4-0.3c0.6,0.8,1.3,1.2,2.4,1.2c1.2,0,2.1-0.6,2.1-1.5c0-0.6-0.4-1-1.5-1.4
			c-1.4-0.5-2-1-2-1.9c0-0.4,0.2-0.9,0.5-1.2c0.4-0.4,1.2-0.7,2-0.7c1.1,0,2,0.4,2.4,1.1l-0.4,0.4c-0.5-0.6-1.2-0.9-2.1-0.9
			c-1.2,0-2,0.7-2,1.4c0,0.6,0.5,1,1.7,1.4c1.3,0.5,1.9,1,1.9,1.9c0,0.5-0.2,0.9-0.5,1.2c-0.4,0.4-1.2,0.8-2.1,0.8
			C111.6,271.2,110.6,270.8,110,269.9z"/>
		<path style="fill:#FFFFFF;" d="M118.2,263.2l-0.9,0.3v-0.3l1.1-0.4h0.3l-1.1,4.1h-0.3L118.2,263.2z"/>
		<path style="fill:#FFFFFF;" d="M66.5,297.1c0-1,0.4-1.4,1.2-1.6l0.2,0.4c-0.6,0.2-0.8,0.5-0.8,1h0.4v1.2h-1.1V297.1z M68.8,297.1
			c0-1,0.4-1.4,1.2-1.6l0.2,0.4c-0.6,0.2-0.8,0.5-0.8,1h0.4v1.2h-1.1V297.1z"/>
		<path style="fill:#FFFFFF;" d="M71.8,300.4v-4.8h0.9v4.7c0,1.8,1,2.8,2.5,2.8c1.5,0,2.5-0.9,2.5-2.7v-4.8h0.9v4.7
			c0,2.4-1.3,3.7-3.4,3.7C73.1,303.9,71.8,302.7,71.8,300.4z"/>
		<path style="fill:#FFFFFF;" d="M80.5,297.7h0.9v1.1c0.4-0.6,1.1-1.2,2.1-1.2c1.4,0,2.3,1,2.3,2.4v3.8h-0.9v-3.6
			c0-1.2-0.6-1.8-1.7-1.8s-1.8,0.8-1.8,1.9v3.5h-0.9V297.7z"/>
		<path style="fill:#FFFFFF;" d="M87.1,302.1L87.1,302.1c0-1.3,1.1-2,2.6-2c0.8,0,1.3,0.1,1.9,0.3v-0.2c0-1.1-0.6-1.6-1.8-1.6
			c-0.7,0-1.2,0.2-1.9,0.4l-0.3-0.7c0.6-0.3,1.3-0.5,2.2-0.5c0.9,0,1.5,0.2,2,0.6c0.4,0.4,0.6,1,0.6,1.8v3.7h-0.9v-0.9
			c-0.4,0.5-1.2,1.1-2.2,1.1C88.3,303.9,87.1,303.2,87.1,302.1z M91.6,301.5v-0.6c-0.4-0.1-1.1-0.3-1.8-0.3c-1.2,0-1.8,0.5-1.8,1.2
			l0,0c0,0.8,0.7,1.2,1.5,1.2C90.7,303.2,91.6,302.5,91.6,301.5z"/>
		<path style="fill:#FFFFFF;" d="M95.2,302.6v1.2h-0.9v-8.6h0.9v3.8c0.5-0.7,1.2-1.3,2.3-1.3c1.4,0,2.9,1.2,2.9,3.1l0,0
			c0,2-1.4,3.1-2.9,3.1C96.3,303.9,95.6,303.3,95.2,302.6z M99.5,300.8L99.5,300.8c0-1.4-1-2.3-2.1-2.3c-1.2,0-2.2,1-2.2,2.3l0,0
			c0,1.4,1.1,2.3,2.2,2.3C98.5,303.1,99.5,302.2,99.5,300.8z"/>
		<path style="fill:#FFFFFF;" d="M102,295.3h0.9v8.6H102V295.3z"/>
		<path style="fill:#FFFFFF;" d="M104.5,300.8L104.5,300.8c0-1.8,1.2-3.2,2.9-3.2c1.8,0,2.9,1.4,2.9,3.2c0,0.1,0,0.2,0,0.3h-4.9
			c0.1,1.3,1.1,2.1,2.1,2.1c0.8,0,1.4-0.4,1.9-0.9l0.5,0.5c-0.6,0.7-1.3,1.2-2.5,1.2C105.8,303.9,104.5,302.7,104.5,300.8z
			 M109.3,300.4c-0.1-1.1-0.7-2.1-2-2.1c-1.1,0-1.9,0.9-2,2.1H109.3z"/>
		<path style="fill:#FFFFFF;" d="M115.4,302.1v-3.7h-0.8v-0.8h0.8v-1.8h0.9v1.8h1.9v0.8h-1.9v3.6c0,0.7,0.4,1,1,1
			c0.3,0,0.5-0.1,0.9-0.2v0.8c-0.4,0.2-0.6,0.3-1.1,0.3C116.1,303.8,115.4,303.4,115.4,302.1z"/>
		<path style="fill:#FFFFFF;" d="M119.3,300.8L119.3,300.8c0-1.7,1.3-3.2,3.1-3.2s3.1,1.4,3.1,3.1l0,0c0,1.7-1.3,3.1-3.2,3.1
			C120.6,303.9,119.3,302.5,119.3,300.8z M124.6,300.8L124.6,300.8c0-1.3-1-2.4-2.2-2.4c-1.3,0-2.2,1.1-2.2,2.3l0,0
			c0,1.3,1,2.3,2.2,2.3C123.8,303.1,124.6,302.1,124.6,300.8z"/>
		<path style="fill:#FFFFFF;" d="M130,302.1L130,302.1c0-1.3,1.1-2,2.6-2c0.8,0,1.3,0.1,1.9,0.3v-0.2c0-1.1-0.6-1.6-1.8-1.6
			c-0.7,0-1.2,0.2-1.9,0.4l-0.3-0.7c0.6-0.3,1.3-0.5,2.2-0.5s1.5,0.2,2,0.6c0.4,0.4,0.6,1,0.6,1.8v3.7h-0.9v-0.9
			c-0.4,0.5-1.2,1.1-2.2,1.1C131.2,303.9,130,303.2,130,302.1z M134.5,301.5v-0.6c-0.4-0.1-1.1-0.3-1.8-0.3c-1.2,0-1.8,0.5-1.8,1.2
			l0,0c0,0.8,0.7,1.2,1.5,1.2C133.6,303.2,134.5,302.5,134.5,301.5z"/>
		<path style="fill:#FFFFFF;" d="M137.5,298.5h-0.9v-0.8h0.8v-0.5c0-0.7,0.2-1.2,0.5-1.5c0.3-0.3,0.7-0.4,1.3-0.4
			c0.4,0,0.7,0.1,1,0.2v0.8c-0.4-0.1-0.5-0.2-0.9-0.2c-0.7,0-1.1,0.4-1.1,1.2v0.5h1.9v0.8h-1.8v5.3h-0.9V298.5z M141.8,298.5H141
			v-0.8h0.8v-0.5c0-0.7,0.2-1.2,0.5-1.5c0.4-0.3,0.7-0.4,1.3-0.4c0.4,0,0.7,0.1,1,0.2v0.8c-0.4-0.1-0.5-0.2-0.9-0.2
			c-0.7,0-1.1,0.4-1.1,1.2v0.5h1.9v0.8h-1.9v5.3h-0.9L141.8,298.5L141.8,298.5z"/>
		<path style="fill:#FFFFFF;" d="M145.3,300.8L145.3,300.8c0-1.7,1.3-3.2,3.1-3.2c1.8,0,3.1,1.4,3.1,3.1l0,0c0,1.7-1.3,3.1-3.2,3.1
			C146.6,303.9,145.3,302.5,145.3,300.8z M150.6,300.8L150.6,300.8c0-1.3-1-2.4-2.2-2.4c-1.3,0-2.2,1.1-2.2,2.3l0,0
			c0,1.3,1,2.3,2.2,2.3C149.7,303.1,150.6,302.1,150.6,300.8z"/>
		<path style="fill:#FFFFFF;" d="M153,297.7h0.9v1.6c0.4-1,1.3-1.7,2.5-1.7v1h-0.1c-1.3,0-2.4,1-2.4,2.8v2.4H153V297.7z"/>
		<path style="fill:#FFFFFF;" d="M157.3,300.8L157.3,300.8c0-2,1.4-3.2,2.9-3.2c1.2,0,1.9,0.6,2.3,1.2v-3.7h0.9v8.6h-0.9v-1.2
			c-0.5,0.7-1.2,1.3-2.3,1.3C158.8,303.9,157.3,302.8,157.3,300.8z M162.6,300.7L162.6,300.7c0-1.4-1.1-2.3-2.2-2.3
			s-2.1,0.9-2.1,2.3l0,0c0,1.4,1,2.3,2.1,2.3C161.5,303.1,162.6,302.1,162.6,300.7z"/>
		<path style="fill:#FFFFFF;" d="M169,302.1v-3.7h-0.8v-0.8h0.8v-1.8h0.9v1.8h1.9v0.8h-1.9v3.6c0,0.7,0.4,1,1,1
			c0.3,0,0.5-0.1,0.9-0.2v0.8c-0.4,0.2-0.6,0.3-1.1,0.3C169.7,303.8,169,303.4,169,302.1z"/>
		<path style="fill:#FFFFFF;" d="M172.9,300.8L172.9,300.8c0-1.7,1.3-3.2,3.1-3.2c1.8,0,3.1,1.4,3.1,3.1l0,0c0,1.7-1.3,3.1-3.2,3.1
			C174.3,303.9,172.9,302.5,172.9,300.8z M178.3,300.8L178.3,300.8c0-1.3-1-2.4-2.2-2.4c-1.3,0-2.2,1.1-2.2,2.3l0,0
			c0,1.3,1,2.3,2.2,2.3C177.4,303.1,178.3,302.1,178.3,300.8z"/>
		<path style="fill:#FFFFFF;" d="M183.7,303l0.4-0.6c0.6,0.5,1.3,0.8,2.1,0.8c0.7,0,1.2-0.4,1.2-1l0,0c0-0.6-0.7-0.8-1.5-1.1
			c-1-0.3-2-0.6-2-1.7l0,0c0-1.1,0.9-1.7,2.1-1.7c0.7,0,1.5,0.3,2.1,0.6l-0.4,0.7c-0.5-0.4-1.2-0.6-1.8-0.6c-0.7,0-1.2,0.4-1.2,0.9
			l0,0c0,0.5,0.7,0.8,1.5,1.1c0.9,0.3,2,0.6,2,1.7l0,0c0,1.2-1,1.8-2.1,1.8C185.3,303.9,184.4,303.6,183.7,303z"/>
		<path style="fill:#FFFFFF;" d="M189.5,300.8L189.5,300.8c0-1.8,1.2-3.2,2.9-3.2c1.8,0,2.9,1.4,2.9,3.2c0,0.1,0,0.2,0,0.3h-4.8
			c0.1,1.3,1.1,2.1,2.1,2.1c0.8,0,1.4-0.4,1.9-0.9l0.5,0.5c-0.6,0.7-1.3,1.2-2.5,1.2C190.9,303.9,189.5,302.7,189.5,300.8z
			 M194.3,300.4c-0.1-1.1-0.7-2.1-2-2.1c-1.1,0-1.9,0.9-2,2.1H194.3z"/>
		<path style="fill:#FFFFFF;" d="M197,302.1v-3.7h-0.8v-0.8h0.8v-1.8h0.9v1.8h1.9v0.8h-1.9v3.6c0,0.7,0.4,1,1,1
			c0.3,0,0.5-0.1,0.9-0.2v0.8c-0.4,0.2-0.6,0.3-1.1,0.3C197.8,303.8,197,303.4,197,302.1z"/>
		<path style="fill:#FFFFFF;" d="M201.6,302.1v-3.7h-0.8v-0.8h0.8v-1.8h0.9v1.8h1.9v0.8h-1.9v3.6c0,0.7,0.4,1,1,1
			c0.3,0,0.5-0.1,0.9-0.2v0.8c-0.4,0.2-0.6,0.3-1.1,0.3C202.3,303.8,201.6,303.4,201.6,302.1z"/>
		<path style="fill:#FFFFFF;" d="M206,295.3h0.9v8.6H206V295.3z"/>
		<path style="fill:#FFFFFF;" d="M208.5,300.8L208.5,300.8c0-1.8,1.2-3.2,2.9-3.2c1.8,0,2.9,1.4,2.9,3.2c0,0.1,0,0.2,0,0.3h-4.8
			c0.1,1.3,1.1,2.1,2.1,2.1c0.8,0,1.4-0.4,1.9-0.9l0.5,0.5c-0.6,0.7-1.3,1.2-2.5,1.2C209.8,303.9,208.5,302.7,208.5,300.8z
			 M213.3,300.4c-0.1-1.1-0.7-2.1-2-2.1c-1.1,0-1.9,0.9-2,2.1H213.3z"/>
		<path style="fill:#FFFFFF;" d="M219.1,295.3h0.9v8.6h-0.9V295.3z"/>
		<path style="fill:#FFFFFF;" d="M221.6,300.8L221.6,300.8c0-1.7,1.3-3.2,3.1-3.2c1.8,0,3.1,1.4,3.1,3.1l0,0c0,1.7-1.3,3.1-3.2,3.1
			C222.9,303.9,221.6,302.5,221.6,300.8z M227.1,300.8L227.1,300.8c0-1.3-1-2.4-2.2-2.4c-1.3,0-2.2,1.1-2.2,2.3l0,0
			c0,1.3,1,2.3,2.2,2.3C226.1,303.1,227.1,302.1,227.1,300.8z"/>
		<path style="fill:#FFFFFF;" d="M229.5,297.7h0.9v1.1c0.4-0.6,1.1-1.2,2.1-1.2c1.4,0,2.3,1,2.3,2.4v3.8h-0.9v-3.6
			c0-1.2-0.6-1.8-1.7-1.8c-1.1,0-1.8,0.8-1.8,1.9v3.5h-0.9V297.7z"/>
		<path style="fill:#FFFFFF;" d="M236.4,304.8l0.4-0.7c0.7,0.5,1.4,0.8,2.3,0.8c1.3,0,2.2-0.7,2.2-2.1v-0.7
			c-0.5,0.7-1.2,1.2-2.4,1.2c-1.4,0-2.9-1.1-2.9-2.9l0,0c0-1.8,1.4-2.9,2.9-2.9c1.2,0,1.9,0.5,2.3,1.2v-1.1h0.9v5
			c0,0.9-0.3,1.6-0.8,2.1s-1.3,0.8-2.3,0.8C238.2,305.6,237.2,305.4,236.4,304.8z M241.4,300.4L241.4,300.4c0-1.2-1.1-2.1-2.2-2.1
			s-2.1,0.8-2.1,2.1l0,0c0,1.2,1,2.1,2.1,2.1C240.4,302.5,241.4,301.7,241.4,300.4z"/>
		<path style="fill:#FFFFFF;" d="M243.9,299.8h3.2v1h-3.2V299.8z"/>
		<path style="fill:#FFFFFF;" d="M249.2,302.1v-3.7h-0.8v-0.8h0.8v-1.8h0.9v1.8h1.9v0.8h-1.9v3.6c0,0.7,0.4,1,1,1
			c0.3,0,0.5-0.1,0.9-0.2v0.8c-0.4,0.2-0.6,0.3-1.1,0.3C249.9,303.8,249.2,303.4,249.2,302.1z"/>
		<path style="fill:#FFFFFF;" d="M253,300.8L253,300.8c0-1.8,1.2-3.2,2.9-3.2c1.8,0,2.9,1.4,2.9,3.2c0,0.1,0,0.2,0,0.3H254
			c0.1,1.3,1.1,2.1,2.1,2.1c0.8,0,1.4-0.4,1.9-0.9l0.5,0.5c-0.6,0.7-1.3,1.2-2.5,1.2C254.5,303.9,253,302.7,253,300.8z M257.9,300.4
			c-0.1-1.1-0.7-2.1-2-2.1c-1.1,0-1.9,0.9-2,2.1H257.9z"/>
		<path style="fill:#FFFFFF;" d="M260.3,297.7h0.9v1.6c0.4-1,1.3-1.7,2.5-1.7v1h-0.1c-1.3,0-2.4,1-2.4,2.8v2.4h-0.9L260.3,297.7
			L260.3,297.7z"/>
		<path style="fill:#FFFFFF;" d="M264.9,297.7h0.9v1c0.4-0.6,0.9-1.2,2-1.2c1,0,1.6,0.5,2,1.2c0.4-0.6,1.1-1.2,2.1-1.2
			c1.4,0,2.2,0.9,2.2,2.4v3.8h-0.9v-3.6c0-1.2-0.6-1.8-1.6-1.8c-0.9,0-1.7,0.7-1.7,1.9v3.5H269v-3.6c0-1.2-0.6-1.8-1.5-1.8
			s-1.7,0.8-1.7,1.9v3.5h-0.9V297.7L264.9,297.7z"/>
		<path style="fill:#FFFFFF;" d="M279.3,295.4h1.1v1h-1.1V295.4z M279.4,297.7h0.9v6.1h-0.9V297.7z"/>
		<path style="fill:#FFFFFF;" d="M282.2,297.7h0.9v1.1c0.4-0.6,1.1-1.2,2.1-1.2c1.4,0,2.3,1,2.3,2.4v3.8h-0.9v-3.6
			c0-1.2-0.6-1.8-1.7-1.8c-1.1,0-1.8,0.8-1.8,1.9v3.5h-0.9V297.7z"/>
		<path style="fill:#FFFFFF;" d="M293,302.1v-3.7h-0.8v-0.8h0.8v-1.8h0.9v1.8h1.9v0.8h-1.9v3.6c0,0.7,0.4,1,1,1
			c0.3,0,0.5-0.1,0.9-0.2v0.8c-0.4,0.2-0.6,0.3-1.1,0.3C293.8,303.8,293,303.4,293,302.1z"/>
		<path style="fill:#FFFFFF;" d="M297.3,297.7h0.9v1.6c0.4-1,1.3-1.7,2.5-1.7v1h-0.1c-1.3,0-2.4,1-2.4,2.8v2.4h-0.9L297.3,297.7
			L297.3,297.7z"/>
		<path style="fill:#FFFFFF;" d="M301.5,302.1L301.5,302.1c0-1.3,1.1-2,2.6-2c0.8,0,1.3,0.1,1.9,0.3v-0.2c0-1.1-0.6-1.6-1.8-1.6
			c-0.7,0-1.2,0.2-1.9,0.4l-0.3-0.7c0.6-0.3,1.3-0.5,2.2-0.5s1.5,0.2,2,0.6c0.4,0.4,0.6,1,0.6,1.8v3.7H306v-0.9
			c-0.4,0.5-1.2,1.1-2.2,1.1C302.6,303.9,301.5,303.2,301.5,302.1z M306,301.5v-0.6c-0.4-0.1-1.1-0.3-1.8-0.3
			c-1.2,0-1.8,0.5-1.8,1.2l0,0c0,0.8,0.7,1.2,1.5,1.2C305,303.2,306,302.5,306,301.5z"/>
		<path style="fill:#FFFFFF;" d="M308.2,300.8L308.2,300.8c0-2,1.4-3.2,2.9-3.2c1.2,0,1.9,0.6,2.3,1.2v-3.7h0.9v8.6h-0.9v-1.2
			c-0.5,0.7-1.2,1.3-2.3,1.3C309.6,303.9,308.2,302.8,308.2,300.8z M313.5,300.7L313.5,300.7c0-1.4-1.1-2.3-2.2-2.3
			s-2.1,0.9-2.1,2.3l0,0c0,1.4,1,2.3,2.1,2.3C312.4,303.1,313.5,302.1,313.5,300.7z"/>
		<path style="fill:#FFFFFF;" d="M316.2,295.4h1.1v1h-1.1V295.4z M316.3,297.7h0.9v6.1h-0.9V297.7z"/>
		<path style="fill:#FFFFFF;" d="M319.6,302.1v-3.7h-0.8v-0.8h0.8v-1.8h0.9v1.8h1.9v0.8h-1.9v3.6c0,0.7,0.4,1,1,1
			c0.3,0,0.5-0.1,0.9-0.2v0.8c-0.4,0.2-0.6,0.3-1.1,0.3C320.3,303.8,319.6,303.4,319.6,302.1z"/>
		<path style="fill:#FFFFFF;" d="M323.8,295.4h1.1v1h-1.1V295.4z M323.9,297.7h0.9v6.1h-0.9V297.7z"/>
		<path style="fill:#FFFFFF;" d="M326.4,300.8L326.4,300.8c0-1.7,1.3-3.2,3.1-3.2c1.8,0,3.1,1.4,3.1,3.1l0,0c0,1.7-1.3,3.1-3.2,3.1
			C327.7,303.9,326.4,302.5,326.4,300.8z M331.8,300.8L331.8,300.8c0-1.3-1-2.4-2.2-2.4c-1.3,0-2.2,1.1-2.2,2.3l0,0
			c0,1.3,1,2.3,2.2,2.3C330.9,303.1,331.8,302.1,331.8,300.8z"/>
		<path style="fill:#FFFFFF;" d="M334.2,297.7h0.9v1.1c0.4-0.6,1.1-1.2,2.1-1.2c1.4,0,2.3,1,2.3,2.4v3.8h-0.9v-3.6
			c0-1.2-0.6-1.8-1.7-1.8c-1.1,0-1.8,0.8-1.8,1.9v3.5h-0.9V297.7z"/>
		<path style="fill:#FFFFFF;" d="M340.8,302.1L340.8,302.1c0-1.3,1.1-2,2.6-2c0.8,0,1.3,0.1,1.9,0.3v-0.2c0-1.1-0.6-1.6-1.8-1.6
			c-0.7,0-1.2,0.2-1.9,0.4l-0.3-0.7c0.6-0.3,1.3-0.5,2.2-0.5s1.5,0.2,2,0.6c0.4,0.4,0.6,1,0.6,1.8v3.7h-0.9v-0.9
			c-0.4,0.5-1.2,1.1-2.2,1.1C342,303.9,340.8,303.2,340.8,302.1z M345.3,301.5v-0.6c-0.4-0.1-1.1-0.3-1.8-0.3
			c-1.2,0-1.8,0.5-1.8,1.2l0,0c0,0.8,0.7,1.2,1.5,1.2C344.4,303.2,345.3,302.5,345.3,301.5z"/>
		<path style="fill:#FFFFFF;" d="M348,295.3h0.9v8.6H348V295.3z"/>
		<path style="fill:#FFFFFF;" d="M66.5,313c0-1,0.4-1.4,1.2-1.6l0.2,0.4c-0.6,0.2-0.8,0.5-0.8,1h0.4v1.2h-1.1V313z"/>
		<path style="fill:#FFFFFF;" d="M70.3,318.5v1.2h-0.9v-8.6h0.9v3.7c0.5-0.7,1.2-1.3,2.3-1.3c1.4,0,2.9,1.2,2.9,3.1l0,0
			c0,2-1.4,3.1-2.9,3.1C71.5,319.7,70.8,319.2,70.3,318.5z M74.6,316.6L74.6,316.6c0-1.4-1-2.3-2.1-2.3c-1.2,0-2.2,1-2.2,2.3l0,0
			c0,1.4,1.1,2.3,2.2,2.3C73.7,318.9,74.6,318.1,74.6,316.6z"/>
		<path style="fill:#FFFFFF;" d="M77.1,313.6h0.9v1.6c0.4-1,1.3-1.7,2.5-1.7v1h-0.1c-1.3,0-2.4,1-2.4,2.8v2.4h-0.9V313.6z"/>
		<path style="fill:#FFFFFF;" d="M81.2,317.9L81.2,317.9c0-1.3,1.1-2,2.6-2c0.8,0,1.3,0.1,1.9,0.3V316c0-1.1-0.6-1.6-1.8-1.6
			c-0.7,0-1.2,0.2-1.9,0.4l-0.3-0.7c0.6-0.3,1.3-0.5,2.2-0.5c0.9,0,1.5,0.2,2,0.6c0.4,0.4,0.6,1,0.6,1.8v3.7h-0.9v-0.9
			c-0.4,0.5-1.2,1.1-2.2,1.1C82.3,319.7,81.2,319.1,81.2,317.9z M85.6,317.4v-0.6c-0.4-0.1-1.1-0.3-1.8-0.3c-1.2,0-1.8,0.5-1.8,1.2
			l0,0c0,0.8,0.7,1.2,1.5,1.2C84.7,319,85.6,318.4,85.6,317.4z"/>
		<path style="fill:#FFFFFF;" d="M88.3,311.2h1.1v1h-1.1V311.2z M88.4,313.6h0.9v6.1h-0.9V313.6z"/>
		<path style="fill:#FFFFFF;" d="M91.2,313.6h0.9v1.1c0.4-0.6,1.1-1.2,2.1-1.2c1.4,0,2.3,1,2.3,2.4v3.8h-0.9v-3.6
			c0-1.2-0.6-1.8-1.7-1.8c-1.1,0-1.8,0.8-1.8,1.9v3.5h-0.9V313.6z"/>
		<path style="fill:#FFFFFF;" d="M101.4,316.6L101.4,316.6c0-1.7,1.3-3.2,3.1-3.2c1.2,0,1.9,0.4,2.4,1.1l-0.6,0.6
			c-0.4-0.5-1-0.9-1.9-0.9c-1.2,0-2.1,1.1-2.1,2.3l0,0c0,1.3,1,2.3,2.2,2.3c0.8,0,1.3-0.4,1.9-0.9l0.5,0.5c-0.6,0.7-1.3,1.2-2.5,1.2
			C102.7,319.8,101.4,318.3,101.4,316.6z"/>
		<path style="fill:#FFFFFF;" d="M107.9,316.6L107.9,316.6c0-1.8,1.3-3.2,2.9-3.2c1.8,0,2.9,1.4,2.9,3.2c0,0.1,0,0.2,0,0.3h-4.8
			c0.1,1.3,1.1,2.1,2.1,2.1c0.8,0,1.4-0.4,1.9-0.9l0.5,0.5c-0.6,0.7-1.3,1.2-2.5,1.2C109.3,319.8,107.9,318.5,107.9,316.6z
			 M112.8,316.2c-0.1-1.1-0.7-2.1-2-2.1c-1.1,0-1.9,0.9-2,2.1H112.8z"/>
		<path style="fill:#FFFFFF;" d="M115.1,313.6h0.9v1.1c0.4-0.6,1.1-1.2,2.1-1.2c1.4,0,2.3,1,2.3,2.4v3.8h-0.9v-3.6
			c0-1.2-0.6-1.8-1.7-1.8s-1.8,0.8-1.8,1.9v3.5h-0.9L115.1,313.6L115.1,313.6z"/>
		<path style="fill:#FFFFFF;" d="M122.5,318v-3.7h-0.8v-0.8h0.8v-1.8h0.9v1.8h1.9v0.8h-1.9v3.6c0,0.7,0.4,1,1,1
			c0.3,0,0.5-0.1,0.9-0.2v0.8c-0.4,0.2-0.6,0.3-1.1,0.3C123.3,319.7,122.5,319.3,122.5,318z"/>
		<path style="fill:#FFFFFF;" d="M126.4,316.6L126.4,316.6c0-1.8,1.2-3.2,2.9-3.2c1.8,0,2.9,1.4,2.9,3.2c0,0.1,0,0.2,0,0.3h-4.8
			c0.1,1.3,1.1,2.1,2.1,2.1c0.8,0,1.4-0.4,1.9-0.9l0.5,0.5c-0.6,0.7-1.3,1.2-2.5,1.2C127.8,319.8,126.4,318.5,126.4,316.6z
			 M131.2,316.2c-0.1-1.1-0.7-2.1-2-2.1c-1.1,0-1.9,0.9-2,2.1H131.2z"/>
		<path style="fill:#FFFFFF;" d="M133.7,313.6h0.9v1.6c0.4-1,1.3-1.7,2.5-1.7v1H137c-1.3,0-2.4,1-2.4,2.8v2.4h-0.9V313.6z"/>
		<path style="fill:#FFFFFF;" d="M137.8,318.8l0.4-0.6c0.6,0.5,1.3,0.8,2.1,0.8c0.7,0,1.2-0.4,1.2-1l0,0c0-0.6-0.7-0.8-1.5-1.1
			c-1-0.3-2-0.6-2-1.7l0,0c0-1.1,0.9-1.7,2.1-1.7c0.7,0,1.5,0.3,2.1,0.6l-0.4,0.7c-0.5-0.4-1.2-0.6-1.8-0.6c-0.7,0-1.2,0.4-1.2,0.9
			l0,0c0,0.5,0.7,0.8,1.5,1.1c0.9,0.3,2,0.6,2,1.7l0,0c0,1.2-1,1.8-2.1,1.8C139.4,319.7,138.4,319.5,137.8,318.8z"/>
		<path style="fill:#FFFFFF;" d="M143.5,320.6c0.6-0.2,0.8-0.5,0.8-1h-0.4v-1.2h1.1v1.1c0,1-0.4,1.4-1.3,1.6L143.5,320.6z"/>
		<path style="fill:#FFFFFF;" d="M146.3,313.7c0.6-0.2,0.8-0.5,0.8-1h-0.4v-1.2h1.1v1.1c0,1-0.4,1.4-1.3,1.6L146.3,313.7z"/>
		<path style="fill:#FFFFFF;" d="M152.5,316.6L152.5,316.6c0-1.8,1.2-3.2,2.9-3.2c1.8,0,2.9,1.4,2.9,3.2c0,0.1,0,0.2,0,0.3h-4.8
			c0.1,1.3,1.1,2.1,2.1,2.1c0.8,0,1.4-0.4,1.9-0.9l0.5,0.5c-0.6,0.7-1.3,1.2-2.5,1.2C153.8,319.8,152.5,318.5,152.5,316.6z
			 M157.3,316.2c-0.1-1.1-0.7-2.1-2-2.1c-1.1,0-1.9,0.9-2,2.1H157.3z"/>
		<path style="fill:#FFFFFF;" d="M159.3,316.6L159.3,316.6c0-2,1.4-3.2,2.9-3.2c1.2,0,1.9,0.6,2.3,1.2V311h0.9v8.6h-0.9v-1.2
			c-0.5,0.7-1.2,1.3-2.3,1.3C160.7,319.7,159.3,318.7,159.3,316.6z M164.6,316.6L164.6,316.6c0-1.4-1.1-2.3-2.2-2.3
			c-1.2,0-2.1,0.9-2.1,2.3l0,0c0,1.4,1,2.3,2.1,2.3C163.5,318.9,164.6,318,164.6,316.6z"/>
		<path style="fill:#FFFFFF;" d="M167.2,317.3v-3.8h0.9v3.6c0,1.2,0.6,1.8,1.7,1.8s1.8-0.8,1.8-1.9v-3.5h0.9v6.1h-0.9v-1.1
			c-0.4,0.6-1.1,1.2-2.1,1.2C168,319.7,167.2,318.8,167.2,317.3z"/>
		<path style="fill:#FFFFFF;" d="M174,316.6L174,316.6c0-1.7,1.3-3.2,3.1-3.2c1.2,0,1.9,0.4,2.4,1.1l-0.6,0.6
			c-0.4-0.5-1-0.9-1.9-0.9c-1.2,0-2.1,1.1-2.1,2.3l0,0c0,1.3,1,2.3,2.2,2.3c0.8,0,1.3-0.4,1.9-0.9l0.5,0.5c-0.6,0.7-1.3,1.2-2.5,1.2
			C175.4,319.8,174,318.3,174,316.6z"/>
		<path style="fill:#FFFFFF;" d="M180.5,317.9L180.5,317.9c0-1.3,1.1-2,2.6-2c0.8,0,1.3,0.1,1.9,0.3V316c0-1.1-0.6-1.6-1.8-1.6
			c-0.7,0-1.2,0.2-1.9,0.4l-0.3-0.7c0.6-0.3,1.3-0.5,2.2-0.5s1.5,0.2,2,0.6c0.4,0.4,0.6,1,0.6,1.8v3.7H185v-0.9
			c-0.4,0.5-1.2,1.1-2.2,1.1C181.6,319.7,180.5,319.1,180.5,317.9z M185,317.4v-0.6c-0.4-0.1-1.1-0.3-1.8-0.3
			c-1.2,0-1.8,0.5-1.8,1.2l0,0c0,0.8,0.7,1.2,1.5,1.2C184,319,185,318.4,185,317.4z"/>
		<path style="fill:#FFFFFF;" d="M187.9,318v-3.7h-0.8v-0.8h0.8v-1.8h0.9v1.8h1.9v0.8h-1.9v3.6c0,0.7,0.4,1,1,1
			c0.3,0,0.5-0.1,0.9-0.2v0.8c-0.4,0.2-0.6,0.3-1.1,0.3C188.7,319.7,187.9,319.3,187.9,318z"/>
		<path style="fill:#FFFFFF;" d="M191.9,316.6L191.9,316.6c0-1.8,1.2-3.2,2.9-3.2c1.8,0,2.9,1.4,2.9,3.2c0,0.1,0,0.2,0,0.3h-4.8
			c0.1,1.3,1.1,2.1,2.1,2.1c0.8,0,1.4-0.4,1.9-0.9l0.5,0.5c-0.6,0.7-1.3,1.2-2.5,1.2C193.2,319.8,191.9,318.5,191.9,316.6z
			 M196.7,316.2c-0.1-1.1-0.7-2.1-2-2.1c-1.1,0-1.9,0.9-2,2.1H196.7z"/>
		<path style="fill:#FFFFFF;" d="M198.7,316.6L198.7,316.6c0-2,1.4-3.2,2.9-3.2c1.2,0,1.9,0.6,2.3,1.2V311h0.9v8.6h-0.9v-1.2
			c-0.5,0.7-1.2,1.3-2.3,1.3C200.1,319.7,198.7,318.7,198.7,316.6z M203.9,316.6L203.9,316.6c0-1.4-1.1-2.3-2.2-2.3
			c-1.2,0-2.1,0.9-2.1,2.3l0,0c0,1.4,1,2.3,2.1,2.3S203.9,318,203.9,316.6z"/>
		<path style="fill:#FFFFFF;" d="M210.1,313.6h0.9v1.2c0.5-0.7,1.2-1.3,2.3-1.3c1.4,0,2.9,1.2,2.9,3.1l0,0c0,2-1.4,3.1-2.9,3.1
			c-1.2,0-1.9-0.6-2.3-1.2v3h-0.9V313.6z M215.3,316.6L215.3,316.6c0-1.4-1-2.3-2.1-2.3c-1.2,0-2.2,1-2.2,2.3l0,0
			c0,1.4,1.1,2.3,2.2,2.3C214.3,318.9,215.3,318.1,215.3,316.6z"/>
		<path style="fill:#FFFFFF;" d="M217.3,316.6L217.3,316.6c0-1.8,1.2-3.2,2.9-3.2c1.8,0,2.9,1.4,2.9,3.2c0,0.1,0,0.2,0,0.3h-4.8
			c0.1,1.3,1.1,2.1,2.1,2.1c0.8,0,1.4-0.4,1.9-0.9l0.5,0.5c-0.6,0.7-1.3,1.2-2.5,1.2C218.7,319.8,217.3,318.5,217.3,316.6z
			 M222.1,316.2c-0.1-1.1-0.7-2.1-2-2.1c-1.1,0-1.9,0.9-2,2.1H222.1z"/>
		<path style="fill:#FFFFFF;" d="M224.1,316.6L224.1,316.6c0-1.7,1.3-3.2,3.1-3.2c1.8,0,3.1,1.4,3.1,3.1l0,0c0,1.7-1.3,3.1-3.2,3.1
			C225.4,319.8,224.1,318.4,224.1,316.6z M229.6,316.6L229.6,316.6c0-1.3-1-2.4-2.2-2.4c-1.3,0-2.2,1.1-2.2,2.3l0,0
			c0,1.3,1,2.3,2.2,2.3C228.7,319,229.6,317.9,229.6,316.6z"/>
		<path style="fill:#FFFFFF;" d="M232,313.6h0.9v1.2c0.5-0.7,1.2-1.3,2.3-1.3c1.4,0,2.9,1.2,2.9,3.1l0,0c0,2-1.4,3.1-2.9,3.1
			c-1.2,0-1.9-0.6-2.3-1.2v3H232V313.6z M237.1,316.6L237.1,316.6c0-1.4-1-2.3-2.1-2.3c-1.2,0-2.2,1-2.2,2.3l0,0
			c0,1.4,1.1,2.3,2.2,2.3C236.2,318.9,237.1,318.1,237.1,316.6z"/>
		<path style="fill:#FFFFFF;" d="M239.7,311.1h0.9v8.6h-0.9V311.1z"/>
		<path style="fill:#FFFFFF;" d="M242.2,316.6L242.2,316.6c0-1.8,1.2-3.2,2.9-3.2c1.8,0,2.9,1.4,2.9,3.2c0,0.1,0,0.2,0,0.3h-4.8
			c0.1,1.3,1.1,2.1,2.1,2.1c0.8,0,1.4-0.4,1.9-0.9l0.5,0.5c-0.6,0.7-1.3,1.2-2.5,1.2C243.6,319.8,242.2,318.5,242.2,316.6z
			 M247,316.2c-0.1-1.1-0.7-2.1-2-2.1c-1.1,0-1.9,0.9-2,2.1H247z"/>
		<path style="fill:#FFFFFF;" d="M252.3,317.9L252.3,317.9c0-1.3,1.1-2,2.6-2c0.8,0,1.3,0.1,1.9,0.3V316c0-1.1-0.6-1.6-1.8-1.6
			c-0.7,0-1.2,0.2-1.9,0.4l-0.3-0.7c0.6-0.3,1.3-0.5,2.2-0.5s1.5,0.2,2,0.6c0.4,0.4,0.6,1,0.6,1.8v3.7h-0.9v-0.9
			c-0.4,0.5-1.2,1.1-2.2,1.1C253.5,319.7,252.3,319.1,252.3,317.9z M256.8,317.4v-0.6c-0.4-0.1-1.1-0.3-1.8-0.3
			c-1.2,0-1.8,0.5-1.8,1.2l0,0c0,0.8,0.7,1.2,1.5,1.2C255.9,319,256.8,318.4,256.8,317.4z"/>
		<path style="fill:#FFFFFF;" d="M259.5,313.6h0.9v1.6c0.4-1,1.3-1.7,2.5-1.7v1h-0.1c-1.3,0-2.4,1-2.4,2.8v2.4h-0.9L259.5,313.6
			L259.5,313.6z"/>
		<path style="fill:#FFFFFF;" d="M263.7,316.6L263.7,316.6c0-1.8,1.2-3.2,2.9-3.2c1.8,0,2.9,1.4,2.9,3.2c0,0.1,0,0.2,0,0.3h-4.8
			c0.1,1.3,1.1,2.1,2.1,2.1c0.8,0,1.4-0.4,1.9-0.9l0.5,0.5c-0.6,0.7-1.3,1.2-2.5,1.2C265,319.8,263.7,318.5,263.7,316.6z
			 M268.5,316.2c-0.1-1.1-0.7-2.1-2-2.1c-1.1,0-1.9,0.9-2,2.1H268.5z"/>
		<path style="fill:#FFFFFF;" d="M274.3,311.2h1.1v1h-1.1V311.2z M274.3,313.6h0.9v6.1h-0.9V313.6z"/>
		<path style="fill:#FFFFFF;" d="M277.2,313.6h0.9v1.1c0.4-0.6,1.1-1.2,2.1-1.2c1.4,0,2.3,1,2.3,2.4v3.8h-0.9v-3.6
			c0-1.2-0.6-1.8-1.7-1.8c-1.1,0-1.8,0.8-1.8,1.9v3.5h-0.9V313.6z"/>
		<path style="fill:#FFFFFF;" d="M283.9,316.6L283.9,316.6c0-1.7,1.3-3.2,3.1-3.2c1.2,0,1.9,0.4,2.4,1.1l-0.6,0.6
			c-0.4-0.5-1-0.9-1.9-0.9c-1.2,0-2.1,1.1-2.1,2.3l0,0c0,1.3,1,2.3,2.2,2.3c0.8,0,1.3-0.4,1.9-0.9l0.5,0.5c-0.6,0.7-1.3,1.2-2.5,1.2
			C285.3,319.8,283.9,318.3,283.9,316.6z"/>
		<path style="fill:#FFFFFF;" d="M290.9,313.6h0.9v1.6c0.4-1,1.3-1.7,2.5-1.7v1h-0.1c-1.3,0-2.4,1-2.4,2.8v2.4h-0.9L290.9,313.6
			L290.9,313.6z"/>
		<path style="fill:#FFFFFF;" d="M295.1,316.6L295.1,316.6c0-1.8,1.2-3.2,2.9-3.2c1.8,0,2.9,1.4,2.9,3.2c0,0.1,0,0.2,0,0.3h-4.8
			c0.1,1.3,1.1,2.1,2.1,2.1c0.8,0,1.4-0.4,1.9-0.9l0.5,0.5c-0.6,0.7-1.3,1.2-2.5,1.2C296.4,319.8,295.1,318.5,295.1,316.6z
			 M299.9,316.2c-0.1-1.1-0.7-2.1-2-2.1c-1.1,0-1.9,0.9-2,2.1H299.9z"/>
		<path style="fill:#FFFFFF;" d="M301.8,317.9L301.8,317.9c0-1.3,1.1-2,2.6-2c0.8,0,1.3,0.1,1.9,0.3V316c0-1.1-0.6-1.6-1.8-1.6
			c-0.7,0-1.2,0.2-1.9,0.4l-0.3-0.7c0.6-0.3,1.3-0.5,2.2-0.5c0.9,0,1.5,0.2,2,0.6c0.4,0.4,0.6,1,0.6,1.8v3.7h-0.9v-0.9
			c-0.4,0.5-1.2,1.1-2.2,1.1C302.9,319.7,301.8,319.1,301.8,317.9z M306.2,317.4v-0.6c-0.4-0.1-1.1-0.3-1.8-0.3
			c-1.2,0-1.8,0.5-1.8,1.2l0,0c0,0.8,0.7,1.2,1.5,1.2C305.4,319,306.2,318.4,306.2,317.4z"/>
		<path style="fill:#FFFFFF;" d="M308.4,318.8l0.4-0.6c0.6,0.5,1.3,0.8,2.1,0.8c0.7,0,1.2-0.4,1.2-1l0,0c0-0.6-0.7-0.8-1.5-1.1
			c-1-0.3-2-0.6-2-1.7l0,0c0-1.1,0.9-1.7,2.1-1.7c0.7,0,1.5,0.3,2.1,0.6l-0.4,0.7c-0.5-0.4-1.2-0.6-1.8-0.6c-0.7,0-1.2,0.4-1.2,0.9
			l0,0c0,0.5,0.7,0.8,1.5,1.1c0.9,0.3,2,0.6,2,1.7l0,0c0,1.2-1,1.8-2.1,1.8C310.1,319.7,309.1,319.5,308.4,318.8z"/>
		<path style="fill:#FFFFFF;" d="M314.6,311.2h1.1v1h-1.1V311.2z M314.7,313.6h0.9v6.1h-0.9V313.6z"/>
		<path style="fill:#FFFFFF;" d="M317.6,313.6h0.9v1.1c0.4-0.6,1.1-1.2,2.1-1.2c1.4,0,2.3,1,2.3,2.4v3.8H322v-3.6
			c0-1.2-0.6-1.8-1.7-1.8s-1.8,0.8-1.8,1.9v3.5h-0.9V313.6z"/>
		<path style="fill:#FFFFFF;" d="M324.6,320.7l0.4-0.7c0.7,0.5,1.4,0.8,2.3,0.8c1.3,0,2.2-0.7,2.2-2.1v-0.8
			c-0.5,0.7-1.2,1.2-2.4,1.2c-1.4,0-2.9-1.1-2.9-2.9l0,0c0-1.8,1.4-2.9,2.9-2.9c1.2,0,1.9,0.5,2.3,1.2v-1.1h0.9v5
			c0,0.9-0.3,1.6-0.8,2.1c-0.5,0.5-1.3,0.8-2.3,0.8S325.4,321.2,324.6,320.7z M329.6,316.3L329.6,316.3c0-1.2-1.1-2.1-2.2-2.1
			s-2.1,0.8-2.1,2.1l0,0c0,1.2,1,2.1,2.1,2.1C328.5,318.4,329.6,317.6,329.6,316.3z"/>
		<path style="fill:#FFFFFF;" d="M332.4,311.1h0.9v8.6h-0.9V311.1z"/>
		<path style="fill:#FFFFFF;" d="M339.8,313.6h1l-2.5,6.2c-0.5,1.2-1.1,1.7-2.1,1.7c-0.5,0-0.9-0.1-1.2-0.3l0.3-0.7
			c0.3,0.2,0.5,0.2,1,0.2c0.5,0,0.9-0.3,1.2-1.2l-2.8-6.1h1l2.2,5L339.8,313.6z"/>
		<path style="fill:#FFFFFF;" d="M66.7,327h0.9v8.6h-0.9V327z"/>
		<path style="fill:#FFFFFF;" d="M69.2,332.5L69.2,332.5c0-1.7,1.3-3.2,3.1-3.2s3.1,1.4,3.1,3.1l0,0c0,1.7-1.3,3.1-3.2,3.1
			C70.5,335.6,69.2,334.2,69.2,332.5z M74.6,332.5L74.6,332.5c0-1.3-1-2.4-2.2-2.4c-1.3,0-2.2,1.1-2.2,2.3l0,0c0,1.3,1,2.3,2.2,2.3
			C73.7,334.8,74.6,333.8,74.6,332.5z"/>
		<path style="fill:#FFFFFF;" d="M76.7,332.5L76.7,332.5c0-1.7,1.3-3.2,3.1-3.2c1.8,0,3.1,1.4,3.1,3.1l0,0c0,1.7-1.3,3.1-3.2,3.1
			C78,335.6,76.7,334.2,76.7,332.5z M82.1,332.5L82.1,332.5c0-1.3-1-2.4-2.2-2.4c-1.3,0-2.2,1.1-2.2,2.3l0,0c0,1.3,1,2.3,2.2,2.3
			C81.2,334.8,82.1,333.8,82.1,332.5z"/>
		<path style="fill:#FFFFFF;" d="M84.5,327h0.9v5.9l3.3-3.4h1.2l-2.5,2.6l2.6,3.5h-1.1l-2.1-2.9l-1.2,1.2v1.6h-0.9L84.5,327
			L84.5,327z"/>
		<path style="fill:#FFFFFF;" d="M91.1,327.1h1.1v1h-1.1V327.1z M91.1,329.5H92v6.1h-0.9V329.5z"/>
		<path style="fill:#FFFFFF;" d="M94,329.5h0.9v1.1c0.4-0.6,1.1-1.2,2.1-1.2c1.4,0,2.3,1,2.3,2.4v3.8h-0.9V332
			c0-1.2-0.6-1.8-1.7-1.8s-1.8,0.8-1.8,1.9v3.5H94V329.5z"/>
		<path style="fill:#FFFFFF;" d="M101,336.6l0.4-0.7c0.7,0.5,1.4,0.8,2.3,0.8c1.3,0,2.2-0.7,2.2-2.1v-0.7c-0.5,0.7-1.2,1.2-2.4,1.2
			c-1.4,0-2.9-1.1-2.9-2.9l0,0c0-1.8,1.4-2.9,2.9-2.9c1.2,0,1.9,0.5,2.3,1.2v-1.2h0.9v5c0,0.9-0.3,1.6-0.8,2.1s-1.3,0.8-2.3,0.8
			C102.8,337.4,101.8,337.1,101,336.6z M106,332.2L106,332.2c0-1.2-1.1-2.1-2.2-2.1c-1.2,0-2.1,0.8-2.1,2.1l0,0c0,1.2,1,2.1,2.1,2.1
			C104.9,334.3,106,333.4,106,332.2z"/>
		<path style="fill:#FFFFFF;" d="M112.4,330.3h-0.8v-0.8h0.8v-0.5c0-0.7,0.2-1.2,0.5-1.5c0.3-0.3,0.7-0.4,1.3-0.4
			c0.4,0,0.7,0.1,1,0.2v0.8c-0.4-0.1-0.5-0.2-0.9-0.2c-0.7,0-1.1,0.4-1.1,1.2v0.5h1.9v0.8h-1.8v5.3h-0.9L112.4,330.3L112.4,330.3z"
			/>
		<path style="fill:#FFFFFF;" d="M115.9,332.5L115.9,332.5c0-1.7,1.3-3.2,3.1-3.2s3.1,1.4,3.1,3.1l0,0c0,1.7-1.3,3.1-3.2,3.1
			C117.2,335.6,115.9,334.2,115.9,332.5z M121.3,332.5L121.3,332.5c0-1.3-1-2.4-2.2-2.4c-1.3,0-2.2,1.1-2.2,2.3l0,0
			c0,1.3,1,2.3,2.2,2.3C120.4,334.8,121.3,333.8,121.3,332.5z"/>
		<path style="fill:#FFFFFF;" d="M123.8,329.5h0.9v1.6c0.4-1,1.3-1.7,2.5-1.7v1h-0.1c-1.3,0-2.4,1-2.4,2.8v2.4h-0.9V329.5z"/>
		<path style="fill:#FFFFFF;" d="M131.7,329.5h0.9v1.2c0.5-0.7,1.2-1.3,2.3-1.3c1.4,0,2.9,1.2,2.9,3.1l0,0c0,2-1.4,3.1-2.9,3.1
			c-1.2,0-1.9-0.6-2.3-1.2v3h-0.9V329.5z M137,332.5L137,332.5c0-1.4-1-2.3-2.1-2.3c-1.2,0-2.2,1-2.2,2.3l0,0c0,1.4,1.1,2.3,2.2,2.3
			S137,334,137,332.5z"/>
		<path style="fill:#FFFFFF;" d="M139.5,327h0.9v8.6h-0.9V327z"/>
		<path style="fill:#FFFFFF;" d="M141.9,333.8L141.9,333.8c0-1.3,1.1-2,2.6-2c0.8,0,1.3,0.1,1.9,0.3v-0.2c0-1.1-0.6-1.6-1.8-1.6
			c-0.7,0-1.2,0.2-1.9,0.4l-0.3-0.7c0.6-0.3,1.3-0.5,2.2-0.5c0.9,0,1.5,0.2,2,0.6c0.4,0.4,0.6,1,0.6,1.8v3.7h-0.9v-0.9
			c-0.4,0.5-1.2,1.1-2.2,1.1C143,335.6,141.9,335,141.9,333.8z M146.3,333.3v-0.6c-0.4-0.1-1.1-0.3-1.8-0.3c-1.2,0-1.8,0.5-1.8,1.2
			l0,0c0,0.8,0.7,1.2,1.5,1.2C145.4,334.9,146.3,334.3,146.3,333.3z"/>
		<path style="fill:#FFFFFF;" d="M148.7,332.5L148.7,332.5c0-1.7,1.3-3.2,3.1-3.2c1.2,0,1.9,0.4,2.4,1.1l-0.6,0.6
			c-0.4-0.5-1-0.9-1.9-0.9c-1.2,0-2.1,1.1-2.1,2.3l0,0c0,1.3,1,2.3,2.2,2.3c0.8,0,1.3-0.4,1.9-0.9l0.5,0.5c-0.6,0.7-1.3,1.2-2.5,1.2
			C150,335.6,148.7,334.2,148.7,332.5z"/>
		<path style="fill:#FFFFFF;" d="M155.2,332.5L155.2,332.5c0-1.8,1.2-3.2,2.9-3.2c1.8,0,2.9,1.4,2.9,3.2c0,0.1,0,0.2,0,0.3h-4.8
			c0.1,1.3,1.1,2.1,2.1,2.1c0.8,0,1.4-0.4,1.9-0.9l0.5,0.5c-0.6,0.7-1.3,1.2-2.5,1.2C156.5,335.6,155.2,334.4,155.2,332.5z
			 M160,332.1c-0.1-1.1-0.7-2.1-2-2.1c-1.1,0-1.9,0.9-2,2.1H160z"/>
		<path style="fill:#FFFFFF;" d="M161.9,334.7l0.4-0.6c0.6,0.5,1.3,0.8,2.1,0.8c0.7,0,1.2-0.4,1.2-1l0,0c0-0.6-0.7-0.8-1.5-1.1
			c-1-0.3-2-0.6-2-1.7l0,0c0-1.1,0.9-1.7,2.1-1.7c0.7,0,1.5,0.3,2.1,0.6l-0.4,0.7c-0.5-0.4-1.2-0.6-1.8-0.6c-0.7,0-1.2,0.4-1.2,0.9
			l0,0c0,0.5,0.7,0.8,1.5,1.1c0.9,0.3,2,0.6,2,1.7l0,0c0,1.2-1,1.8-2.1,1.8C163.5,335.6,162.6,335.3,161.9,334.7z"/>
		<path style="fill:#FFFFFF;" d="M171.8,333.9v-3.7H171v-0.8h0.8v-1.8h0.9v1.8h1.9v0.8h-1.9v3.6c0,0.7,0.4,1,1,1
			c0.3,0,0.5-0.1,0.9-0.2v0.8c-0.4,0.2-0.6,0.3-1.1,0.3C172.5,335.6,171.8,335.2,171.8,333.9z"/>
		<path style="fill:#FFFFFF;" d="M176.1,327h0.9v3.6c0.4-0.6,1.1-1.2,2.1-1.2c1.4,0,2.3,1,2.3,2.4v3.8h-0.9V332
			c0-1.2-0.6-1.8-1.7-1.8s-1.8,0.8-1.8,1.9v3.5h-0.9L176.1,327L176.1,327z"/>
		<path style="fill:#FFFFFF;" d="M182.7,333.8L182.7,333.8c0-1.3,1.1-2,2.6-2c0.8,0,1.3,0.1,1.9,0.3v-0.2c0-1.1-0.6-1.6-1.8-1.6
			c-0.7,0-1.2,0.2-1.9,0.4l-0.3-0.7c0.6-0.3,1.3-0.5,2.2-0.5s1.5,0.2,2,0.6c0.4,0.4,0.6,1,0.6,1.8v3.7h-0.9v-0.9
			c-0.4,0.5-1.2,1.1-2.2,1.1C183.8,335.6,182.7,335,182.7,333.8z M187.1,333.3v-0.6c-0.4-0.1-1.1-0.3-1.8-0.3
			c-1.2,0-1.8,0.5-1.8,1.2l0,0c0,0.8,0.7,1.2,1.5,1.2C186.2,334.9,187.1,334.3,187.1,333.3z"/>
		<path style="fill:#FFFFFF;" d="M190.2,333.9v-3.7h-0.9v-0.8h0.8v-1.8h0.9v1.8h1.9v0.8h-1.8v3.6c0,0.7,0.4,1,1,1
			c0.3,0,0.5-0.1,0.9-0.2v0.8c-0.4,0.2-0.6,0.3-1.1,0.3C190.9,335.6,190.2,335.2,190.2,333.9z"/>
		<path style="fill:#FFFFFF;" d="M197.9,327h0.9v3.6c0.4-0.6,1.1-1.2,2.1-1.2c1.4,0,2.3,1,2.3,2.4v3.8h-0.9V332
			c0-1.2-0.6-1.8-1.7-1.8s-1.8,0.8-1.8,1.9v3.5h-0.9L197.9,327L197.9,327z"/>
		<path style="fill:#FFFFFF;" d="M204.5,333.8L204.5,333.8c0-1.3,1.1-2,2.6-2c0.8,0,1.3,0.1,1.9,0.3v-0.2c0-1.1-0.6-1.6-1.8-1.6
			c-0.7,0-1.2,0.2-1.9,0.4L205,330c0.6-0.3,1.3-0.5,2.2-0.5s1.5,0.2,2,0.6c0.4,0.4,0.6,1,0.6,1.8v3.7h-0.9v-0.9
			c-0.4,0.5-1.2,1.1-2.2,1.1C205.6,335.6,204.5,335,204.5,333.8z M208.9,333.3v-0.6c-0.4-0.1-1.1-0.3-1.8-0.3
			c-1.2,0-1.8,0.5-1.8,1.2l0,0c0,0.8,0.7,1.2,1.5,1.2C208,334.9,208.9,334.3,208.9,333.3z"/>
		<path style="fill:#FFFFFF;" d="M211,329.5h1l2.1,5l2.1-5h1l-2.6,6.1h-0.8L211,329.5z"/>
		<path style="fill:#FFFFFF;" d="M217.9,332.5L217.9,332.5c0-1.8,1.2-3.2,2.9-3.2c1.8,0,2.9,1.4,2.9,3.2c0,0.1,0,0.2,0,0.3h-4.8
			c0.1,1.3,1.1,2.1,2.1,2.1c0.8,0,1.4-0.4,1.9-0.9l0.5,0.5c-0.6,0.7-1.3,1.2-2.5,1.2C219.3,335.6,217.9,334.4,217.9,332.5z
			 M222.8,332.1c-0.1-1.1-0.7-2.1-2-2.1c-1.1,0-1.9,0.9-2,2.1H222.8z"/>
		<path style="fill:#00B9DF;" d="M227.8,334.7l0.8-1.2c0.7,0.5,1.4,0.7,2,0.7s0.7-0.2,0.7-0.4l0,0c0-0.4-0.6-0.5-1.3-0.7
			c-0.9-0.3-1.9-0.6-1.9-1.9l0,0c0-1.2,1.1-2,2.3-2c0.8,0,1.7,0.3,2.3,0.7l-0.7,1.2c-0.6-0.4-1.2-0.6-1.7-0.6
			c-0.4,0-0.6,0.2-0.6,0.4l0,0c0,0.4,0.6,0.5,1.2,0.7c0.9,0.3,1.9,0.7,1.9,1.9l0,0c0,1.4-1.1,2.1-2.4,2.1
			C229.6,335.6,228.7,335.4,227.8,334.7z"/>
		<path style="fill:#00B9DF;" d="M234.4,333.8v-2.9h-0.7v-1.5h0.7v-1.6h1.8v1.6h1.5v1.5h-1.5v2.7c0,0.4,0.2,0.6,0.5,0.6
			c0.4,0,0.6-0.1,0.9-0.2v1.4c-0.4,0.2-0.8,0.4-1.4,0.4C235.1,335.6,234.4,335.2,234.4,333.8z"/>
		<path style="fill:#00B9DF;" d="M238.8,329.3h1.8v1.2c0.4-0.9,1-1.4,2-1.3v1.9h-0.1c-1.2,0-1.9,0.7-1.9,2.2v2.3h-1.8V329.3z"/>
		<path style="fill:#00B9DF;" d="M243.3,332.4L243.3,332.4c0-1.8,1.4-3.3,3.4-3.3c2,0,3.4,1.4,3.4,3.2l0,0c0,1.8-1.4,3.3-3.4,3.3
			C244.7,335.6,243.3,334.2,243.3,332.4z M248.3,332.4L248.3,332.4c0-1-0.6-1.8-1.6-1.8c-1,0-1.6,0.8-1.6,1.7l0,0
			c0,0.9,0.6,1.7,1.6,1.7C247.7,334.1,248.3,333.3,248.3,332.4z"/>
		<path style="fill:#00B9DF;" d="M251.2,329.3h1.8v0.9c0.4-0.5,0.9-1,1.9-1c1.3,0,2.1,0.9,2.1,2.3v4h-1.8v-3.5
			c0-0.8-0.4-1.2-1.1-1.2c-0.7,0-1.1,0.4-1.1,1.2v3.5h-1.8L251.2,329.3L251.2,329.3z"/>
		<path style="fill:#00B9DF;" d="M258.4,336.8l0.6-1.3c0.6,0.4,1.2,0.5,2.1,0.5c1.2,0,1.8-0.6,1.8-1.7V334c-0.5,0.6-1.1,1-2.1,1
			c-1.4,0-2.8-1.1-2.8-2.9l0,0c0-1.9,1.3-2.9,2.8-2.9c1,0,1.5,0.4,2.1,0.9v-0.8h1.8v4.8c0,1.2-0.3,2-0.8,2.5
			c-0.6,0.6-1.5,0.8-2.7,0.8C260.2,337.4,259.2,337.1,258.4,336.8z M262.9,332.1L262.9,332.1c0-0.9-0.6-1.5-1.5-1.5
			s-1.5,0.6-1.5,1.4l0,0c0,0.9,0.6,1.4,1.5,1.4S262.9,332.9,262.9,332.1z"/>
		<path style="fill:#00B9DF;" d="M269.3,332.4L269.3,332.4c0-1.8,1.2-3.3,3.1-3.3c2.1,0,3,1.6,3,3.4c0,0.2,0,0.3,0,0.4h-4.4
			c0.2,0.8,0.7,1.2,1.5,1.2c0.6,0,1.1-0.2,1.5-0.6l1,0.9c-0.6,0.7-1.4,1.2-2.6,1.2C270.6,335.6,269.3,334.4,269.3,332.4z
			 M273.7,331.9c-0.1-0.8-0.5-1.3-1.3-1.3c-0.7,0-1.2,0.5-1.3,1.3H273.7z"/>
		<path style="fill:#00B9DF;" d="M276.3,332.4L276.3,332.4c0-1.8,1.3-3.3,3.3-3.3c1.2,0,1.9,0.4,2.5,1.1l-1.1,1.2
			c-0.4-0.4-0.8-0.7-1.4-0.7c-0.9,0-1.5,0.8-1.5,1.7l0,0c0,1,0.6,1.7,1.6,1.7c0.6,0,1-0.3,1.4-0.6l1.1,1.1c-0.6,0.6-1.3,1.2-2.6,1.2
			C277.7,335.6,276.3,334.2,276.3,332.4z"/>
		<path style="fill:#00B9DF;" d="M282.9,332.4L282.9,332.4c0-1.8,1.4-3.3,3.4-3.3c2,0,3.4,1.4,3.4,3.2l0,0c0,1.8-1.4,3.3-3.4,3.3
			S282.9,334.2,282.9,332.4z M287.9,332.4L287.9,332.4c0-1-0.6-1.8-1.6-1.8c-1,0-1.6,0.8-1.6,1.7l0,0c0,0.9,0.6,1.7,1.6,1.7
			C287.3,334.1,287.9,333.3,287.9,332.4z"/>
		<path style="fill:#00B9DF;" d="M290.8,329.3h1.8v0.9c0.4-0.5,0.9-1,1.9-1c1.3,0,2.1,0.9,2.1,2.3v4h-1.8v-3.5
			c0-0.8-0.4-1.2-1.1-1.2s-1.1,0.4-1.1,1.2v3.5h-1.8L290.8,329.3L290.8,329.3z"/>
		<path style="fill:#00B9DF;" d="M297.7,332.4L297.7,332.4c0-1.8,1.4-3.3,3.4-3.3c2,0,3.4,1.4,3.4,3.2l0,0c0,1.8-1.4,3.3-3.4,3.3
			S297.7,334.2,297.7,332.4z M302.7,332.4L302.7,332.4c0-1-0.6-1.8-1.6-1.8c-1,0-1.6,0.8-1.6,1.7l0,0c0,0.9,0.6,1.7,1.6,1.7
			C302.1,334.1,302.7,333.3,302.7,332.4z"/>
		<path style="fill:#00B9DF;" d="M305.6,329.3h1.8v0.9c0.4-0.5,1-1,1.9-1c0.8,0,1.4,0.4,1.8,1c0.5-0.6,1.2-1,2.1-1
			c1.3,0,2.1,0.8,2.1,2.3v4.1h-1.8v-3.5c0-0.8-0.4-1.2-1.1-1.2s-1.1,0.4-1.1,1.2v3.5h-1.8v-3.5c0-0.8-0.4-1.2-1.1-1.2
			s-1.1,0.4-1.1,1.2v3.5h-1.8L305.6,329.3L305.6,329.3z"/>
		<path style="fill:#00B9DF;" d="M316.7,327h1.9v1.6h-1.9V327z M316.7,329.3h1.8v6.2h-1.8V329.3z"/>
		<path style="fill:#00B9DF;" d="M319.7,332.4L319.7,332.4c0-1.8,1.2-3.3,3.1-3.3c2.1,0,3,1.6,3,3.4c0,0.2,0,0.3,0,0.4h-4.4
			c0.2,0.8,0.7,1.2,1.5,1.2c0.6,0,1.1-0.2,1.5-0.6l1,0.9c-0.6,0.7-1.4,1.2-2.6,1.2C321.2,335.6,319.7,334.4,319.7,332.4z
			 M324.2,331.9c-0.1-0.8-0.5-1.3-1.3-1.3c-0.7,0-1.2,0.5-1.3,1.3H324.2z"/>
		<path style="fill:#00B9DF;" d="M326.6,334.7l0.8-1.2c0.7,0.5,1.4,0.7,2,0.7c0.5,0,0.7-0.2,0.7-0.4l0,0c0-0.4-0.6-0.5-1.3-0.7
			c-0.9-0.3-1.9-0.6-1.9-1.9l0,0c0-1.2,1.1-2,2.3-2c0.8,0,1.7,0.3,2.3,0.7l-0.7,1.2c-0.6-0.4-1.2-0.6-1.7-0.6s-0.6,0.2-0.6,0.4l0,0
			c0,0.4,0.6,0.5,1.2,0.7c0.9,0.3,1.9,0.7,1.9,1.9l0,0c0,1.4-1.1,2.1-2.4,2.1C328.4,335.6,327.4,335.4,326.6,334.7z"/>
		<path style="fill:#FFFFFF;" d="M337.3,334.4v1.2h-0.9V327h0.9v3.8c0.5-0.7,1.2-1.3,2.3-1.3c1.4,0,2.9,1.2,2.9,3.1l0,0
			c0,2-1.4,3.1-2.9,3.1C338.6,335.6,337.9,335,337.3,334.4z M341.6,332.5L341.6,332.5c0-1.4-1-2.3-2.1-2.3s-2.2,1-2.2,2.3l0,0
			c0,1.4,1.1,2.3,2.2,2.3C340.7,334.8,341.6,334,341.6,332.5z"/>
		<path style="fill:#FFFFFF;" d="M344,333.2v-3.8h0.9v3.6c0,1.2,0.6,1.8,1.7,1.8c1.1,0,1.8-0.8,1.8-1.9v-3.5h0.9v6.1h-0.9v-1.1
			c-0.4,0.6-1.1,1.2-2.1,1.2C344.8,335.6,344,334.6,344,333.2z"/>
		<path style="fill:#FFFFFF;" d="M351.5,333.9v-3.7h-0.8v-0.8h0.8v-1.8h0.9v1.8h1.9v0.8h-1.9v3.6c0,0.7,0.4,1,1,1
			c0.3,0,0.5-0.1,0.9-0.2v0.8c-0.4,0.2-0.6,0.3-1.1,0.3C352.2,335.6,351.5,335.2,351.5,333.9z"/>
		<path style="fill:#FFFFFF;" d="M66.2,349.6L66.2,349.6c0-1.3,1.1-2,2.6-2c0.8,0,1.3,0.1,1.9,0.3v-0.2c0-1.1-0.6-1.6-1.8-1.6
			c-0.7,0-1.2,0.2-1.9,0.4l-0.3-0.7c0.6-0.3,1.3-0.5,2.2-0.5c0.9,0,1.5,0.2,2,0.6s0.6,1,0.6,1.8v3.7h-0.9v-0.9
			c-0.4,0.5-1.2,1.1-2.2,1.1C67.3,351.5,66.2,350.9,66.2,349.6z M70.6,349.2v-0.6c-0.4-0.1-1.1-0.3-1.8-0.3c-1.2,0-1.8,0.5-1.8,1.2
			l0,0c0,0.8,0.7,1.2,1.5,1.2C69.7,350.8,70.6,350.1,70.6,349.2z"/>
		<path style="fill:#FFFFFF;" d="M73.4,342.9h0.9v8.6h-0.9V342.9z"/>
		<path style="fill:#FFFFFF;" d="M75.8,350.6l0.4-0.6c0.6,0.5,1.3,0.8,2.1,0.8s1.2-0.4,1.2-1l0,0c0-0.6-0.7-0.8-1.5-1.1
			c-1-0.3-2-0.6-2-1.7l0,0c0-1.1,0.9-1.7,2.1-1.7c0.7,0,1.5,0.3,2.1,0.6l-0.4,0.7c-0.5-0.4-1.2-0.6-1.8-0.6c-0.7,0-1.2,0.4-1.2,0.9
			l0,0c0,0.5,0.7,0.8,1.5,1.1c0.9,0.3,2,0.6,2,1.7l0,0c0,1.2-1,1.8-2.1,1.8C77.4,351.5,76.4,351.2,75.8,350.6z"/>
		<path style="fill:#FFFFFF;" d="M81.6,348.4L81.6,348.4c0-1.7,1.3-3.2,3.1-3.2c1.8,0,3.1,1.4,3.1,3.1l0,0c0,1.7-1.3,3.1-3.2,3.1
			C82.9,351.5,81.6,350.1,81.6,348.4z M87,348.4L87,348.4c0-1.3-1-2.4-2.2-2.4c-1.3,0-2.2,1.1-2.2,2.3l0,0c0,1.3,1,2.3,2.2,2.3
			C86.1,350.7,87,349.6,87,348.4z"/>
		<path style="fill:#FFFFFF;" d="M92.8,345.4h0.9v1c0.4-0.6,0.9-1.2,2-1.2c1,0,1.6,0.5,2,1.2c0.4-0.6,1.1-1.2,2.1-1.2
			c1.4,0,2.2,0.9,2.2,2.4v3.8h-0.9v-3.6c0-1.2-0.6-1.8-1.6-1.8c-0.9,0-1.7,0.7-1.7,1.9v3.5h-0.9v-3.6c0-1.2-0.6-1.8-1.5-1.8
			c-0.9,0-1.7,0.8-1.7,1.9v3.5h-0.9C92.8,351.3,92.8,345.4,92.8,345.4z"/>
		<path style="fill:#FFFFFF;" d="M103.4,349.6L103.4,349.6c0-1.3,1.1-2,2.6-2c0.8,0,1.3,0.1,1.9,0.3v-0.2c0-1.1-0.6-1.6-1.8-1.6
			c-0.7,0-1.3,0.2-1.9,0.4l-0.3-0.7c0.6-0.3,1.3-0.5,2.2-0.5c0.9,0,1.5,0.2,2,0.6s0.6,1,0.6,1.8v3.7h-0.9v-0.9
			c-0.4,0.5-1.2,1.1-2.2,1.1C104.5,351.5,103.4,350.9,103.4,349.6z M107.8,349.2v-0.6c-0.4-0.1-1.1-0.3-1.8-0.3
			c-1.2,0-1.8,0.5-1.8,1.2l0,0c0,0.8,0.7,1.2,1.5,1.2C106.9,350.8,107.8,350.1,107.8,349.2z"/>
		<path style="fill:#FFFFFF;" d="M110.4,345.4h0.9v1.1c0.4-0.6,1.1-1.2,2.1-1.2c1.4,0,2.3,1,2.3,2.4v3.8h-0.9v-3.6
			c0-1.2-0.6-1.8-1.7-1.8s-1.8,0.8-1.8,1.9v3.5h-0.9C110.4,351.4,110.4,345.4,110.4,345.4z"/>
		<path style="fill:#FFFFFF;" d="M122.1,345.4h1l-2.5,6.2c-0.5,1.2-1.1,1.7-2.1,1.7c-0.5,0-0.9-0.1-1.2-0.3l0.3-0.7
			c0.3,0.2,0.5,0.2,1,0.2c0.5,0,0.9-0.3,1.2-1.2l-2.8-6.1h1l2.2,5L122.1,345.4z"/>
		<path style="fill:#FFFFFF;" d="M127.3,348.4L127.3,348.4c0-1.7,1.3-3.2,3.1-3.2c1.8,0,3.1,1.4,3.1,3.1l0,0c0,1.7-1.3,3.1-3.2,3.1
			C128.7,351.5,127.3,350.1,127.3,348.4z M132.8,348.4L132.8,348.4c0-1.3-1-2.4-2.2-2.4c-1.3,0-2.2,1.1-2.2,2.3l0,0
			c0,1.3,1,2.3,2.2,2.3C131.9,350.7,132.8,349.6,132.8,348.4z"/>
		<path style="fill:#FFFFFF;" d="M135.5,346.2h-0.8v-0.8h0.8v-0.5c0-0.7,0.2-1.2,0.5-1.5c0.3-0.3,0.7-0.4,1.3-0.4
			c0.4,0,0.7,0.1,1,0.2v0.8c-0.4-0.1-0.5-0.2-0.9-0.2c-0.7,0-1.1,0.4-1.1,1.2v0.5h1.9v0.8h-1.9v5.3h-0.9L135.5,346.2L135.5,346.2z"
			/>
		<path style="fill:#FFFFFF;" d="M143,349.8v-3.7h-0.8v-0.8h0.8v-1.8h0.9v1.8h1.9v0.8h-1.9v3.6c0,0.7,0.4,1,1,1
			c0.3,0,0.5-0.1,0.9-0.2v0.8c-0.4,0.2-0.6,0.3-1.1,0.3C143.8,351.5,143,351,143,349.8z"/>
		<path style="fill:#FFFFFF;" d="M147.3,342.9h0.9v3.6c0.4-0.6,1.1-1.2,2.1-1.2c1.4,0,2.3,1,2.3,2.4v3.8h-0.9v-3.6
			c0-1.2-0.6-1.8-1.7-1.8s-1.8,0.8-1.8,1.9v3.5h-0.9L147.3,342.9L147.3,342.9z"/>
		<path style="fill:#FFFFFF;" d="M154.1,348.4L154.1,348.4c0-1.8,1.2-3.2,2.9-3.2c1.8,0,2.9,1.4,2.9,3.2c0,0.1,0,0.2,0,0.3h-4.8
			c0.1,1.3,1.1,2.1,2.1,2.1c0.8,0,1.4-0.4,1.9-0.9l0.5,0.5c-0.6,0.7-1.3,1.2-2.5,1.2C155.4,351.5,154.1,350.3,154.1,348.4z
			 M158.8,348c-0.1-1.1-0.7-2.1-2-2.1c-1.1,0-1.9,0.9-2,2.1H158.8z"/>
		<path style="fill:#00B9DF;" d="M164.1,348.3L164.1,348.3c0-1.8,1.3-3.3,3.3-3.3c1.2,0,1.9,0.4,2.5,1.1l-1.1,1.2
			c-0.4-0.4-0.8-0.7-1.4-0.7c-0.9,0-1.5,0.8-1.5,1.7l0,0c0,1,0.6,1.7,1.6,1.7c0.6,0,1-0.3,1.4-0.6l1.1,1.1c-0.6,0.6-1.3,1.2-2.6,1.2
			C165.5,351.5,164.1,350.1,164.1,348.3z"/>
		<path style="fill:#00B9DF;" d="M171,349.2v-4h1.8v3.5c0,0.8,0.4,1.2,1.1,1.2c0.7,0,1.1-0.4,1.1-1.2v-3.5h1.8v6.2h-1.8v-0.9
			c-0.4,0.5-0.9,1-1.9,1C171.7,351.5,171,350.6,171,349.2z"/>
		<path style="fill:#00B9DF;" d="M178.2,342.9h1.8v8.6h-1.8V342.9z"/>
		<path style="fill:#00B9DF;" d="M181.9,349.6v-2.9h-0.7v-1.5h0.7v-1.6h1.8v1.6h1.5v1.5h-1.5v2.7c0,0.4,0.2,0.6,0.5,0.6
			s0.6-0.1,0.9-0.2v1.4c-0.4,0.2-0.8,0.4-1.4,0.4C182.6,351.5,181.9,351.1,181.9,349.6z"/>
		<path style="fill:#00B9DF;" d="M186.2,349.2v-4h1.8v3.5c0,0.8,0.4,1.2,1.1,1.2c0.7,0,1.1-0.4,1.1-1.2v-3.5h1.8v6.2h-1.8v-0.9
			c-0.4,0.5-0.9,1-1.9,1C187.1,351.5,186.2,350.6,186.2,349.2z"/>
		<path style="fill:#00B9DF;" d="M193.5,345.1h1.8v1.2c0.4-0.9,1-1.4,2-1.3v1.9h-0.1c-1.2,0-1.9,0.7-1.9,2.2v2.3h-1.8V345.1
			L193.5,345.1z"/>
		<path style="fill:#00B9DF;" d="M197.9,349.6L197.9,349.6c0-1.4,1.1-2.1,2.5-2.1c0.6,0,1.1,0.1,1.5,0.3v-0.1c0-0.7-0.4-1.2-1.3-1.2
			c-0.7,0-1.2,0.1-1.7,0.4l-0.4-1.3c0.7-0.3,1.3-0.5,2.4-0.5c1,0,1.7,0.3,2.1,0.7c0.4,0.4,0.7,1.2,0.7,2v3.7H202v-0.7
			c-0.4,0.4-1.1,0.8-1.9,0.8C198.8,351.5,197.9,350.8,197.9,349.6z M202,349.2v-0.4c-0.3-0.2-0.7-0.3-1.2-0.3
			c-0.8,0-1.2,0.3-1.2,0.9l0,0c0,0.4,0.4,0.8,1,0.8C201.4,350.3,202,349.8,202,349.2z"/>
		<path style="fill:#00B9DF;" d="M205.2,342.9h1.8v8.6h-1.8V342.9z"/>
		<path style="fill:#00B9DF;" d="M211.5,349.6L211.5,349.6c0-1.4,1.1-2.1,2.5-2.1c0.6,0,1.1,0.1,1.5,0.3v-0.1c0-0.7-0.4-1.2-1.3-1.2
			c-0.7,0-1.2,0.1-1.7,0.4l-0.4-1.3c0.7-0.3,1.3-0.5,2.4-0.5c1,0,1.7,0.3,2.1,0.7c0.4,0.4,0.7,1.2,0.7,2v3.7h-1.7v-0.7
			c-0.4,0.4-1.1,0.8-1.9,0.8C212.5,351.5,211.5,350.8,211.5,349.6z M215.5,349.2v-0.4c-0.3-0.2-0.7-0.3-1.2-0.3
			c-0.8,0-1.2,0.3-1.2,0.9l0,0c0,0.4,0.4,0.8,1,0.8C215,350.3,215.5,349.8,215.5,349.2z"/>
		<path style="fill:#00B9DF;" d="M218.7,345.1h1.8v0.9c0.4-0.5,0.9-1,1.9-1c1.3,0,2.1,0.9,2.1,2.3v4h-1.8v-3.5
			c0-0.8-0.4-1.2-1.1-1.2c-0.7,0-1.1,0.4-1.1,1.2v3.5h-1.8L218.7,345.1L218.7,345.1z"/>
		<path style="fill:#00B9DF;" d="M225.5,348.3L225.5,348.3c0-2.1,1.3-3.3,2.9-3.3c1,0,1.5,0.4,2,0.9v-3h1.8v8.6h-1.8v-0.9
			c-0.4,0.6-1.1,1-2,1C227,351.5,225.5,350.4,225.5,348.3z M230.4,348.3L230.4,348.3c0-1.1-0.7-1.8-1.5-1.8c-0.8,0-1.5,0.7-1.5,1.7
			l0,0c0,1.1,0.7,1.7,1.5,1.7C229.6,349.9,230.4,349.3,230.4,348.3z"/>
		<path style="fill:#00B9DF;" d="M237.1,345.1h1.8v0.9c0.4-0.5,0.9-1,1.9-1c1.3,0,2.1,0.9,2.1,2.3v4h-1.8v-3.5
			c0-0.8-0.4-1.2-1.1-1.2c-0.7,0-1.1,0.4-1.1,1.2v3.5h-1.8L237.1,345.1L237.1,345.1z"/>
		<path style="fill:#00B9DF;" d="M243.8,349.6L243.8,349.6c0-1.4,1.1-2.1,2.5-2.1c0.6,0,1.1,0.1,1.5,0.3v-0.1c0-0.7-0.4-1.2-1.3-1.2
			c-0.7,0-1.2,0.1-1.7,0.4l-0.4-1.3c0.7-0.3,1.3-0.5,2.4-0.5c1,0,1.7,0.3,2.1,0.7c0.4,0.4,0.7,1.2,0.7,2v3.7h-1.7v-0.7
			c-0.4,0.4-1.1,0.8-1.9,0.8C244.8,351.5,243.8,350.8,243.8,349.6z M247.9,349.2v-0.4c-0.3-0.2-0.7-0.3-1.2-0.3
			c-0.8,0-1.2,0.3-1.2,0.9l0,0c0,0.4,0.4,0.8,1,0.8C247.3,350.3,247.9,349.8,247.9,349.2z"/>
		<path style="fill:#00B9DF;" d="M251.2,349.6v-2.9h-0.7v-1.5h0.7v-1.6h1.8v1.6h1.5v1.5H253v2.7c0,0.4,0.2,0.6,0.5,0.6
			s0.6-0.1,0.9-0.2v1.4c-0.4,0.2-0.8,0.4-1.4,0.4C252.1,351.5,251.2,351.1,251.2,349.6z"/>
		<path style="fill:#00B9DF;" d="M255.7,349.2v-4h1.8v3.5c0,0.8,0.4,1.2,1.1,1.2c0.7,0,1.1-0.4,1.1-1.2v-3.5h1.8v6.2h-1.8v-0.9
			c-0.4,0.5-0.9,1-1.9,1C256.4,351.5,255.7,350.6,255.7,349.2z"/>
		<path style="fill:#00B9DF;" d="M262.9,345.1h1.8v1.2c0.4-0.9,1-1.4,2-1.3v1.9h-0.1c-1.2,0-1.9,0.7-1.9,2.2v2.3h-1.8V345.1z"/>
		<path style="fill:#00B9DF;" d="M267.3,349.6L267.3,349.6c0-1.4,1.1-2.1,2.5-2.1c0.6,0,1.1,0.1,1.5,0.3v-0.1c0-0.7-0.4-1.2-1.3-1.2
			c-0.7,0-1.2,0.1-1.7,0.4l-0.4-1.3c0.7-0.3,1.3-0.5,2.4-0.5c1,0,1.7,0.3,2.1,0.7c0.4,0.4,0.7,1.2,0.7,2v3.7h-1.7v-0.7
			c-0.4,0.4-1.1,0.8-1.9,0.8C268.3,351.5,267.3,350.8,267.3,349.6z M271.3,349.2v-0.4c-0.3-0.2-0.7-0.3-1.2-0.3
			c-0.8,0-1.2,0.3-1.2,0.9l0,0c0,0.4,0.4,0.8,1,0.8C270.8,350.3,271.3,349.8,271.3,349.2z"/>
		<path style="fill:#00B9DF;" d="M274.6,342.9h1.8v8.6h-1.8V342.9z"/>
		<path style="fill:#00B9DF;" d="M280.9,349.6L280.9,349.6c0-1.4,1.1-2.1,2.5-2.1c0.6,0,1.1,0.1,1.5,0.3v-0.1c0-0.7-0.4-1.2-1.3-1.2
			c-0.7,0-1.2,0.1-1.7,0.4l-0.4-1.3c0.7-0.3,1.3-0.5,2.4-0.5c1,0,1.7,0.3,2.1,0.7c0.4,0.4,0.7,1.2,0.7,2v3.7H285v-0.7
			c-0.4,0.4-1.1,0.8-1.9,0.8C281.9,351.5,280.9,350.8,280.9,349.6z M285,349.2v-0.4c-0.3-0.2-0.7-0.3-1.2-0.3
			c-0.8,0-1.2,0.3-1.2,0.9l0,0c0,0.4,0.4,0.8,1,0.8C284.5,350.3,285,349.8,285,349.2z"/>
		<path style="fill:#00B9DF;" d="M288.1,345.1h1.8v0.9c0.4-0.5,1-1,1.9-1c0.8,0,1.4,0.4,1.8,1c0.5-0.6,1.2-1,2.1-1
			c1.3,0,2.1,0.8,2.1,2.3v4.1H296v-3.5c0-0.8-0.4-1.2-1.1-1.2s-1.1,0.4-1.1,1.2v3.5h-1.8v-3.5c0-0.8-0.4-1.2-1.1-1.2
			c-0.7,0-1.1,0.4-1.1,1.2v3.5h-1.8L288.1,345.1L288.1,345.1z"/>
		<path style="fill:#00B9DF;" d="M298.8,348.3L298.8,348.3c0-1.8,1.2-3.3,3.1-3.3c2.1,0,3,1.6,3,3.4c0,0.2,0,0.3,0,0.4h-4.4
			c0.2,0.8,0.7,1.2,1.5,1.2c0.6,0,1.1-0.2,1.5-0.6l1,0.9c-0.6,0.7-1.4,1.2-2.6,1.2C300.2,351.5,298.8,350.2,298.8,348.3z
			 M303.2,347.8c-0.1-0.8-0.5-1.3-1.3-1.3c-0.7,0-1.2,0.5-1.3,1.3H303.2z"/>
		<path style="fill:#00B9DF;" d="M306.2,345.1h1.8v0.9c0.4-0.5,0.9-1,1.9-1c1.3,0,2.1,0.9,2.1,2.3v4h-1.8v-3.5
			c0-0.8-0.4-1.2-1.1-1.2c-0.7,0-1.1,0.4-1.1,1.2v3.5h-1.8L306.2,345.1L306.2,345.1z"/>
		<path style="fill:#00B9DF;" d="M313.3,342.9h1.9v1.6h-1.9V342.9z M313.4,345.1h1.8v6.2h-1.8V345.1z"/>
		<path style="fill:#00B9DF;" d="M317.1,349.6v-2.9h-0.7v-1.5h0.7v-1.6h1.8v1.6h1.5v1.5h-1.5v2.7c0,0.4,0.2,0.6,0.5,0.6
			c0.4,0,0.6-0.1,0.9-0.2v1.4c-0.4,0.2-0.8,0.4-1.4,0.4C317.8,351.5,317.1,351.1,317.1,349.6z"/>
		<path style="fill:#00B9DF;" d="M321.5,342.9h1.9v1.6h-1.9V342.9z M321.5,345.1h1.8v6.2h-1.8V345.1z"/>
		<path style="fill:#00B9DF;" d="M324.6,348.3L324.6,348.3c0-1.8,1.2-3.3,3.1-3.3c2.1,0,3,1.6,3,3.4c0,0.2,0,0.3,0,0.4h-4.4
			c0.2,0.8,0.7,1.2,1.5,1.2c0.6,0,1.1-0.2,1.5-0.6l1,0.9c-0.6,0.7-1.4,1.2-2.6,1.2C326,351.5,324.6,350.2,324.6,348.3z M329,347.8
			c-0.1-0.8-0.5-1.3-1.3-1.3c-0.7,0-1.2,0.5-1.3,1.3H329z"/>
		<path style="fill:#00B9DF;" d="M331.4,350.5l0.8-1.2c0.7,0.5,1.4,0.7,2,0.7s0.7-0.2,0.7-0.4l0,0c0-0.4-0.6-0.5-1.3-0.7
			c-0.9-0.3-1.9-0.6-1.9-1.9l0,0c0-1.2,1.1-2,2.3-2c0.8,0,1.7,0.3,2.3,0.7l-0.7,1.2c-0.6-0.4-1.2-0.6-1.7-0.6
			c-0.4,0-0.6,0.2-0.6,0.4l0,0c0,0.4,0.6,0.5,1.2,0.7c0.9,0.3,1.9,0.7,1.9,1.9l0,0c0,1.4-1.1,2.1-2.4,2.1
			C333.2,351.5,332.2,351.2,331.4,350.5z"/>
		<path style="fill:#FFFFFF;" d="M66.2,365.5L66.2,365.5c0-1.3,1.1-2,2.6-2c0.8,0,1.3,0.1,1.9,0.3v-0.2c0-1.1-0.6-1.6-1.8-1.6
			c-0.7,0-1.2,0.2-1.9,0.4l-0.3-0.7c0.6-0.3,1.3-0.5,2.2-0.5c0.9,0,1.5,0.2,2,0.6c0.4,0.4,0.6,1,0.6,1.8v3.7h-0.9v-0.9
			c-0.4,0.5-1.2,1.1-2.2,1.1C67.3,367.4,66.2,366.8,66.2,365.5z M70.6,365v-0.6c-0.4-0.1-1.1-0.3-1.8-0.3c-1.2,0-1.8,0.5-1.8,1.2
			l0,0c0,0.8,0.7,1.2,1.5,1.2C69.7,366.7,70.6,366,70.6,365z"/>
		<path style="fill:#FFFFFF;" d="M72.8,366.5l0.4-0.6c0.6,0.5,1.3,0.8,2.1,0.8s1.2-0.4,1.2-1l0,0c0-0.6-0.7-0.8-1.5-1.1
			c-1-0.3-2-0.6-2-1.7l0,0c0-1.1,0.9-1.7,2.1-1.7c0.7,0,1.5,0.3,2.1,0.6l-0.4,0.7c-0.5-0.4-1.2-0.6-1.8-0.6c-0.7,0-1.2,0.4-1.2,0.9
			l0,0c0,0.5,0.7,0.8,1.5,1.1c0.9,0.3,2,0.6,2,1.7l0,0c0,1.2-1,1.8-2.1,1.8C74.5,367.4,73.5,367.1,72.8,366.5z"/>
		<path style="fill:#FFFFFF;" d="M78.5,366.5l0.4-0.6c0.6,0.5,1.3,0.8,2.1,0.8s1.2-0.4,1.2-1l0,0c0-0.6-0.7-0.8-1.5-1.1
			c-1-0.3-2-0.6-2-1.7l0,0c0-1.1,0.9-1.7,2.1-1.7c0.7,0,1.5,0.3,2.1,0.6l-0.4,0.7c-0.5-0.4-1.2-0.6-1.8-0.6c-0.7,0-1.2,0.4-1.2,0.9
			l0,0c0,0.5,0.7,0.8,1.5,1.1c0.9,0.3,2,0.6,2,1.7l0,0c0,1.2-1,1.8-2.1,1.8C80.2,367.4,79.2,367.1,78.5,366.5z"/>
		<path style="fill:#FFFFFF;" d="M84.4,364.3L84.4,364.3c0-1.7,1.3-3.2,3.1-3.2s3.1,1.4,3.1,3.1l0,0c0,1.7-1.3,3.1-3.2,3.1
			C85.6,367.4,84.4,366,84.4,364.3z M89.7,364.3L89.7,364.3c0-1.3-1-2.4-2.2-2.4c-1.3,0-2.2,1.1-2.2,2.3l0,0c0,1.3,1,2.3,2.2,2.3
			C88.8,366.6,89.7,365.5,89.7,364.3z"/>
		<path style="fill:#FFFFFF;" d="M91.8,364.3L91.8,364.3c0-1.7,1.3-3.2,3.1-3.2c1.2,0,1.9,0.4,2.4,1.1l-0.6,0.6
			c-0.4-0.5-1-0.9-1.9-0.9c-1.2,0-2.1,1.1-2.1,2.3l0,0c0,1.3,1,2.3,2.2,2.3c0.8,0,1.3-0.4,1.9-0.9l0.5,0.5c-0.6,0.7-1.3,1.2-2.5,1.2
			C93.1,367.4,91.8,366,91.8,364.3z"/>
		<path style="fill:#FFFFFF;" d="M98.8,358.9h1.1v1h-1.1V358.9z M98.8,361.2h0.9v6.1h-0.9V361.2z"/>
		<path style="fill:#FFFFFF;" d="M101.2,365.5L101.2,365.5c0-1.3,1.1-2,2.6-2c0.8,0,1.3,0.1,1.9,0.3v-0.2c0-1.1-0.6-1.6-1.8-1.6
			c-0.7,0-1.2,0.2-1.9,0.4l-0.3-0.9c0.6-0.3,1.3-0.5,2.2-0.5c0.9,0,1.5,0.2,2,0.6c0.4,0.4,0.6,1,0.6,1.8v3.7h-0.9v-0.9
			c-0.4,0.5-1.2,1.1-2.2,1.1C102.3,367.4,101.2,366.8,101.2,365.5z M105.7,365v-0.6c-0.4-0.1-1.1-0.3-1.8-0.3
			c-1.2,0-1.8,0.5-1.8,1.2l0,0c0,0.8,0.7,1.2,1.5,1.2C104.7,366.7,105.7,366,105.7,365z"/>
		<path style="fill:#FFFFFF;" d="M108.7,365.6V362h-0.8v-0.8h0.8v-1.8h0.9v1.8h1.9v0.8h-1.9v3.6c0,0.7,0.4,1,1,1
			c0.3,0,0.5-0.1,0.9-0.2v0.8c-0.4,0.2-0.6,0.3-1.1,0.3C109.4,367.4,108.7,366.9,108.7,365.6z"/>
		<path style="fill:#FFFFFF;" d="M112.6,364.3L112.6,364.3c0-1.8,1.2-3.2,2.9-3.2c1.8,0,2.9,1.4,2.9,3.2c0,0.1,0,0.2,0,0.3h-4.8
			c0.1,1.3,1.1,2.1,2.1,2.1c0.8,0,1.4-0.4,1.9-0.9l0.5,0.5c-0.6,0.7-1.3,1.2-2.5,1.2C113.9,367.4,112.6,366.2,112.6,364.3z
			 M117.4,363.9c-0.1-1.1-0.7-2.1-2-2.1c-1.1,0-1.9,0.9-2,2.1H117.4z"/>
		<path style="fill:#FFFFFF;" d="M119.4,364.3L119.4,364.3c0-2,1.4-3.2,2.9-3.2c1.2,0,1.9,0.6,2.3,1.2v-3.7h0.9v8.6h-0.9v-1.2
			c-0.5,0.7-1.2,1.3-2.3,1.3C120.8,367.4,119.4,366.3,119.4,364.3z M124.6,364.3L124.6,364.3c0-1.4-1.1-2.3-2.2-2.3
			c-1.2,0-2.1,0.9-2.1,2.3l0,0c0,1.4,1,2.3,2.1,2.3S124.6,365.6,124.6,364.3z"/>
		<path style="fill:#FFFFFF;" d="M130.3,361.2h1l1.6,4.8l1.6-4.9h0.7l1.6,4.9l1.6-4.8h0.9l-2.1,6.1h-0.8l-1.5-4.8l-1.6,4.7h-0.8
			L130.3,361.2z"/>
		<path style="fill:#FFFFFF;" d="M140.8,358.9h1.1v1h-1.1V358.9z M140.8,361.2h0.9v6.1h-0.9V361.2z"/>
		<path style="fill:#FFFFFF;" d="M144,365.6V362h-0.8v-0.8h0.8v-1.8h0.9v1.8h1.9v0.8h-1.9v3.6c0,0.7,0.4,1,1,1
			c0.3,0,0.5-0.1,0.9-0.2v0.8c-0.4,0.2-0.6,0.3-1.1,0.3C144.7,367.4,144,366.9,144,365.6z"/>
		<path style="fill:#FFFFFF;" d="M148.3,358.8h0.9v3.6c0.4-0.6,1.1-1.2,2.1-1.2c1.4,0,2.3,1,2.3,2.4v3.8h-0.9v-3.6
			c0-1.2-0.6-1.8-1.7-1.8s-1.8,0.8-1.8,1.9v3.5h-0.9L148.3,358.8L148.3,358.8z"/>
		<path style="fill:#FFFFFF;" d="M159.1,365.6V362h-0.8v-0.8h0.8v-1.8h0.9v1.8h1.9v0.8H160v3.6c0,0.7,0.4,1,1,1
			c0.3,0,0.5-0.1,0.9-0.2v0.8c-0.4,0.2-0.6,0.3-1.1,0.3C159.8,367.4,159.1,366.9,159.1,365.6z"/>
		<path style="fill:#FFFFFF;" d="M163.4,358.8h0.9v3.6c0.4-0.6,1.1-1.2,2.1-1.2c1.4,0,2.3,1,2.3,2.4v3.8h-0.9v-3.6
			c0-1.2-0.6-1.8-1.7-1.8s-1.8,0.8-1.8,1.9v3.5h-0.9L163.4,358.8L163.4,358.8z"/>
		<path style="fill:#FFFFFF;" d="M170.1,364.3L170.1,364.3c0-1.8,1.2-3.2,2.9-3.2c1.8,0,2.9,1.4,2.9,3.2c0,0.1,0,0.2,0,0.3h-4.8
			c0.1,1.3,1.1,2.1,2.1,2.1c0.8,0,1.4-0.4,1.9-0.9l0.5,0.5c-0.6,0.7-1.3,1.2-2.5,1.2C171.4,367.4,170.1,366.2,170.1,364.3z
			 M174.9,363.9c-0.1-1.1-0.7-2.1-2-2.1c-1.1,0-1.9,0.9-2,2.1H174.9z"/>
		<path style="fill:#FFFFFF;" d="M181,365.6V362h-0.8v-0.8h0.8v-1.8h0.9v1.8h1.9v0.8h-1.9v3.6c0,0.7,0.4,1,1,1
			c0.3,0,0.5-0.1,0.9-0.2v0.8c-0.4,0.2-0.6,0.3-1.1,0.3C181.7,367.4,181,366.9,181,365.6z"/>
		<path style="fill:#FFFFFF;" d="M185.3,361.2h0.9v1.6c0.4-1,1.3-1.7,2.5-1.7v1h-0.1c-1.3,0-2.4,1-2.4,2.8v2.4h-0.9V361.2z"/>
		<path style="fill:#FFFFFF;" d="M189.5,365.5L189.5,365.5c0-1.3,1.1-2,2.6-2c0.8,0,1.3,0.1,1.9,0.3v-0.2c0-1.1-0.6-1.6-1.8-1.6
			c-0.7,0-1.2,0.2-1.9,0.4l-0.3-0.7c0.6-0.3,1.3-0.5,2.2-0.5s1.5,0.2,2,0.6c0.4,0.4,0.6,1,0.6,1.8v3.7h-0.9v-0.9
			c-0.4,0.5-1.2,1.1-2.2,1.1C190.6,367.4,189.5,366.8,189.5,365.5z M193.9,365v-0.6c-0.4-0.1-1.1-0.3-1.8-0.3
			c-1.2,0-1.8,0.5-1.8,1.2l0,0c0,0.8,0.7,1.2,1.5,1.2C193,366.7,193.9,366,193.9,365z"/>
		<path style="fill:#FFFFFF;" d="M196.2,364.3L196.2,364.3c0-2,1.4-3.2,2.9-3.2c1.2,0,1.9,0.6,2.3,1.2v-3.7h0.9v8.6h-0.9v-1.2
			c-0.5,0.7-1.2,1.3-2.3,1.3C197.7,367.4,196.2,366.3,196.2,364.3z M201.4,364.3L201.4,364.3c0-1.4-1.1-2.3-2.2-2.3
			c-1.2,0-2.1,0.9-2.1,2.3l0,0c0,1.4,1,2.3,2.1,2.3C200.4,366.6,201.4,365.6,201.4,364.3z"/>
		<path style="fill:#FFFFFF;" d="M204.3,358.9h1.1v1h-1.1V358.9z M204.3,361.2h0.9v6.1h-0.9V361.2z"/>
		<path style="fill:#FFFFFF;" d="M207.5,365.6V362h-0.8v-0.8h0.8v-1.8h0.9v1.8h1.9v0.8h-1.9v3.6c0,0.7,0.4,1,1,1
			c0.3,0,0.5-0.1,0.9-0.2v0.8c-0.4,0.2-0.6,0.3-1.1,0.3C208.2,367.4,207.5,366.9,207.5,365.6z"/>
		<path style="fill:#FFFFFF;" d="M211.8,358.9h1.1v1h-1.1V358.9z M211.9,361.2h0.9v6.1h-0.9V361.2z"/>
		<path style="fill:#FFFFFF;" d="M214.4,364.3L214.4,364.3c0-1.7,1.3-3.2,3.1-3.2c1.8,0,3.1,1.4,3.1,3.1l0,0c0,1.7-1.3,3.1-3.2,3.1
			C215.7,367.4,214.4,366,214.4,364.3z M219.7,364.3L219.7,364.3c0-1.3-1-2.4-2.2-2.4c-1.3,0-2.2,1.1-2.2,2.3l0,0
			c0,1.3,1,2.3,2.2,2.3C218.8,366.6,219.7,365.5,219.7,364.3z"/>
		<path style="fill:#FFFFFF;" d="M222.1,361.2h0.9v1.1c0.4-0.6,1.1-1.2,2.1-1.2c1.4,0,2.3,1,2.3,2.4v3.8h-0.9v-3.6
			c0-1.2-0.6-1.8-1.7-1.8s-1.8,0.8-1.8,1.9v3.5h-0.9L222.1,361.2L222.1,361.2z"/>
		<path style="fill:#FFFFFF;" d="M228.8,365.5L228.8,365.5c0-1.3,1.1-2,2.6-2c0.8,0,1.3,0.1,1.9,0.3v-0.2c0-1.1-0.6-1.6-1.8-1.6
			c-0.7,0-1.2,0.2-1.9,0.4l-0.3-0.7c0.6-0.3,1.3-0.5,2.2-0.5c0.9,0,1.5,0.2,2,0.6c0.4,0.4,0.6,1,0.6,1.8v3.7h-0.9v-0.9
			c-0.4,0.5-1.2,1.1-2.2,1.1C229.9,367.4,228.8,366.8,228.8,365.5z M233.3,365v-0.6c-0.4-0.1-1.1-0.3-1.8-0.3
			c-1.2,0-1.8,0.5-1.8,1.2l0,0c0,0.8,0.7,1.2,1.5,1.2C232.3,366.7,233.3,366,233.3,365z"/>
		<path style="fill:#FFFFFF;" d="M236,358.8h0.9v8.6H236V358.8z"/>
		<path style="fill:#FFFFFF;" d="M242.3,361.2h0.9v1c0.4-0.6,0.9-1.2,2-1.2c1,0,1.6,0.5,2,1.2c0.4-0.6,1.1-1.2,2.1-1.2
			c1.4,0,2.2,0.9,2.2,2.4v3.8h-0.9v-3.6c0-1.2-0.6-1.8-1.6-1.8c-0.9,0-1.7,0.7-1.7,1.9v3.5h-0.9v-3.6c0-1.2-0.6-1.8-1.5-1.8
			c-0.9,0-1.7,0.8-1.7,1.9v3.5h-0.9L242.3,361.2L242.3,361.2z"/>
		<path style="fill:#FFFFFF;" d="M252.9,364.3L252.9,364.3c0-1.8,1.2-3.2,2.9-3.2c1.8,0,2.9,1.4,2.9,3.2c0,0.1,0,0.2,0,0.3h-4.8
			c0.1,1.3,1.1,2.1,2.1,2.1c0.8,0,1.4-0.4,1.9-0.9l0.5,0.5c-0.6,0.7-1.3,1.2-2.5,1.2C254.3,367.4,252.9,366.2,252.9,364.3z
			 M257.7,363.9c-0.1-1.1-0.7-2.1-2-2.1c-1.1,0-1.9,0.9-2,2.1H257.7z"/>
		<path style="fill:#FFFFFF;" d="M259.7,364.3L259.7,364.3c0-1.7,1.3-3.2,3.1-3.2c1.2,0,1.9,0.4,2.4,1.1l-0.6,0.6
			c-0.4-0.5-1-0.9-1.9-0.9c-1.2,0-2.1,1.1-2.1,2.3l0,0c0,1.3,1,2.3,2.2,2.3c0.8,0,1.3-0.4,1.9-0.9l0.5,0.5c-0.6,0.7-1.3,1.2-2.5,1.2
			C261.1,367.4,259.7,366,259.7,364.3z"/>
		<path style="fill:#FFFFFF;" d="M266.2,364.3L266.2,364.3c0-1.7,1.3-3.2,3.1-3.2c1.2,0,1.9,0.4,2.4,1.1l-0.6,0.6
			c-0.4-0.5-1-0.9-1.9-0.9c-1.2,0-2.1,1.1-2.1,2.3l0,0c0,1.3,1,2.3,2.2,2.3c0.8,0,1.3-0.4,1.9-0.9l0.5,0.5c-0.6,0.7-1.3,1.2-2.5,1.2
			C267.6,367.4,266.2,366,266.2,364.3z"/>
		<path style="fill:#FFFFFF;" d="M272.8,365.5L272.8,365.5c0-1.3,1.1-2,2.6-2c0.8,0,1.3,0.1,1.9,0.3v-0.2c0-1.1-0.6-1.6-1.8-1.6
			c-0.7,0-1.2,0.2-1.9,0.4l-0.3-0.7c0.6-0.3,1.3-0.5,2.2-0.5c0.9,0,1.5,0.2,2,0.6c0.4,0.4,0.6,1,0.6,1.8v3.7h-0.9v-0.9
			c-0.4,0.5-1.2,1.1-2.2,1.1C273.9,367.4,272.8,366.8,272.8,365.5z M277.2,365v-0.6c-0.4-0.1-1.1-0.3-1.8-0.3
			c-1.2,0-1.8,0.5-1.8,1.2l0,0c0,0.8,0.7,1.2,1.5,1.2C276.3,366.7,277.2,366,277.2,365z"/>
		<path style="fill:#FFFFFF;" d="M279.4,366.5l0.4-0.6c0.6,0.5,1.3,0.8,2.1,0.8c0.7,0,1.2-0.4,1.2-1l0,0c0-0.6-0.7-0.8-1.5-1.1
			c-1-0.3-2-0.6-2-1.7l0,0c0-1.1,0.9-1.7,2.1-1.7c0.7,0,1.5,0.3,2.1,0.6l-0.4,0.7c-0.5-0.4-1.2-0.6-1.8-0.6c-0.7,0-1.2,0.4-1.2,0.9
			l0,0c0,0.5,0.7,0.8,1.5,1.1c0.9,0.3,2,0.6,2,1.7l0,0c0,1.2-1,1.8-2.1,1.8C281,367.4,280.1,367.1,279.4,366.5z"/>
		<path style="fill:#FFFFFF;" d="M289.3,362.1h-0.8v-0.8h0.8v-0.5c0-0.7,0.2-1.2,0.5-1.5c0.3-0.3,0.7-0.4,1.3-0.4
			c0.4,0,0.7,0.1,1,0.2v0.8c-0.4-0.1-0.5-0.2-0.9-0.2c-0.7,0-1.1,0.4-1.1,1.2v0.5h1.9v0.8h-1.9v5.3h-0.9V362.1z"/>
		<path style="fill:#FFFFFF;" d="M292.8,364.3L292.8,364.3c0-1.7,1.3-3.2,3.1-3.2s3.1,1.4,3.1,3.1l0,0c0,1.7-1.3,3.1-3.2,3.1
			C294.1,367.4,292.8,366,292.8,364.3z M298.1,364.3L298.1,364.3c0-1.3-1-2.4-2.2-2.4c-1.3,0-2.2,1.1-2.2,2.3l0,0
			c0,1.3,1,2.3,2.2,2.3C297.2,366.6,298.1,365.5,298.1,364.3z"/>
		<path style="fill:#FFFFFF;" d="M300.6,361.2h0.9v1.6c0.4-1,1.3-1.7,2.5-1.7v1h-0.1c-1.3,0-2.4,1-2.4,2.8v2.4h-0.9L300.6,361.2
			L300.6,361.2z"/>
		<path style="fill:#FFFFFF;" d="M308.9,365.6V362H308v-0.8h0.8v-1.8h0.9v1.8h1.9v0.8h-1.8v3.6c0,0.7,0.4,1,1,1
			c0.3,0,0.5-0.1,0.9-0.2v0.8c-0.4,0.2-0.6,0.3-1.1,0.3C309.6,367.4,308.9,366.9,308.9,365.6z"/>
		<path style="fill:#FFFFFF;" d="M313.2,358.8h0.9v3.6c0.4-0.6,1.1-1.2,2.1-1.2c1.4,0,2.3,1,2.3,2.4v3.8h-0.9v-3.6
			c0-1.2-0.6-1.8-1.7-1.8c-1.1,0-1.8,0.8-1.8,1.9v3.5h-0.9V358.8z"/>
		<path style="fill:#FFFFFF;" d="M319.9,364.3L319.9,364.3c0-1.8,1.2-3.2,2.9-3.2c1.8,0,2.9,1.4,2.9,3.2c0,0.1,0,0.2,0,0.3h-4.8
			c0.1,1.3,1.1,2.1,2.1,2.1c0.8,0,1.4-0.4,1.9-0.9l0.5,0.5c-0.6,0.7-1.3,1.2-2.5,1.2C321.2,367.4,319.9,366.2,319.9,364.3z
			 M324.7,363.9c-0.1-1.1-0.7-2.1-2-2.1c-1.1,0-1.9,0.9-2,2.1H324.7z"/>
		<path style="fill:#FFFFFF;" d="M66.2,380.1L66.2,380.1c0-1.8,1.2-3.2,2.9-3.2c1.8,0,2.9,1.4,2.9,3.2c0,0.1,0,0.2,0,0.3h-4.8
			c0.1,1.3,1.1,2.1,2.1,2.1c0.8,0,1.4-0.4,1.9-0.9l0.5,0.5c-0.6,0.7-1.3,1.2-2.5,1.2C67.6,383.3,66.2,382,66.2,380.1z M71.1,379.8
			c-0.1-1.1-0.7-2.1-2-2.1c-1.1,0-1.9,0.9-2,2.1H71.1z"/>
		<path style="fill:#FFFFFF;" d="M73.1,380.1L73.1,380.1c0-2,1.4-3.2,2.9-3.2c1.2,0,1.9,0.6,2.3,1.2v-3.7h0.9v8.6h-0.9v-1.2
			c-0.5,0.7-1.2,1.3-2.3,1.3C74.6,383.3,73.1,382.1,73.1,380.1z M78.3,380.1L78.3,380.1c0-1.4-1.1-2.3-2.2-2.3
			c-1.2,0-2.1,0.9-2.1,2.3l0,0c0,1.4,1,2.3,2.1,2.3C77.3,382.5,78.3,381.5,78.3,380.1z"/>
		<path style="fill:#FFFFFF;" d="M81,380.8v-3.8h0.9v3.6c0,1.2,0.6,1.8,1.7,1.8c1.1,0,1.8-0.8,1.8-1.9v-3.5h0.9v6.1h-0.9v-1.1
			c-0.4,0.6-1.1,1.2-2.1,1.2C81.9,383.3,81,382.3,81,380.8z"/>
		<path style="fill:#FFFFFF;" d="M87.9,380.2L87.9,380.2c0-1.7,1.3-3.2,3.1-3.2c1.2,0,1.9,0.4,2.4,1.1l-0.6,0.6
			c-0.4-0.5-1-0.9-1.9-0.9c-1.2,0-2.1,1.1-2.1,2.3l0,0c0,1.3,1,2.3,2.2,2.3c0.8,0,1.3-0.4,1.9-0.9l0.5,0.5c-0.6,0.7-1.3,1.2-2.5,1.2
			C89.2,383.3,87.9,381.9,87.9,380.2z"/>
		<path style="fill:#FFFFFF;" d="M94.3,381.4L94.3,381.4c0-1.3,1.1-2,2.6-2c0.8,0,1.3,0.1,1.9,0.3v-0.3c0-1.1-0.6-1.6-1.8-1.6
			c-0.7,0-1.3,0.2-1.9,0.4l-0.3-0.7c0.6-0.3,1.3-0.5,2.2-0.5c0.9,0,1.5,0.2,2,0.6c0.4,0.4,0.6,1,0.6,1.8v3.7h-0.9v-0.9
			c-0.4,0.5-1.2,1.1-2.2,1.1C95.4,383.3,94.3,382.6,94.3,381.4z M98.8,380.9v-0.5c-0.4-0.1-1.1-0.3-1.8-0.3c-1.2,0-1.8,0.5-1.8,1.2
			l0,0c0,0.8,0.7,1.2,1.5,1.2C97.9,382.6,98.8,381.9,98.8,380.9z"/>
		<path style="fill:#FFFFFF;" d="M101.7,381.5v-3.7h-0.8v-0.8h0.8v-1.8h0.9v1.8h1.9v0.8h-1.9v3.6c0,0.7,0.4,1,1,1
			c0.3,0,0.5-0.1,0.9-0.2v0.8c-0.4,0.2-0.6,0.3-1.1,0.3C102.5,383.2,101.7,382.8,101.7,381.5z"/>
		<path style="fill:#FFFFFF;" d="M105.6,380.1L105.6,380.1c0-1.8,1.3-3.2,2.9-3.2c1.8,0,2.9,1.4,2.9,3.2c0,0.1,0,0.2,0,0.3h-4.8
			c0.1,1.3,1.1,2.1,2.1,2.1c0.8,0,1.4-0.4,1.9-0.9l0.5,0.5c-0.6,0.7-1.3,1.2-2.5,1.2C107,383.3,105.6,382,105.6,380.1z M110.4,379.8
			c-0.1-1.1-0.7-2.1-2-2.1c-1.1,0-1.9,0.9-2,2.1H110.4z"/>
		<path style="fill:#FFFFFF;" d="M112.5,380.1L112.5,380.1c0-2,1.4-3.2,2.9-3.2c1.2,0,1.9,0.6,2.3,1.2v-3.7h0.9v8.6h-0.9v-1.2
			c-0.5,0.7-1.2,1.3-2.3,1.3C113.9,383.3,112.5,382.1,112.5,380.1z M117.7,380.1L117.7,380.1c0-1.4-1.1-2.3-2.2-2.3
			c-1.2,0-2.1,0.9-2.1,2.3l0,0c0,1.4,1,2.3,2.1,2.3C116.7,382.5,117.7,381.5,117.7,380.1z"/>
		<path style="fill:#FFFFFF;" d="M120.4,381.9h1.1v1.2h-1.1V381.9z"/>
		<path style="fill:#FFFFFF;" d="M122.9,377.2c0.6-0.2,0.8-0.5,0.8-1h-0.4V375h1.1v1.1c0,1-0.4,1.4-1.3,1.6L122.9,377.2z
			 M125.2,377.2c0.6-0.2,0.8-0.5,0.8-1h-0.4V375h1.1v1.1c0,1-0.4,1.4-1.3,1.6L125.2,377.2z"/>
	</g>
</g>
<g id="food__x40_sunsetrider.psd_2_">
	<g>
		<defs>
			<rect id="SVGID_1_" x="411.6" y="133.8" width="331.6" height="331.6"/>
		</defs>
		<clipPath id="SVGID_2_">
			<use xlink:href="#SVGID_1_"  style="overflow:visible;"/>
		</clipPath>
		<g transform="matrix(1 0 0 1 0 0)" style="clip-path:url(#SVGID_2_);">
			
				<image style="overflow:visible;enable-background:new    ;" width="1276" height="1280" id="Layer_1__x2B___x40_sunsetrider" xlink:href="936E4CA479100DA3.png"  transform="matrix(0.2599 0 0 0.259 411.6281 133.8684)">
			</image>
		</g>
	</g>
</g>
<line style="fill:none;stroke:#FFFFFF;stroke-width:11;stroke-miterlimit:10;" x1="67" y1="139.7" x2="375.9" y2="139.7"/>
<g>
	<path style="fill:#FFFFFF;" d="M68.2,153.1h1.7l9.9,12.7v-12.7h1.7v15.8h-1.4L69.9,156v12.9h-1.7V153.1z"/>
	<path style="fill:#FFFFFF;" d="M86.1,153.1h11.4v1.6h-9.6v5.4h8.7v1.6h-8.7v5.5h9.7v1.6H86.1V153.1z"/>
	<path style="fill:#FFFFFF;" d="M99.9,153.1h2l4.6,13.1l4.4-13.2h1.4l4.4,13.2l4.6-13.1h1.9l-5.6,15.9h-1.5l-4.5-12.8l-4.4,12.9
		h-1.5L99.9,153.1z"/>
	<path style="fill:#FFFFFF;" d="M132.2,161.1L132.2,161.1c0-4.4,3.3-8.2,8-8.2c4.8,0,8,3.8,8,8.1v0.1c0,4.4-3.3,8.1-8,8.1
		S132.2,165.4,132.2,161.1z M146.4,161.1L146.4,161.1c0-3.7-2.6-6.6-6.2-6.6s-6.2,2.9-6.2,6.5v0.1c0,3.6,2.6,6.5,6.2,6.5
		S146.4,164.6,146.4,161.1z"/>
	<path style="fill:#FFFFFF;" d="M152.1,153.1h6.8c2,0,3.5,0.6,4.5,1.6c0.8,0.8,1.2,1.9,1.2,3.1v0.1c0,2.6-1.8,4.1-4.3,4.6l4.8,6.4
		h-2.2l-4.6-6.2h-4.6v6.2H152L152.1,153.1L152.1,153.1z M158.7,161.2c2.4,0,4-1.2,4-3.2v-0.1c0-2-1.5-3.1-4-3.1h-4.9v6.4H158.7z"/>
	<path style="fill:#FFFFFF;" d="M168.4,153.1h1.8v14.1h8.9v1.6h-10.7V153.1z"/>
	<path style="fill:#FFFFFF;" d="M182.3,153.1h11.4v1.6h-9.6v5.4h8.7v1.6h-8.7v5.5h9.7v1.6h-11.5V153.1z"/>
	<path style="fill:#FFFFFF;" d="M203.3,153h1.7l7.2,15.9h-1.9l-1.9-4.2h-8.6l-1.9,4.2h-1.8L203.3,153z M207.7,163.1l-3.6-8l-3.6,8
		H207.7z"/>
	<path style="fill:#FFFFFF;" d="M215.3,153.1h1.7l9.9,12.7v-12.7h1.7v15.8h-1.4L217,156v12.9h-1.7V153.1z"/>
	<path style="fill:#FFFFFF;" d="M232.1,166.6l1.1-1.3c1.6,1.5,3.2,2.2,5.4,2.2c2.1,0,3.5-1.2,3.5-2.7v-0.1c0-1.4-0.8-2.3-4.1-3
		c-3.7-0.8-5.3-2-5.3-4.6v-0.1c0-2.5,2.2-4.3,5.2-4.3c2.3,0,3.9,0.6,5.5,2l-1.1,1.3c-1.4-1.2-2.9-1.7-4.6-1.7
		c-2.1,0-3.4,1.2-3.4,2.6v0.2c0,1.5,0.8,2.3,4.3,3c3.5,0.8,5.2,2.1,5.2,4.5v0.1c0,2.7-2.2,4.5-5.4,4.5
		C236,169.2,233.9,168.3,232.1,166.6z"/>
</g>
<g>
	<path style="fill:#595959;" d="M66.9,403.7l-0.4,0.2l-0.1-0.3l0.6-0.2h0.2v2.6h-0.3C66.9,406,66.9,403.7,66.9,403.7z"/>
	<path style="fill:#595959;" d="M68.1,403.6h0.5v2.6l2.5-2.6h0.6l-1.9,1.9l2,2.5h-0.6l-1.7-2.1l-0.9,1v1.2h-0.5V403.6z"/>
	<path style="fill:#595959;" d="M72.3,406.4L72.3,406.4c0-0.9,0.7-1.7,1.7-1.7s1.7,0.8,1.7,1.7l0,0c0,0.9-0.7,1.7-1.7,1.7
		C73,408,72.3,407.3,72.3,406.4z M75.2,406.4L75.2,406.4c0-0.7-0.5-1.2-1.2-1.2c-0.7,0-1.2,0.5-1.2,1.2l0,0c0,0.7,0.5,1.2,1.2,1.2
		C74.6,407.6,75.2,407.1,75.2,406.4z"/>
	<path style="fill:#595959;" d="M76.6,407.1v-2h-0.4v-0.4h0.4v-1h0.4v1h1v0.4h-1v1.9c0,0.4,0.2,0.5,0.5,0.5c0.2,0,0.3,0,0.4-0.1v0.4
		c-0.2,0.1-0.4,0.2-0.6,0.2C77.1,408,76.6,407.8,76.6,407.1z"/>
	<path style="fill:#595959;" d="M78.9,403.4h0.4v3.1l1.8-1.8h0.6l-1.3,1.4l1.4,1.9h-0.6l-1.2-1.5l-0.6,0.6v0.8H79L78.9,403.4
		L78.9,403.4z"/>
	<path style="fill:#595959;" d="M82.4,403.5H83v0.5h-0.5L82.4,403.5L82.4,403.5z M82.5,404.7h0.4v3.2h-0.4V404.7z"/>
	<path style="fill:#595959;" d="M84,404.7h0.4v0.5c0.2-0.4,0.5-0.6,1.1-0.6c0.8,0,1.2,0.5,1.2,1.3v2h-0.4v-1.9c0-0.6-0.4-1-0.9-1
		s-1,0.4-1,1v1.9H84V404.7z"/>
	<path style="fill:#595959;" d="M87.6,408.6c0.4-0.1,0.4-0.3,0.4-0.5h-0.3v-0.6h0.5v0.5c0,0.5-0.2,0.7-0.7,0.9L87.6,408.6z"/>
	<path style="fill:#595959;" d="M90.7,407.2l0.4-0.3c0.3,0.4,0.5,0.6,1,0.6c0.5,0,0.9-0.4,0.9-1.1v-2.9h0.5v2.9
		c0,0.5-0.2,0.9-0.4,1.2c-0.3,0.3-0.5,0.4-1,0.4C91.4,408,91,407.8,90.7,407.2z"/>
	<path style="fill:#595959;" d="M94.3,406.4L94.3,406.4c0-0.9,0.7-1.7,1.7-1.7c1,0,1.7,0.8,1.7,1.7l0,0c0,0.9-0.7,1.7-1.7,1.7
		C95,408,94.3,407.3,94.3,406.4z M97.1,406.4L97.1,406.4c0-0.7-0.5-1.2-1.2-1.2c-0.7,0-1.2,0.5-1.2,1.2l0,0c0,0.7,0.5,1.2,1.2,1.2
		C96.7,407.6,97.1,407.1,97.1,406.4z"/>
	<path style="fill:#595959;" d="M98.2,406.3L98.2,406.3c0-1,0.6-1.7,1.5-1.7c1,0,1.5,0.8,1.5,1.7c0,0.1,0,0.1,0,0.2h-2.6
		c0.1,0.7,0.5,1.1,1.2,1.1c0.4,0,0.7-0.2,1-0.4l0.3,0.3c-0.4,0.4-0.7,0.6-1.3,0.6C98.9,408,98.2,407.4,98.2,406.3z M100.8,406.2
		c-0.1-0.6-0.4-1.1-1.1-1.1c-0.5,0-1,0.4-1.1,1.1H100.8z"/>
	<path style="fill:#595959;" d="M102.1,403.4h0.4v4.6h-0.4V403.4z"/>
	<path style="fill:#595959;" d="M103.6,407.3h0.5v0.6h-0.5V407.3z"/>
	<path style="fill:#595959;" d="M108.7,404.5c0-0.5,0.2-0.7,0.7-0.9l0.1,0.2c-0.4,0.1-0.4,0.3-0.4,0.5h0.3v0.6h-0.5L108.7,404.5
		L108.7,404.5z M109.9,404.5c0-0.5,0.2-0.7,0.7-0.9l0.1,0.2c-0.4,0.1-0.4,0.3-0.4,0.5h0.3v0.6H110L109.9,404.5L109.9,404.5z"/>
	<path style="fill:#595959;" d="M113.2,403.6h0.4l2,4.4h-0.5l-0.5-1.2h-2.4l-0.5,1.2h-0.5L113.2,403.6z M114.4,406.3l-1-2.2l-1,2.2
		H114.4z"/>
	<path style="fill:#595959;" d="M116.3,404.7h0.4v0.5c0.2-0.4,0.5-0.6,1.1-0.6c0.5,0,0.9,0.3,1.1,0.6c0.3-0.4,0.5-0.6,1.2-0.6
		c0.7,0,1.2,0.5,1.2,1.3v2h-0.4v-1.9c0-0.6-0.4-1-0.8-1s-0.9,0.4-0.9,1v1.9h-0.4v-1.9c0-0.6-0.4-1-0.8-1c-0.5,0-0.9,0.4-0.9,1v1.9
		h-0.4v-3.2H116.3z"/>
	<path style="fill:#595959;" d="M122.1,406.3L122.1,406.3c0-1,0.6-1.7,1.5-1.7c1,0,1.5,0.8,1.5,1.7c0,0.1,0,0.1,0,0.2h-2.6
		c0.1,0.7,0.5,1.1,1.2,1.1c0.4,0,0.7-0.2,1-0.4l0.3,0.3c-0.4,0.4-0.7,0.6-1.3,0.6C122.8,408,122.1,407.4,122.1,406.3z M124.6,406.2
		c-0.1-0.6-0.4-1.1-1.1-1.1c-0.5,0-1,0.4-1.1,1.1H124.6z"/>
	<path style="fill:#595959;" d="M125.9,404.7h0.4v0.8c0.3-0.5,0.7-0.9,1.3-0.9v0.5l0,0c-0.7,0-1.2,0.5-1.2,1.5v1.2h-0.5V404.7z"/>
	<path style="fill:#595959;" d="M128.4,403.5h0.5v0.5h-0.5V403.5z M128.4,404.7h0.4v3.2h-0.4V404.7z"/>
	<path style="fill:#595959;" d="M129.7,406.4L129.7,406.4c0-0.9,0.7-1.7,1.7-1.7c0.6,0,1,0.3,1.2,0.5l-0.4,0.4
		c-0.3-0.3-0.5-0.4-1-0.4c-0.6,0-1.2,0.5-1.2,1.2l0,0c0,0.7,0.5,1.2,1.2,1.2c0.4,0,0.7-0.2,1-0.4l0.3,0.3c-0.4,0.4-0.7,0.6-1.3,0.6
		C130.4,408,129.7,407.3,129.7,406.4z"/>
	<path style="fill:#595959;" d="M133.2,407.1L133.2,407.1c0-0.7,0.5-1.1,1.3-1.1c0.4,0,0.7,0.1,1,0.2v-0.1c0-0.6-0.4-0.9-1-0.9
		c-0.4,0-0.7,0.1-1,0.3l-0.2-0.4c0.4-0.2,0.7-0.3,1.2-0.3s0.8,0.1,1.1,0.4c0.2,0.2,0.4,0.5,0.4,1v2h-0.4v-0.4
		c-0.3,0.3-0.6,0.5-1.2,0.5C133.8,408,133.2,407.7,133.2,407.1z M135.5,406.8v-0.3c-0.3-0.1-0.5-0.2-1-0.2c-0.6,0-1,0.3-1,0.6l0,0
		c0,0.4,0.4,0.6,0.8,0.6C135.1,407.7,135.5,407.3,135.5,406.8z"/>
	<path style="fill:#595959;" d="M137.1,403.6h0.6l0,0l-0.5,1.7h-0.3L137.1,403.6z"/>
	<path style="fill:#595959;" d="M138.2,407.6l0.3-0.4c0.4,0.3,0.7,0.4,1.2,0.4c0.4,0,0.6-0.2,0.6-0.5l0,0c0-0.4-0.4-0.4-0.8-0.5
		c-0.5-0.2-1.1-0.4-1.1-0.9l0,0c0-0.5,0.4-0.9,1.1-0.9c0.4,0,0.8,0.2,1.2,0.4l-0.2,0.4c-0.3-0.2-0.6-0.3-1-0.3
		c-0.4,0-0.6,0.2-0.6,0.4l0,0c0,0.3,0.4,0.4,0.8,0.5c0.5,0.2,1.1,0.4,1.1,0.9l0,0c0,0.6-0.5,1-1.2,1
		C139,408,138.6,407.9,138.2,407.6z"/>
	<path style="fill:#595959;" d="M143.4,403.6h0.4l2.8,3.5v-3.5h0.4v4.4h-0.4l-2.9-3.6v3.6h-0.4L143.4,403.6L143.4,403.6z"/>
	<path style="fill:#595959;" d="M147.9,406.3L147.9,406.3c0-1,0.6-1.7,1.5-1.7c1,0,1.5,0.8,1.5,1.7c0,0.1,0,0.1,0,0.2h-2.6
		c0.1,0.7,0.5,1.1,1.2,1.1c0.4,0,0.7-0.2,1-0.4l0.3,0.3c-0.4,0.4-0.7,0.6-1.3,0.6C148.8,408,147.9,407.4,147.9,406.3z M150.5,406.2
		c-0.1-0.6-0.4-1.1-1.1-1.1c-0.5,0-1,0.4-1.1,1.1H150.5z"/>
	<path style="fill:#595959;" d="M151.5,404.7h0.5l0.9,2.6l0.9-2.6h0.4l0.9,2.6l0.9-2.6h0.5l-1.2,3.2h-0.4l-0.9-2.6l-0.9,2.6h-0.4
		L151.5,404.7z"/>
	<path style="fill:#595959;" d="M159,403.6h1.9c0.5,0,0.9,0.2,1.2,0.4c0.2,0.2,0.3,0.4,0.3,0.7l0,0c0,0.5-0.4,0.9-0.7,1
		c0.5,0.2,1,0.4,1,1.1l0,0c0,0.7-0.6,1.2-1.6,1.2h-2V403.6L159,403.6z M161.8,404.7c0-0.4-0.4-0.7-1-0.7h-1.3v1.5h1.2
		C161.4,405.5,161.8,405.3,161.8,404.7L161.8,404.7z M160.9,406h-1.3v1.5h1.4c0.6,0,1.1-0.3,1.1-0.8l0,0
		C162.1,406.2,161.7,406,160.9,406z"/>
	<path style="fill:#595959;" d="M163.4,404.7h0.4v0.8c0.3-0.5,0.7-0.9,1.3-0.9v0.5l0,0c-0.7,0-1.2,0.5-1.2,1.5v1.2h-0.5V404.7z"/>
	<path style="fill:#595959;" d="M165.6,407.1L165.6,407.1c0-0.7,0.5-1.1,1.3-1.1c0.4,0,0.7,0.1,1,0.2v-0.1c0-0.6-0.4-0.9-1-0.9
		c-0.4,0-0.7,0.1-1,0.3l-0.2-0.4c0.4-0.2,0.7-0.3,1.2-0.3c0.4,0,0.8,0.1,1.1,0.4c0.2,0.2,0.4,0.5,0.4,1v2h-0.4v-0.4
		c-0.3,0.3-0.6,0.5-1.2,0.5C166.2,408,165.6,407.7,165.6,407.1z M168,406.8v-0.3c-0.3-0.1-0.5-0.2-1-0.2c-0.6,0-1,0.3-1,0.6l0,0
		c0,0.4,0.4,0.6,0.8,0.6C167.5,407.7,168,407.3,168,406.8z"/>
	<path style="fill:#595959;" d="M169.5,403.5h0.5v0.5h-0.5V403.5z M169.5,404.7h0.4v3.2h-0.4V404.7z"/>
	<path style="fill:#595959;" d="M171,404.7h0.4v0.5c0.2-0.4,0.5-0.6,1.1-0.6c0.8,0,1.2,0.5,1.2,1.3v2h-0.4v-1.9c0-0.6-0.4-1-0.9-1
		s-1,0.4-1,1v1.9H171L171,404.7L171,404.7z"/>
	<path style="fill:#595959;" d="M174.8,404.7h0.4v0.6c0.3-0.4,0.6-0.7,1.2-0.7c0.8,0,1.5,0.6,1.5,1.7l0,0c0,1.1-0.8,1.7-1.5,1.7
		c-0.6,0-1-0.4-1.2-0.7v1.6h-0.4V404.7z M177.6,406.3L177.6,406.3c0-0.8-0.5-1.2-1.2-1.2s-1.2,0.5-1.2,1.2l0,0
		c0,0.7,0.5,1.2,1.2,1.2C177.1,407.6,177.6,407.1,177.6,406.3z"/>
	<path style="fill:#595959;" d="M178.7,406.4L178.7,406.4c0-0.9,0.7-1.7,1.7-1.7s1.7,0.8,1.7,1.7l0,0c0,0.9-0.7,1.7-1.7,1.7
		C179.4,408,178.7,407.3,178.7,406.4z M181.6,406.4L181.6,406.4c0-0.7-0.5-1.2-1.2-1.2c-0.7,0-1.2,0.5-1.2,1.2l0,0
		c0,0.7,0.5,1.2,1.2,1.2C181.1,407.6,181.6,407.1,181.6,406.4z"/>
	<path style="fill:#595959;" d="M182.6,404.7h0.5l0.9,2.6l0.9-2.6h0.4l0.9,2.6l0.9-2.6h0.5l-1.2,3.2H186l-0.9-2.6l-0.9,2.6h-0.4
		L182.6,404.7z"/>
	<path style="fill:#595959;" d="M187.9,406.3L187.9,406.3c0-1,0.6-1.7,1.5-1.7c1,0,1.5,0.8,1.5,1.7c0,0.1,0,0.1,0,0.2h-2.6
		c0.1,0.7,0.5,1.1,1.2,1.1c0.4,0,0.7-0.2,1-0.4l0.3,0.3c-0.4,0.4-0.7,0.6-1.3,0.6C188.8,408,187.9,407.4,187.9,406.3z M190.5,406.2
		c-0.1-0.6-0.4-1.1-1.1-1.1c-0.5,0-1,0.4-1.1,1.1H190.5z"/>
	<path style="fill:#595959;" d="M191.8,404.7h0.4v0.8c0.3-0.5,0.7-0.9,1.3-0.9v0.5l0,0c-0.7,0-1.2,0.5-1.2,1.5v1.2h-0.4L191.8,404.7
		L191.8,404.7z"/>
	<path style="fill:#595959;" d="M196,405.8L196,405.8c0-1.2,0.9-2.2,2.2-2.2c0.8,0,1.2,0.3,1.7,0.7l-0.4,0.4
		c-0.4-0.4-0.8-0.6-1.3-0.6c-1,0-1.7,0.8-1.7,1.8l0,0c0,1,0.7,1.8,1.7,1.8c0.6,0,1-0.3,1.4-0.6l0.4,0.4c-0.4,0.4-1,0.8-1.8,0.8
		C197,408,196,407.1,196,405.8z"/>
	<path style="fill:#595959;" d="M200.6,403.5h0.5v0.5h-0.5V403.5z M200.7,404.7h0.4v3.2h-0.4V404.7z"/>
	<path style="fill:#595959;" d="M202.4,407.1v-2H202v-0.4h0.4v-1h0.4v1h1v0.4h-1v1.9c0,0.4,0.2,0.5,0.5,0.5c0.2,0,0.3,0,0.4-0.1v0.4
		c-0.2,0.1-0.4,0.2-0.6,0.2C202.8,408,202.4,407.8,202.4,407.1z"/>
	<path style="fill:#595959;" d="M204.7,403.5h0.5v0.5h-0.5V403.5z M204.7,404.7h0.4v3.2h-0.4V404.7z"/>
	<path style="fill:#595959;" d="M206.1,406.3L206.1,406.3c0-1,0.6-1.7,1.5-1.7c1,0,1.5,0.8,1.5,1.7c0,0.1,0,0.1,0,0.2h-2.6
		c0.1,0.7,0.5,1.1,1.2,1.1c0.4,0,0.7-0.2,1-0.4l0.3,0.3c-0.4,0.4-0.7,0.6-1.3,0.6C206.8,408,206.1,407.4,206.1,406.3z M208.7,406.2
		c-0.1-0.6-0.4-1.1-1.1-1.1c-0.5,0-1,0.4-1.1,1.1H208.7z"/>
	<path style="fill:#595959;" d="M209.6,407.6l0.3-0.4c0.4,0.3,0.7,0.4,1.2,0.4c0.4,0,0.6-0.2,0.6-0.5l0,0c0-0.4-0.4-0.4-0.8-0.5
		c-0.5-0.2-1.1-0.4-1.1-0.9l0,0c0-0.5,0.4-0.9,1.1-0.9c0.4,0,0.8,0.2,1.2,0.4l-0.2,0.4c-0.3-0.2-0.6-0.3-1-0.3
		c-0.4,0-0.6,0.2-0.6,0.4l0,0c0,0.3,0.4,0.4,0.8,0.5c0.5,0.2,1.1,0.4,1.1,0.9l0,0c0,0.6-0.5,1-1.2,1
		C210.5,408,210,407.9,209.6,407.6z"/>
	<path style="fill:#595959;" d="M212.9,407.3h0.5v0.6h-0.5V407.3z"/>
	<path style="fill:#595959;" d="M214.2,404.8c0.4-0.1,0.4-0.3,0.4-0.5h-0.3v-0.7h0.5v0.5c0,0.5-0.2,0.7-0.7,0.9V404.8z M215.4,404.8
		c0.4-0.1,0.4-0.3,0.4-0.5h-0.3v-0.7h0.5v0.5c0,0.5-0.2,0.7-0.7,0.9V404.8z"/>
	<path style="fill:#595959;" d="M219,403.6h3.1v0.4h-2.7v1.6h2.4v0.4h-2.4v1.9h-0.5L219,403.6L219,403.6z"/>
	<path style="fill:#595959;" d="M222.8,406.4L222.8,406.4c0-0.9,0.7-1.7,1.7-1.7c1,0,1.7,0.8,1.7,1.7l0,0c0,0.9-0.7,1.7-1.7,1.7
		C223.5,408,222.8,407.3,222.8,406.4z M225.7,406.4L225.7,406.4c0-0.7-0.5-1.2-1.2-1.2c-0.7,0-1.2,0.5-1.2,1.2l0,0
		c0,0.7,0.5,1.2,1.2,1.2C225.2,407.6,225.7,407.1,225.7,406.4z"/>
	<path style="fill:#595959;" d="M227,404.7h0.4v0.8c0.3-0.5,0.7-0.9,1.3-0.9v0.5l0,0c-0.7,0-1.2,0.5-1.2,1.5v1.2h-0.4L227,404.7
		L227,404.7z"/>
	<path style="fill:#595959;" d="M229.9,407.4v0.6h-0.4v-4.6h0.4v2c0.3-0.4,0.6-0.7,1.2-0.7c0.8,0,1.5,0.6,1.5,1.7l0,0
		c0,1.1-0.8,1.7-1.5,1.7C230.5,408,230.2,407.8,229.9,407.4z M232.2,406.3L232.2,406.3c0-0.8-0.5-1.2-1.2-1.2
		c-0.6,0-1.2,0.5-1.2,1.2l0,0c0,0.7,0.5,1.2,1.2,1.2S232.2,407.1,232.2,406.3z"/>
	<path style="fill:#595959;" d="M233.3,406.3L233.3,406.3c0-1,0.6-1.7,1.5-1.7c1,0,1.5,0.8,1.5,1.7c0,0.1,0,0.1,0,0.2h-2.6
		c0.1,0.7,0.5,1.1,1.2,1.1c0.4,0,0.7-0.2,1-0.4l0.3,0.3c-0.4,0.4-0.7,0.6-1.3,0.6C234,408,233.3,407.4,233.3,406.3z M235.9,406.2
		c-0.1-0.6-0.4-1.1-1.1-1.1c-0.5,0-1,0.4-1.1,1.1H235.9z"/>
	<path style="fill:#595959;" d="M236.9,407.6l0.3-0.4c0.4,0.3,0.7,0.4,1.2,0.4c0.4,0,0.6-0.2,0.6-0.5l0,0c0-0.4-0.4-0.4-0.8-0.5
		c-0.5-0.2-1.1-0.4-1.1-0.9l0,0c0-0.5,0.4-0.9,1.1-0.9c0.4,0,0.8,0.2,1.2,0.4l-0.2,0.4c-0.3-0.2-0.6-0.3-1-0.3s-0.6,0.2-0.6,0.4l0,0
		c0,0.3,0.4,0.4,0.8,0.5c0.5,0.2,1.1,0.4,1.1,0.9l0,0c0,0.6-0.5,1-1.2,1C237.8,408,237.2,407.9,236.9,407.6z"/>
	<path style="fill:#595959;" d="M240.2,407.3h0.5v0.6h-0.5V407.3z"/>
	<path style="fill:#595959;" d="M243.3,407.3l0.4-0.4c0.4,0.4,0.7,0.6,1.2,0.6s1-0.4,1-0.9l0,0c0-0.5-0.5-0.8-1.2-0.8h-0.3l-0.1-0.3
		l1.3-1.5h-2.1v-0.5h2.8v0.4l-1.3,1.5c0.8,0.1,1.4,0.4,1.4,1.2l0,0c0,0.8-0.6,1.3-1.4,1.3C244.2,408,243.7,407.8,243.3,407.3z"/>
	<path style="fill:#595959;" d="M250.8,403.6h0.4l2,4.4h-0.5l-0.5-1.2h-2.4l-0.5,1.2h-0.5L250.8,403.6z M252,406.3l-1-2.2l-1,2.2
		H252z"/>
	<path style="fill:#595959;" d="M253.9,404.7h0.4v0.6c0.3-0.4,0.6-0.7,1.2-0.7c0.8,0,1.5,0.6,1.5,1.7l0,0c0,1.1-0.8,1.7-1.5,1.7
		c-0.6,0-1-0.4-1.2-0.7v1.6h-0.4V404.7z M256.7,406.3L256.7,406.3c0-0.8-0.5-1.2-1.2-1.2c-0.6,0-1.2,0.5-1.2,1.2l0,0
		c0,0.7,0.5,1.2,1.2,1.2C256.2,407.6,256.7,407.1,256.7,406.3z"/>
	<path style="fill:#595959;" d="M258,404.7h0.4v0.8c0.3-0.5,0.7-0.9,1.3-0.9v0.5l0,0c-0.7,0-1.2,0.5-1.2,1.5v1.2H258V404.7z"/>
	<path style="fill:#595959;" d="M260.5,403.5h0.5v0.5h-0.5V403.5z M260.5,404.7h0.4v3.2h-0.4V404.7z"/>
	<path style="fill:#595959;" d="M262.1,403.4h0.4v4.6h-0.4V403.4z"/>
	<path style="fill:#595959;" d="M265.3,407.6l1.6-1.4c0.6-0.6,0.9-1,0.9-1.3c0-0.5-0.4-0.8-0.9-0.8c-0.5,0-0.8,0.3-1.2,0.7l-0.4-0.3
		c0.4-0.6,0.8-0.9,1.6-0.9c0.8,0,1.3,0.5,1.3,1.2l0,0c0,0.6-0.4,1.1-1.1,1.7l-1.2,1.1h2.3v0.4h-3L265.3,407.6L265.3,407.6z"/>
	<path style="fill:#595959;" d="M269,405.8L269,405.8c0-1.2,0.7-2.2,1.9-2.2c1.2,0,1.9,1,1.9,2.2l0,0c0,1.2-0.7,2.2-1.9,2.2
		C269.7,408,269,407.1,269,405.8z M272.2,405.8L272.2,405.8c0-1-0.5-1.8-1.3-1.8s-1.3,0.8-1.3,1.8l0,0c0,1,0.5,1.8,1.3,1.8
		S272.2,406.8,272.2,405.8z"/>
	<path style="fill:#595959;" d="M274.2,404.1l-0.8,0.3l-0.1-0.4l1.1-0.4h0.4v4.4h-0.4L274.2,404.1L274.2,404.1z"/>
	<path style="fill:#595959;" d="M277.9,407h-2.3l-0.1-0.4l2.5-3h0.4v2.9h0.7v0.4h-0.7v1.1H278L277.9,407L277.9,407z M277.9,406.5
		v-2.2l-1.9,2.2H277.9z"/>
	<path style="fill:#595959;" d="M279.8,407.3h0.5v0.6h-0.5V407.3z"/>
	<path style="fill:#595959;" d="M282.9,403.6h0.5l1.2,3.7l1.2-3.7h0.4l1.2,3.7l1.2-3.7h0.5l-1.6,4.4h-0.4l-1.2-3.6l-1.2,3.6h-0.4
		L282.9,403.6z"/>
	<path style="fill:#595959;" d="M289.8,406.3L289.8,406.3c0-1,0.6-1.7,1.5-1.7c1,0,1.5,0.8,1.5,1.7c0,0.1,0,0.1,0,0.2h-2.6
		c0.1,0.7,0.5,1.1,1.2,1.1c0.4,0,0.7-0.2,1-0.4l0.3,0.3c-0.4,0.4-0.7,0.6-1.3,0.6C290.5,408,289.8,407.4,289.8,406.3z M292.4,406.2
		c-0.1-0.6-0.4-1.1-1.1-1.1c-0.5,0-1,0.4-1.1,1.1H292.4z"/>
	<path style="fill:#595959;" d="M294.1,407.4v0.6h-0.4v-4.6h0.4v2c0.3-0.4,0.6-0.7,1.2-0.7c0.8,0,1.5,0.6,1.5,1.7l0,0
		c0,1.1-0.8,1.7-1.5,1.7C294.7,408,294.4,407.8,294.1,407.4z M296.4,406.3L296.4,406.3c0-0.8-0.5-1.2-1.2-1.2s-1.2,0.5-1.2,1.2l0,0
		c0,0.7,0.5,1.2,1.2,1.2C295.9,407.6,296.4,407.1,296.4,406.3z"/>
	<path style="fill:#595959;" d="M297.7,407.3h0.5v0.6h-0.5V407.3z"/>
	<path style="fill:#595959;" d="M301.6,404.1l-0.8,0.3l-0.1-0.4l1.1-0.4h0.4v4.4h-0.4L301.6,404.1L301.6,404.1z"/>
	<path style="fill:#595959;" d="M303,405.8L303,405.8c0-1.2,0.7-2.2,1.9-2.2c1.2,0,1.9,1,1.9,2.2l0,0c0,1.2-0.7,2.2-1.9,2.2
		C303.8,408,303,407.1,303,405.8z M306.2,405.8L306.2,405.8c0-1-0.5-1.8-1.3-1.8s-1.3,0.8-1.3,1.8l0,0c0,1,0.5,1.8,1.3,1.8
		S306.2,406.8,306.2,405.8z"/>
	<path style="fill:#595959;" d="M311.2,403.6h0.4l2,4.4H313l-0.5-1.2h-2.4l-0.5,1.2H309L311.2,403.6z M312.3,406.3l-1-2.2l-1,2.2
		H312.3z"/>
	<path style="fill:#595959;" d="M314.3,406.8v-2h0.4v1.9c0,0.6,0.4,1,0.9,1c0.5,0,1-0.4,1-1v-1.9h0.4v3.2h-0.4v-0.5
		c-0.2,0.4-0.5,0.6-1.1,0.6C314.7,408,314.3,407.5,314.3,406.8z"/>
	<path style="fill:#595959;" d="M318,408.6l0.2-0.4c0.4,0.3,0.8,0.4,1.2,0.4c0.7,0,1.2-0.4,1.2-1.2v-0.4c-0.3,0.4-0.7,0.7-1.2,0.7
		c-0.8,0-1.5-0.6-1.5-1.5l0,0c0-1,0.7-1.5,1.5-1.5c0.6,0,1,0.3,1.2,0.6v-0.6h0.4v2.7c0,0.5-0.2,0.9-0.4,1.2s-0.7,0.4-1.2,0.4
		C319,409,318.5,408.8,318,408.6z M320.7,406.2L320.7,406.2c0-0.7-0.5-1.1-1.2-1.1c-0.6,0-1.2,0.4-1.2,1.1l0,0
		c0,0.6,0.5,1.1,1.2,1.1C320.1,407.3,320.7,406.9,320.7,406.2z"/>
	<path style="fill:#595959;" d="M322.1,407.3h0.5v0.6h-0.5V407.3z"/>
	<path style="fill:#595959;" d="M325.2,407.6l1.6-1.4c0.6-0.6,0.9-1,0.9-1.3c0-0.5-0.4-0.8-0.9-0.8c-0.5,0-0.8,0.3-1.2,0.7l-0.4-0.3
		c0.4-0.6,0.8-0.9,1.6-0.9s1.3,0.5,1.3,1.2l0,0c0,0.6-0.4,1.1-1.1,1.7l-1.2,1.1h2.3v0.4h-3L325.2,407.6L325.2,407.6z"/>
	<path style="fill:#595959;" d="M329,405.8L329,405.8c0-1.2,0.7-2.2,1.9-2.2c1.2,0,1.9,1,1.9,2.2l0,0c0,1.2-0.7,2.2-1.9,2.2
		S329,407.1,329,405.8z M332.1,405.8L332.1,405.8c0-1-0.5-1.8-1.3-1.8c-0.8,0-1.3,0.8-1.3,1.8l0,0c0,1,0.5,1.8,1.3,1.8
		C331.6,407.6,332.1,406.8,332.1,405.8z"/>
	<path style="fill:#595959;" d="M334.1,404.1l-0.8,0.3l-0.1-0.4l1.1-0.4h0.4v4.4h-0.4L334.1,404.1L334.1,404.1z"/>
	<path style="fill:#595959;" d="M335.5,407.4l0.4-0.4c0.4,0.4,0.8,0.6,1.2,0.6c0.6,0,1.1-0.4,1.1-1l0,0c0-0.5-0.4-0.9-1.1-0.9
		c-0.4,0-0.6,0.1-0.9,0.3l-0.4-0.2l0.1-2.1h2.5v0.4h-2.1l-0.1,1.4c0.3-0.1,0.5-0.2,0.9-0.2c0.9,0,1.5,0.5,1.5,1.3l0,0
		c0,0.9-0.6,1.4-1.6,1.4C336.4,408,335.9,407.8,335.5,407.4z"/>
	<path style="fill:#595959;" d="M339.4,407.3h0.5v0.6h-0.5V407.3z"/>
</g>
</svg>
