<?xml version="1.0" encoding="utf-8"?>
<!-- Generator: Adobe Illustrator 17.1.0, SVG Export Plug-In . SVG Version: 6.00 Build 0)  -->
<!DOCTYPE svg PUBLIC "-//W3C//DTD SVG 1.1//EN" "http://www.w3.org/Graphics/SVG/1.1/DTD/svg11.dtd">
<svg version="1.1" id="Layer_1" xmlns="http://www.w3.org/2000/svg" xmlns:xlink="http://www.w3.org/1999/xlink" x="0px" y="0px"
	 viewBox="0 0 41.5 30" style="enable-background:new 0 0 41.5 30;" xml:space="preserve">
<g>
	<path style="fill:#FFFFFF;" d="M22.2,4.3c-2.1,1-4.2,2-6.4,3c-0.1,0-0.3,0-0.4,0c-2.1-1.4-4.2-2.7-6.3-4.1c-0.4-0.2-0.4-0.5,0-0.7
		c1-0.5,2.1-1,3.1-1.5c0.3-0.1,0.7-0.1,1,0c2.6,0.9,5.2,1.8,7.8,2.7c0.4,0.1,0.8,0.3,1.1,0.4C22.2,4.2,22.2,4.2,22.2,4.3z"/>
	<path style="fill:#FFFFFF;" d="M21.8,15.9c-0.1,1.1-0.2,2.1-0.4,3.2c-0.1,0.6-0.1,1.2-0.2,1.8c-0.1,0.9-0.2,1.9-0.3,2.8
		c-0.1,0.6-0.1,1.2-0.2,1.8c-0.1,1-0.2,1.9-0.3,2.9c0,0.4,0,0.7-0.1,1.1c0,0.2,0,0.4,0.2,0.5c0.1,0,0.1,0,0.2,0
		c0.8-0.4,1.6-0.8,2.5-1.2c0.7-0.3,1.2-0.7,1.5-1.5c1.2-3.4,2.4-6.8,3.6-10.2c0.6-1.8,1.2-3.6,1.9-5.3L21.8,15.9z"/>
	<path style="fill:#FFFFFF;" d="M39.2,0.3c-0.5-0.1-0.9-0.2-1.4-0.3c-0.5,0-1,0-1.5,0c-0.4,0.1-0.8,0.1-1.2,0.2
		c-0.6,0.2-1.2,0.3-1.8,0.6C32.1,1.4,31,2,29.8,2.5c-2.1,1-4.3,2.1-6.4,3.1c-1.3,0.6-2.6,1.3-4,1.9c-2.1,1-4.1,2-6.2,3
		c-1.1,0.5-2.3,1.1-3.4,1.6c-0.2,0.1-0.5,0.1-0.7,0.1c-1.8-0.6-3.7-1.2-5.5-1.8c-0.1,0-0.3-0.1-0.4-0.1c-1-0.6-2-0.3-2.9,0.2
		c-0.1,0-0.2,0.1-0.2,0.1c0,0.1,0,0.1,0,0.2c0.5,0.5,0.9,1.1,1.4,1.6c1,1.1,2.1,2.2,3.2,3.3c0.5,0.6,1.1,1.1,1.7,1.6
		c0.6,0.5,1.4,0.6,2.2,0.5c0.6,0,1.3-0.1,1.9-0.2c1.3-0.3,2.7-0.5,4-0.9c1.4-0.4,2.7-0.8,4-1.3c1.1-0.4,2.1-0.9,3.2-1.4l9.2-4.4
		c0.1,0,0.1-0.1,0.2-0.1c1.2-0.6,2.5-1.2,3.7-1.8c1.3-0.6,2.6-1.2,3.8-1.8c1.2-0.6,2.1-1.4,2.7-2.5c0.2-0.3,0.2-0.7,0.4-1.1
		c0-0.1,0-0.2,0-0.3C41.2,0.8,40.2,0.5,39.2,0.3z"/>
</g>
</svg>
