<?xml version="1.0" encoding="utf-8"?>
<!-- Generator: Adobe Illustrator 17.1.0, SVG Export Plug-In . SVG Version: 6.00 Build 0)  -->
<!DOCTYPE svg PUBLIC "-//W3C//DTD SVG 1.1//EN" "http://www.w3.org/Graphics/SVG/1.1/DTD/svg11.dtd">
<svg version="1.1" id="Layer_1" xmlns="http://www.w3.org/2000/svg" xmlns:xlink="http://www.w3.org/1999/xlink" x="0px" y="0px"
	 viewBox="0 0 233.6 269.3" style="enable-background:new 0 0 233.6 269.3;" xml:space="preserve">
<text transform="matrix(1 0 0 1 39.7407 202.5278)"><tspan x="0" y="0" style="fill:#00B9DF; font-family:'Gotham-Black'; font-size:56.4511; letter-spacing:-1;">5</tspan><tspan x="34.4" y="0" style="fill:#00B9DF; font-family:'Gotham-Black'; font-size:56.4511; letter-spacing:-2;">,</tspan><tspan x="48.2" y="0" style="fill:#00B9DF; font-family:'Gotham-Black'; font-size:56.4511; letter-spacing:-1;">7</tspan><tspan x="81.7" y="0" style="fill:#00B9DF; font-family:'Gotham-Black'; font-size:56.4511;">36</tspan><tspan x="25.5" y="38" style="fill:#00B9DF; font-family:'Gotham-Black'; font-size:37.3628;">JOBS</tspan></text>
<text transform="matrix(1 0 0 1 0 264.2661)" style="fill:#FFFFFF; font-family:'Gotham-Black'; font-size:15.9058;">jobs created since 200</text>
<text transform="matrix(1 0 0 1 220.2456 264.2661)" style="fill:#FFFFFF; font-family:'Gotham-Black'; font-size:15.9058;">5</text>
<text transform="matrix(0.583 0 0 0.583 230.5845 256.3803)" style="fill:#FFFFFF; font-family:'Gotham-Book'; font-size:14.6705;">1</text>
<g>
	<circle style="fill:none;stroke:#FFFFFF;stroke-width:7.1899;stroke-miterlimit:10;" cx="116.8" cy="69" r="65.4"/>
	<g>
		<path style="fill:#FFFFFF;" d="M117.6,30.3c0-5.2,4.2-9.4,9.4-9.4c5.1,0,9.3,4.2,9.3,9.4c0,5.2-4.2,9.4-9.4,9.4
			C121.8,39.7,117.6,35.5,117.6,30.3z"/>
		<path style="fill:#FFFFFF;" d="M99.1,80.1l-8.2-2.3c-2.2-0.6-3.4-2.8-2.8-5l1.3-4.5c0.6-2.2,2.8-3.4,5-2.8l8.2,2.3
			c2.2,0.6,3.4,2.8,2.8,5l-1.3,4.5C103.5,79.5,101.2,80.7,99.1,80.1z M93.5,68.4c-0.6-0.2-1.2,0.2-1.3,0.7l-1.3,4.5
			c-0.2,0.6,0.2,1.2,0.7,1.3l8.2,2.3c0.6,0.2,1.2-0.2,1.3-0.7l1.3-4.5c0.2-0.6-0.2-1.2-0.7-1.3L93.5,68.4z"/>
		<g>
			<path style="fill:#FFFFFF;" d="M105.3,93.1l2.2-8.1c-0.9,0.2-2,0.6-3.3,0.9c-0.1,0.4-0.6,2.1-0.6,2.2c-0.5,2-0.9,3.5-1.3,4.8
				l2.1,0.6C104.8,93.6,105.2,93.4,105.3,93.1z"/>
			<path style="fill:#FFFFFF;" d="M113.4,85.6c-0.7-0.5-1.2-0.8-1.8-1l-2.6,9.5c-0.5,1.9-2.3,3.3-4.3,3.3c-0.4,0-0.8-0.1-1.2-0.2
				l-2.1-0.6c-0.6,2.3-1.2,4.6-2.4,9c-0.2,0.7-0.2,1.5-0.1,2.2c0.4,2.3,2.3,3.9,4.6,4c2.3,0.1,4.2-1.4,4.9-3.8
				c1.9-7.1,3.8-14.2,5.6-21.3C114.1,86.2,113.9,86,113.4,85.6z"/>
		</g>
		<g>
			<path style="fill:#FFFFFF;" d="M90,81.3l7.2,2l13.7-3l0.1-0.4c0.4-1.4-0.4-2.8-1.8-3.2l-26.8-7.4c-1.4-0.4-2.8,0.4-3.2,1.8
				l-0.1,0.4L90,81.3z"/>
			<path style="fill:#FFFFFF;" d="M97.1,86.4L88.5,84l-10.3-9.3l-2.8,10.1c-0.4,1.4,0.4,2.8,1.8,3.2l26.8,7.4
				c1.4,0.4,2.8-0.4,3.2-1.8l2.8-10L97.1,86.4z"/>
		</g>
		<path style="fill:#FFFFFF;" d="M147.2,58.6c-2.2,0-4.4,0-6.7,0c-0.6,0-1-0.2-1.3-0.7c-2.5-3.9-5.1-7.7-7.6-11.6
			c-0.8-1.3-1.9-2.3-3.4-2.5c-3.6-0.5-7.1-1.5-10.8-0.9c-4.7,0.7-9.5,1.3-14.3,1.9c-1.9,0.3-3.2,1.4-3.8,3.2
			c-1.2,3.6-2.4,7.1-3.4,10.7c-0.3,1-0.2,2.2,0.1,3.1c0.6,1.8,2.4,3,4.3,2.9c1.9,0,3.7-1.2,4.3-3.1c0.8-2.4,1.6-4.9,2.4-7.3
			c0.1-0.3,0.4-0.7,0.6-0.7c1.6-0.3,3.2-0.5,4.9-0.8c-0.1,0.6-0.2,1-0.3,1.4c-1.4,5.6-2.9,11.2-4.3,16.9c-0.2,0.9-0.3,1.8-0.2,2.7
			c0,0,0,0,0,0l2.1,0.6c2.4,0.7,3.8,3.1,3.1,5.5l-0.3,0.9c4.5,3,9,6.1,13.5,9.2c0.4,0.3,0.7,0.8,0.8,1.3c0.9,4.9,1.7,9.8,2.5,14.7
			c0.2,1.1,0.4,2.3,0.9,3.3c1.1,2.1,3.6,3,5.8,2.2c2.3-0.9,3.5-3.1,3.1-5.8c-1-6-2.1-12.1-3-18.1c-0.3-1.7-1-3.1-2.5-4.1
			c-3.2-2.2-6.3-4.5-9.5-6.7c-0.6-0.4-0.8-0.8-0.6-1.5c1.3-5.6,2.5-11.3,3.7-16.9c0.1-0.3,0.1-0.5,0.3-1c0.3,0.4,0.5,0.7,0.7,1
			c1.6,2.4,3.2,4.9,4.8,7.3c1,1.5,2.4,2.2,4.2,2.2c3.3,0,6.5,0,9.8,0c2.7,0,4.8-2,4.8-4.6C152,60.7,150,58.6,147.2,58.6z"/>
	</g>
</g>
</svg>
