<?xml version="1.0" encoding="utf-8"?>
<!-- Generator: Adobe Illustrator 17.1.0, SVG Export Plug-In . SVG Version: 6.00 Build 0)  -->
<!DOCTYPE svg PUBLIC "-//W3C//DTD SVG 1.1//EN" "http://www.w3.org/Graphics/SVG/1.1/DTD/svg11.dtd">
<svg version="1.1" id="Layer_1" xmlns="http://www.w3.org/2000/svg" xmlns:xlink="http://www.w3.org/1999/xlink" x="0px" y="0px"
	 viewBox="0 0 209 55.7" style="enable-background:new 0 0 209 55.7;" xml:space="preserve">
<g>
	<g>
		<g>
			<polygon style="fill:#FFFFFF;" points="111.1,50.9 110.3,50.9 110.3,6.8 111.1,6.8 111.1,50.9 			"/>
		</g>
	</g>
	<g>
		<path style="fill:#FFFFFF;" d="M48.1,15.3c0-0.1-0.1-0.2-0.1-0.3l-4.7,1.9c0-0.4,0.1-0.7,0.2-1l4.5-1.3c0-0.1,0-0.2,0-0.3L43.8,15
			c0.1-0.3,0.2-0.5,0.4-0.8l3.8-0.1c0-0.1,0.1-0.2,0.1-0.3l-2.9-0.4c-0.2,0-0.3-0.2-0.2-0.4c1.4-1.6,3.3-2.3,5-2.4v1.2
			c0,0.1,0.1,0.2,0.2,0.2c0.1,0,0.2-0.1,0.2-0.2v-1.2c1.7,0.1,3.6,0.8,5,2.4c0.1,0.2,0.1,0.4-0.2,0.4l-2.9,0.4
			c0.1,0.1,0.1,0.2,0.1,0.3l3.8,0.1c0.1,0.2,0.3,0.5,0.4,0.8l-4.2-0.6c0,0.1,0,0.2,0,0.3l4.5,1.3c0.1,0.3,0.1,0.6,0.2,1L52.4,15
			c0,0.1,0,0.2-0.1,0.3l4.2,2.4c0.6,0.3,0.5,0.9,0.4,1.6c-0.5,2.1-2.1,4-4.1,4.8l-1.2-8h-1.2l0,8.5c-0.1,0-0.1,0-0.2,0
			c-0.1,0-0.2,0-0.2,0l0-8.5h-1.2l-1.2,8c-2.1-0.8-3.6-2.8-4.1-4.8c-0.2-0.7-0.2-1.2,0.4-1.6L48.1,15.3L48.1,15.3z M49,18.3l0.3,0
			l0.1-0.8l-0.3,0L49,18.3L49,18.3z M49.3,14.6h2v-0.8h-2V14.6L49.3,14.6z M48.5,14.9v1h3.4v-1H48.5L48.5,14.9z M50.4,12.6
			c0-0.1-0.1-0.2-0.2-0.2c-0.1,0-0.2,0.1-0.2,0.2l0,0.4l-0.9,0.5v0.1h2.3v-0.1l-1-0.5V12.6L50.4,12.6z M49.2,23.2l0.3,0l0.1-0.8
			l-0.3,0L49.2,23.2L49.2,23.2z M51.5,19.9l-0.3,0l0.1,0.8l0.3,0L51.5,19.9L51.5,19.9z"/>
		<path style="fill:#FFFFFF;" d="M12.7,27.1v3.5H8.4v-3.5c0-0.4,0.2-0.6,0.4-0.7H5.6C5.8,26.5,6,26.7,6,27.1v9
			c0,0.3-0.2,0.6-0.4,0.7h3.2c-0.2-0.1-0.4-0.4-0.4-0.7v-4.6h4.3v4.6c0,0.3-0.2,0.6-0.4,0.7h3.2c-0.2-0.1-0.4-0.4-0.4-0.7v-9
			c0-0.4,0.2-0.6,0.4-0.7h-3.2C12.5,26.5,12.7,26.7,12.7,27.1L12.7,27.1z"/>
		<path style="fill:#FFFFFF;" d="M16.7,30l0,2.2c0.3-0.8,1.1-1.9,2.2-1.9c0.7,0,1.1,0.5,1.1,1.2c0,0.2,0,0.5-0.2,0.7
			c-0.5,0.4-2.1,0.6-2.9,1.1c-0.8,0.5-1.1,1.1-1.1,1.7c0,0.8,0.6,1.9,2,1.9c0.9,0,1.7-0.5,2.2-0.9c0,0.6,0.3,0.7,0.6,0.9l1.9-0.6
			c-0.5-0.1-0.4-0.3-0.4-0.7c0-0.1,0-3.4,0-3.7c0-2.3-1.8-2.5-2.7-2.5C18.3,29.4,17.3,29.7,16.7,30L16.7,30z M17.9,34.7
			c0-0.6,0.4-0.9,0.9-1.2c0.5-0.2,0.8-0.3,1.1-0.4v2.3c-0.2,0.2-0.6,0.4-1,0.4C18.4,35.7,17.9,35.4,17.9,34.7L17.9,34.7z"/>
		<path style="fill:#FFFFFF;" d="M28,29.4c-1,0-1.8,0.5-2.3,1v-1L23,29.7c0.3,0.1,0.5,0.2,0.5,0.7v5.7c0,0.3-0.2,0.5-0.4,0.7h3
			c-0.2-0.1-0.4-0.3-0.4-0.7v-4.8c0.2-0.3,0.7-0.6,1.2-0.6c1.2,0,1.3,1,1.3,1.6v3.8c0,0.3-0.1,0.5-0.4,0.7h3
			c-0.2-0.1-0.4-0.3-0.4-0.7v-4.4C30.4,30.2,29.4,29.4,28,29.4L28,29.4z"/>
		<path style="fill:#FFFFFF;" d="M35.5,35.7c-1.5,0-2.2-1.2-2.2-2.8c0-1.5,0.7-2.6,1.8-2.6c1,0,1.6,0.9,1.9,2l0-2.6
			c0,0-1.2-0.4-2.2-0.4c-2.8,0-3.9,2.2-3.9,3.7c0,2,1.2,3.8,3.7,3.8c1.9,0,2.7-1.4,2.8-2.1C37,35.3,36.3,35.7,35.5,35.7L35.5,35.7z"
			/>
		<path style="fill:#FFFFFF;" d="M41.4,29.4c-2.4,0-3.8,1.8-3.8,3.9c0,1.5,0.9,3.7,3.8,3.7c2.3,0,3.8-1.6,3.8-3.8
			C45.2,31.1,43.9,29.4,41.4,29.4L41.4,29.4z M41.3,30.2c1,0,1.5,1.3,1.6,2.9c0.1,2-0.5,2.9-1.4,3c-0.8,0-1.5-0.9-1.6-2.8
			C39.8,31.4,40.3,30.3,41.3,30.2L41.3,30.2z"/>
		<path style="fill:#FFFFFF;" d="M50.2,35.7c-1.5,0-2.2-1.2-2.2-2.8c0-1.5,0.7-2.6,1.8-2.6c1,0,1.6,0.9,1.9,2l0-2.6
			c0,0-1.2-0.4-2.2-0.4c-2.8,0-3.9,2.2-3.9,3.7c0,2,1.2,3.8,3.7,3.8c1.9,0,2.7-1.4,2.8-2.1C51.8,35.3,51.1,35.7,50.2,35.7L50.2,35.7
			z"/>
		<path style="fill:#FFFFFF;" d="M56.9,32.1c0,0,1.7-1.6,2-1.8c0.4-0.3,0.6-0.5,1.1-0.7h-2.7c0.4,0.2,0.5,0.4,0,0.9
			c0,0-1.8,1.7-2.2,2v-6.4l-2.9,0.5c0.3,0.1,0.6,0.2,0.6,0.6v8.8c0,0.3-0.2,0.5-0.4,0.7h3.1c-0.2-0.1-0.4-0.3-0.4-0.7v-2.8l2.1,2.8
			c0.1,0.2,0.1,0.5-0.2,0.6h3.8c-0.5-0.2-0.7-0.4-0.9-0.7L56.9,32.1L56.9,32.1z"/>
		<path style="fill:#FFFFFF;" d="M66.5,26.4h-3.9c0.2,0.1,0.4,0.3,0.4,0.7v9c0,0.3-0.2,0.6-0.4,0.7h4.3c3.2,0,4.1-1.7,4.1-2.9
			c0-2.4-3.1-2.6-3.1-2.6s2.2-0.5,2.2-2.4C70,26.8,67.5,26.4,66.5,26.4L66.5,26.4z M67.9,29.1c0,1.3-1,1.8-2,1.8c-0.1,0-0.4,0-0.4,0
			c0-0.4,0-3.6,0-3.6s0.4,0,0.6,0C67.2,27.3,67.9,28.2,67.9,29.1L67.9,29.1z M68.4,33.8c0,1.4-1.1,2.1-2.6,2.1c-0.2,0-0.3,0-0.3,0
			c0-1.9,0-4,0-4s0.5,0,0.7,0C67.4,31.8,68.4,32.3,68.4,33.8L68.4,33.8z"/>
		<path style="fill:#FFFFFF;" d="M72.2,30l0,2.2c0.3-0.8,1.1-1.9,2.2-1.9c0.7,0,1.1,0.5,1.1,1.2c0,0.2,0,0.5-0.2,0.7
			c-0.5,0.4-2.1,0.6-2.9,1.1c-0.8,0.5-1.1,1.1-1.1,1.7c0,0.8,0.6,1.9,2,1.9c0.9,0,1.7-0.5,2.2-0.9c0,0.6,0.3,0.7,0.6,0.9l1.9-0.6
			c-0.5-0.1-0.4-0.3-0.4-0.7c0-0.1,0-3.4,0-3.7c0-2.3-1.8-2.5-2.7-2.5C73.7,29.4,72.8,29.7,72.2,30L72.2,30z M73.4,34.7
			c0-0.6,0.4-0.9,0.9-1.2c0.5-0.2,0.7-0.3,1.1-0.4v2.3c-0.2,0.2-0.6,0.4-1,0.4C73.9,35.7,73.4,35.4,73.4,34.7L73.4,34.7z"/>
		<path style="fill:#FFFFFF;" d="M83.5,29.4c-1,0-1.8,0.5-2.3,1v-1l-2.7,0.4c0.3,0.1,0.5,0.2,0.5,0.7v5.7c0,0.3-0.2,0.5-0.4,0.7h3
			c-0.2-0.1-0.4-0.3-0.4-0.7v-4.8c0.2-0.3,0.7-0.6,1.2-0.6c1.2,0,1.3,1,1.3,1.6v3.8c0,0.3-0.1,0.5-0.4,0.7h3
			c-0.2-0.1-0.4-0.3-0.4-0.7v-4.4C85.8,30.2,84.8,29.4,83.5,29.4L83.5,29.4z"/>
		<path style="fill:#FFFFFF;" d="M91.2,32.1c0,0,1.7-1.6,2-1.8c0.4-0.3,0.6-0.5,1.1-0.7h-2.7c0.4,0.2,0.5,0.4,0,0.9
			c0,0-1.8,1.7-2.2,2v-6.4l-2.9,0.5c0.3,0.1,0.6,0.2,0.6,0.6v8.8c0,0.3-0.2,0.5-0.4,0.7h3.1c-0.2-0.1-0.4-0.3-0.4-0.7v-2.8l2.1,2.8
			c0.1,0.2,0.1,0.5-0.2,0.6h3.8c-0.5-0.2-0.7-0.4-0.9-0.7L91.2,32.1L91.2,32.1z"/>
		<path style="fill:#FFFFFF;" d="M95.4,36.2c0,0.4,0.3,0.7,0.7,0.7c0.4,0,0.7-0.3,0.7-0.7c0-0.4-0.3-0.7-0.7-0.7
			C95.7,35.5,95.4,35.8,95.4,36.2L95.4,36.2z M96.7,36.2c0,0.3-0.3,0.6-0.6,0.6c-0.3,0-0.6-0.3-0.6-0.6c0-0.3,0.3-0.6,0.6-0.6
			C96.5,35.6,96.7,35.9,96.7,36.2L96.7,36.2z M96.1,35.8h-0.3c0,0,0,0,0,0.1v0.7c0,0,0,0.1,0,0.1H96c0,0,0,0,0-0.1v-0.3c0,0,0,0,0,0
			c0,0,0.1,0,0.1,0.1l0.1,0.2c0,0,0.1,0.1,0.1,0.1h0.2c0,0-0.1-0.1-0.1-0.1l-0.1-0.2c0,0-0.1-0.1-0.1-0.1c0.1,0,0.2-0.1,0.2-0.2
			C96.4,35.9,96.4,35.8,96.1,35.8L96.1,35.8z M96.2,36c0,0.1-0.1,0.1-0.2,0.1c0,0-0.1,0-0.1,0v-0.3c0,0,0.1,0,0.1,0
			C96.2,35.9,96.2,35.9,96.2,36L96.2,36z"/>
	</g>
	<g>
		<g>
			<path style="fill:#FFFFFF;" d="M156.3,33.3H156l-2.5-8.3h0l-2.2,8.3h-0.2l-2.6-8.8c-0.4-1.4-0.6-1.6-1.3-1.7v-0.3h3.6v0.3
				c-0.7,0.2-0.6,0.8-0.4,1.5l1.5,5.1h0l1.4-5.3c-0.3-0.9-0.5-1.1-1.2-1.2v-0.3h3.6v0.3c-0.5,0.2-0.6,0.6-0.5,1.2l1.6,5.3h0L158,25
				c0.3-1.2,0.4-2-0.5-2.2v-0.3h2.6v0.3c-0.7,0.1-1.2,0.8-1.6,2.4L156.3,33.3z"/>
			<path style="fill:#FFFFFF;" d="M161.8,29v2.7c0,0.8,0.1,1,0.8,1.2v0.2h-3.2v-0.2c0.8-0.3,0.9-0.5,0.9-1.4v-5.4
				c0-0.7-0.1-1-0.9-1.2v-0.2h3.2v0.2c-0.6,0.2-0.8,0.4-0.8,1.1v2.4h3.2v-2.3c0-0.7-0.1-1-0.8-1.2v-0.2h3.2v0.2
				c-0.8,0.3-0.9,0.5-0.9,1.4v5.4c0,0.8,0.2,1,0.9,1.2v0.2h-3.2v-0.2c0.8-0.2,0.8-0.6,0.8-1.4V29H161.8z"/>
			<path style="fill:#FFFFFF;" d="M170.7,31.7c0,0.8,0.1,1,0.9,1.2v0.2h-3.2v-0.2c0.8-0.3,0.9-0.5,0.9-1.4v-5.4c0-0.7-0.1-1-0.9-1.2
				v-0.2h3.2v0.2c-0.8,0.2-0.9,0.5-0.9,1.4V31.7z"/>
			<path style="fill:#FFFFFF;" d="M173.7,33.1v-0.2c0.7-0.2,0.9-0.5,0.9-1.3v-6.4h-0.7c-0.8,0-1.3,0.4-1.5,1.4h-0.2l0.1-2h0.2
				c0.1,0.1,0.2,0.1,0.3,0.1c0.1,0,0.3,0,0.4,0h4.3c0.2,0,0.5,0,0.7-0.2h0.2l0.1,2h-0.2c-0.2-1-0.7-1.4-1.5-1.4H176v6.5
				c0,0.8,0.2,1.1,0.8,1.3v0.2H173.7z"/>
			<path style="fill:#FFFFFF;" d="M185,33.2h-0.2l-4.9-6.8v5.2c0,0.9,0.2,1.2,1,1.3v0.2h-2.3v-0.2c0.7-0.1,0.9-0.6,0.9-1.5v-5.6
				c-0.5-0.7-0.6-0.8-0.9-0.8v-0.2h2l3.9,5.6v-3.8c0-1-0.1-1.4-0.9-1.6v-0.2h2.3v0.2c-0.8,0.1-1,0.6-1,1.4V33.2z"/>
			<path style="fill:#FFFFFF;" d="M191.2,30.2H191c-0.1-0.7-0.4-1.1-0.9-1.1h-1.2v2.5c0,0.8,0.3,1,0.9,1h0.4c0.8,0,1.2-0.8,1.4-1.6
				h0.2l-0.1,2h-5.1v-0.2c0.7-0.2,0.9-0.5,0.9-1.4v-5.4c0-0.7-0.1-1-0.9-1.2v-0.2h5.1v1.9h-0.2c-0.2-1.1-0.5-1.4-1.2-1.4h-1.3v3.5
				h1.2c0.5,0,0.8-0.3,0.9-1.1h0.2V30.2z"/>
			<path style="fill:#FFFFFF;" d="M196.3,31.7c0,0.8,0.2,1,0.9,1.2v0.2H194v-0.2c0.6-0.1,0.9-0.5,0.9-1.2v-2.5l-1.8-3.4
				c-0.3-0.6-0.5-0.8-1-0.9v-0.2h3.1v0.2c-0.5,0-0.6,0.4-0.3,1l1.2,2.2l1-1.8c0.4-0.7,0.3-1.2-0.3-1.4v-0.2h2.1v0.2
				c-0.3,0-0.7,0.3-1,0.9l-1.6,2.8V31.7z"/>
		</g>
		<g>
			<polygon style="fill:#FFFFFF;" points="136.2,34.7 136.8,34.8 136.8,40.4 136.2,40.3 			"/>
			<polygon style="fill:#FFFFFF;" points="137.3,34.9 137.9,35 137.9,40.5 137.3,40.4 			"/>
			<polygon style="fill:#FFFFFF;" points="138.4,35.1 139,35.2 139,40.7 138.4,40.6 			"/>
			<polygon style="fill:#FFFFFF;" points="139.5,35.3 140,35.4 140,40.8 139.5,40.8 			"/>
			<line style="fill:#FFFFFF;" x1="136.4" y1="15.4" x2="136.4" y2="15.4"/>
			<path style="fill:#FFFFFF;" d="M137.2,13.7l0.6,0.1v0.6l-1.4-0.3c-0.3,0.3-0.3,0.9,0,1.3l7.9,1.7l-0.2,0.2
				c-0.3,0.1-0.6,0.5-0.7,0.7l-9.7-2l-4.5,4.5c-0.3-0.2-0.5-0.3-0.9-0.3V20l5.3-5.3c0.1,0,0.2,0,0.2,0c0.9,0,1.8-1.5,1.8-1.5
				l0.4,0.1c-0.2-0.2-0.3-0.5-0.3-0.9c0-0.7,0.6-1.3,1.2-1.3c0.2,0,0.5,0.1,0.6,0.2c0,0-0.1,0-0.1,0.1c-0.1,0.1-0.1,0.5,0.1,0.7
				c0.2,0.3,0.4,0.4,0.6,0.2c0.1-0.1,0.1-0.1,0.1-0.3c0,0,0.1,0.3,0.1,0.4C138,13.1,137.7,13.5,137.2,13.7z"/>
			<path style="fill:#FFFFFF;" d="M141.9,30c-0.4,0.5-0.8,1.1-0.8,1.8c0,0.1,0,0,0,0.1l0,0c0.2-0.9,1-1.6,1.8-1.9v-0.6l-8.1-1.4v0.7
				L141.9,30z"/>
			<g>
				<path style="fill:#FFFFFF;" d="M131.8,26.7c-0.1,0-0.1,0-0.2,0c-0.7,0-1.2-0.5-1.2-2.4v2.3h-0.9v-5l-0.4-0.3v-0.4l1.8-1.8l0,1.4
					l-0.5,0.6v2.2c0.1-1.3,0.6-2.8,1-3.3l0,0l-0.5,0.6l0-1.4l2.8-2.8l9.6,2l0,8l-0.4,0v-7.1l-8.6-1.8V26l0.3,0v-8.4l0.3,0.1l0,8.3
					l7.4,1.2l0-7.7l-6.9-1.4v-0.3l7.2,1.4v8.1h0l0.3,0v-1.3h0.4l0,1.3l0.8,0.1V28c-0.5,0.2-1,0.9-1.2,1.2l-9-1.5l-2.9,2.6l0,0.6
					l3.2-2.6v0.8c1.9,1.3,1.5,3.6,1.5,3.6l-0.1-0.1l-1.8,1.3v0.6l1.9-1.3l5.2,0.9v0.7l-0.3,0.8v-0.8l-4.9-0.9v6.5l-0.4-0.1l-1.5,1.1
					v0.4l1.5-1l5.3,0.8v0.7l-4.5-0.6c0.6,0.9,0.8,2,0.8,2.4c0,0.8,0.1,1.4,0.1,1.4c0.3,0,0.5,0.2,0.5,0.5c0,0.3-0.2,0.5-0.5,0.5
					c-0.3,0-0.5-0.2-0.5-0.5c-0.1-2.2-3.5-3.9-3.5-3.9v-0.4l0.5-0.4v-6.7l-0.3-0.1c-0.4-2.2-2.7-2.5-2.7-2.5V31l-0.3,0.3
					c0,0-0.7-0.9-1.1-1c0,0,0-0.4,0-0.4l4.4-3.5l0-0.3l-3.7,3v-2.6h0.9v1.3L131.8,26.7"/>
			</g>
			<g>
				<polygon style="fill:#FFFFFF;" points="138.6,20.8 138.6,19.6 138.4,19.5 138.4,20.8 				"/>
				<polygon style="fill:#FFFFFF;" points="137.7,20.8 137,19.6 136.9,19.7 137.5,20.9 				"/>
				<path style="fill:#FFFFFF;" d="M137.4,20.4"/>
				<polygon style="fill:#FFFFFF;" points="137,21.3 135.8,20.5 135.7,20.7 136.9,21.5 				"/>
				<polygon style="fill:#FFFFFF;" points="136.7,22.2 135.4,21.9 135.4,22.1 136.7,22.4 				"/>
				<polygon style="fill:#FFFFFF;" points="136.9,23.1 135.7,23.6 135.8,23.8 137,23.3 				"/>
				<polygon style="fill:#FFFFFF;" points="137.5,23.9 136.9,24.9 137.1,25.1 137.7,24.1 				"/>
				<polygon style="fill:#FFFFFF;" points="138.4,24.4 138.4,25.7 138.7,25.7 138.7,24.4 				"/>
				<polygon style="fill:#FFFFFF;" points="139.4,24.4 140,25.6 140.2,25.5 139.6,24.3 				"/>
				<polygon style="fill:#FFFFFF;" points="140.1,23.9 141.2,24.7 141.4,24.6 140.2,23.7 				"/>
				<polygon style="fill:#FFFFFF;" points="140.4,23.1 141.7,23.3 141.7,23.1 140.4,22.8 				"/>
				<polygon style="fill:#FFFFFF;" points="140.2,22.1 141.3,21.7 141.2,21.5 140.1,21.9 				"/>
				<polygon style="fill:#FFFFFF;" points="139.6,21.3 140.2,20.3 140,20.2 139.4,21.1 				"/>
				<path style="fill:#FFFFFF;" d="M138.4,22.2l-1.5-1.3c0-0.1,0-0.1-0.1-0.3c-0.1-0.1-0.7-0.4-0.7-0.4s0.3,0.5,0.4,0.6
					c0.1,0.1,0.2,0.1,0.3,0.1l1.4,1.4c0,0.1,0,0.2,0.1,0.3c0.2,0.1,0.4,0.2,0.5,0c0.1-0.1,0.1-0.3-0.1-0.5
					C138.6,22.3,138.5,22.2,138.4,22.2z"/>
				<path style="fill:#FFFFFF;" d="M138.8,22.6l0.7-0.5c0.1,0,0.1,0.1,0.3,0c0.1-0.1,0.4-0.4,0.4-0.4s-0.5,0-0.6,0.1
					c-0.1,0.1-0.1,0.1-0.1,0.2l-0.8,0.3c-0.1-0.1-0.2-0.1-0.3,0c-0.1,0.1-0.2,0.3-0.1,0.4c0.1,0.2,0.3,0.2,0.4,0.2
					C138.8,22.8,138.8,22.7,138.8,22.6z"/>
			</g>
		</g>
		<g>
			<g>
				<rect x="125.2" y="36" style="fill:#FFFFFF;" width="8.1" height="0.8"/>
			</g>
			<g>
				<rect x="140.6" y="36" style="fill:#FFFFFF;" width="58.9" height="0.8"/>
			</g>
		</g>
		<path style="fill:#FFFFFF;" d="M200.8,24.6c0.4,0,0.7,0.3,0.7,0.7c0,0.4-0.3,0.7-0.7,0.7c-0.4,0-0.7-0.3-0.7-0.7
			C200.1,24.9,200.4,24.6,200.8,24.6L200.8,24.6z M200.8,24.7c-0.3,0-0.6,0.3-0.6,0.6c0,0.3,0.3,0.6,0.6,0.6c0.3,0,0.6-0.3,0.6-0.6
			S201.1,24.7,200.8,24.7L200.8,24.7z M200.6,25.7h-0.1v-0.8c0.1,0,0.1,0,0.2,0c0.1,0,0.2,0,0.2,0.1c0,0,0.1,0.1,0.1,0.2
			c0,0.1-0.1,0.2-0.2,0.2v0c0.1,0,0.1,0.1,0.1,0.2c0,0.1,0,0.2,0.1,0.2h-0.1c0,0,0-0.1-0.1-0.2c0-0.1-0.1-0.1-0.2-0.1h-0.1V25.7z
			 M200.6,25.3L200.6,25.3c0.2,0,0.3,0,0.3-0.1c0-0.1-0.1-0.1-0.2-0.1c0,0-0.1,0-0.1,0V25.3z"/>
	</g>
</g>
</svg>
