<?xml version="1.0" encoding="utf-8"?>
<!-- Generator: Adobe Illustrator 17.1.0, SVG Export Plug-In . SVG Version: 6.00 Build 0)  -->
<!DOCTYPE svg PUBLIC "-//W3C//DTD SVG 1.1//EN" "http://www.w3.org/Graphics/SVG/1.1/DTD/svg11.dtd">
<svg version="1.1" id="Layer_1" xmlns="http://www.w3.org/2000/svg" xmlns:xlink="http://www.w3.org/1999/xlink" x="0px" y="0px"
	 viewBox="0 0 213.8 111.1" style="enable-background:new 0 0 213.8 111.1;" xml:space="preserve">
<g>
	<g>
		<path style="fill:#FFFFFF;" d="M58.2,46.3c-0.7-0.2-1.3,0.3-1.3,1.1v20.9c0,0.8,0.6,1.5,1.3,1.7l47.6,12.3c0.7,0.2,1.9,0.2,2.7,0
			L156,70c0.7-0.2,1.3-1,1.3-1.7V47.1c0-0.8-0.6-1.2-1.3-1.1l-47.9,11.3c-0.7,0.2-1.9,0.2-2.7,0L58.2,46.3z"/>
	</g>
	<path style="fill:#FFFFFF;" d="M210,20.2L107.1,0L4.2,20.2C3.6,20.3,0,20.8,0,22.6c0,2.2,3.5,2.9,4.1,3l28.2,6.6
		c0.5,0.1,1,0.7,1,1.2v7.6c0,0.5-0.3,1.4-0.6,1.8c0,0-2.4,3.3-1.9,6.1c0.3,1.4,1.4,2.9,1.4,2.9c0.3,0.4,0.5,1.2,0.4,1.8l-0.7,4.1
		c-0.1,0.5-0.1,1-0.1,1c0,0,0,0.4,0,1v50.3c0,0.5,0.4,1,1,1h10.1c0.5,0,1-0.4,1-1V59.8c0-0.5,0-1,0-1c0,0,0-0.4-0.1-1L43,53.6
		c-0.1-0.5,0-1.3,0.3-1.8c0,0,1.9-3.1,1.5-5.6c-0.3-1.6-1.8-3.4-1.8-3.4c-0.4-0.4-0.7-1.2-0.7-1.7v-9.3c0-0.5,0.4-1.1,1-1.2
		l59.9-12.1c0.5-0.1,1.4-0.1,2,0c0,0,2.8,0.6,3.1,2.5c0.4,1.9-1.9,3.5-1.9,3.5c-0.4,0.3-1.3,0.7-1.8,0.8L51,36.1
		c-0.5,0.1-0.5,0.3,0,0.4l55.9,12.7l103.2-23.6c2.6-0.8,3.7-1.2,3.7-2.9C213.8,21.4,212.3,20.6,210,20.2z"/>
</g>
</svg>
