<?xml version="1.0" encoding="utf-8"?>
<!-- Generator: Adobe Illustrator 17.1.0, SVG Export Plug-In . SVG Version: 6.00 Build 0)  -->
<!DOCTYPE svg PUBLIC "-//W3C//DTD SVG 1.1//EN" "http://www.w3.org/Graphics/SVG/1.1/DTD/svg11.dtd">
<svg version="1.1" id="Layer_1" xmlns="http://www.w3.org/2000/svg" xmlns:xlink="http://www.w3.org/1999/xlink" x="0px" y="0px"
	 viewBox="0 0 34.4 38.3" style="enable-background:new 0 0 34.4 38.3;" xml:space="preserve">
<g id="JBZFdd.tif_2_">
	<g>
		<path style="fill:#FFFFFF;" d="M17.8,13.5c-0.7,0.1-1.4,0.2-2.1,0.3c-0.1,0-0.2,0.2-0.3,0.3c-0.3,1-0.7,2.1-1,3.1
			c-0.3,0.8-1,1.3-1.8,1.3c-0.8,0-1.6-0.5-1.8-1.2c-0.1-0.4-0.2-0.9,0-1.3c0.4-1.5,0.9-3,1.4-4.5c0.3-0.8,0.8-1.2,1.6-1.3
			c2-0.3,4-0.5,6-0.8c1.6-0.2,3,0.2,4.5,0.4c0.6,0.1,1.1,0.5,1.4,1.1c1.1,1.6,2.2,3.3,3.2,4.9c0.1,0.2,0.3,0.3,0.6,0.3
			c0.9,0,1.9,0,2.8,0c1.2,0,2,0.9,2,2c0,1.1-0.9,1.9-2,2c-1.4,0-2.8,0-4.1,0c-0.8,0-1.4-0.3-1.8-0.9c-0.7-1-1.3-2-2-3.1
			c-0.1-0.1-0.2-0.2-0.3-0.4c0,0.2-0.1,0.3-0.1,0.4c-0.5,2.4-1,4.8-1.6,7.1c-0.1,0.3,0,0.5,0.3,0.6c1.3,0.9,2.6,1.9,4,2.8
			c0.6,0.4,0.9,1,1.1,1.7c0.4,2.6,0.8,5.1,1.3,7.7c0.2,1.1-0.3,2.1-1.3,2.4c-0.9,0.3-2,0-2.4-0.9c-0.2-0.4-0.3-0.9-0.4-1.4
			c-0.4-2.1-0.7-4.1-1.1-6.2c0-0.2-0.2-0.4-0.3-0.6c-2-1.4-4-2.8-6-4.1c-1-0.7-1.7-1.5-1.8-2.8c0-0.4,0-0.8,0.1-1.1
			c0.6-2.4,1.2-4.7,1.8-7.1C17.7,13.9,17.7,13.7,17.8,13.5z"/>
		<path style="fill:#FFFFFF;" d="M8.9,33.3c-2.3-1.1-5,0.2-5.2,3.1C2.8,36.2,1.9,36,1,35.6c-0.8-0.3-1.1-1.2-0.9-2
			c0.7-2.6,1.4-5.2,2.1-7.8c0.5-1.7,2.3-2.7,4-2.3c1,0.2,2,0.5,3,0.8c0.1-0.5,0.3-1,0.4-1.5c0.2-0.8,0.4-1.5,0.6-2.3
			c0.2-0.8,1.2-1.1,1.7-0.5c0.3,0.3,0.3,0.6,0.2,1c-0.9,3.3-1.8,6.7-2.6,10C9.3,31.8,9.1,32.5,8.9,33.3z"/>
		<path style="fill:#FFFFFF;" d="M19.8,4c0-2.2,1.8-4,4-4c2.2,0,3.9,1.8,3.9,4c0,2.2-1.8,4-4,4C21.6,7.9,19.8,6.1,19.8,4z"/>
		<path style="fill:#FFFFFF;" d="M15,24.6c0.8,1.3,2,1.9,3.1,2.7c0.2,0.1,0.3,0.3,0.2,0.5c-0.8,3-1.6,6-2.4,9
			c-0.3,1-1.1,1.6-2.1,1.6c-1,0-1.8-0.7-1.9-1.7c-0.1-0.3,0-0.6,0-0.9c0.9-3.6,1.9-7.3,2.9-10.9C14.9,24.8,14.9,24.7,15,24.6z"/>
		<path style="fill:#FFFFFF;" d="M7.3,38.3c-1.1,0-2-0.9-2-2c0-1.1,0.9-2,2-2c1.1,0,2,0.9,2,2C9.2,37.4,8.3,38.3,7.3,38.3z"/>
	</g>
</g>
</svg>
