<?xml version="1.0" encoding="utf-8"?>
<!-- Generator: Adobe Illustrator 17.1.0, SVG Export Plug-In . SVG Version: 6.00 Build 0)  -->
<!DOCTYPE svg PUBLIC "-//W3C//DTD SVG 1.1//EN" "http://www.w3.org/Graphics/SVG/1.1/DTD/svg11.dtd">
<svg version="1.1" id="Layer_1" xmlns="http://www.w3.org/2000/svg" xmlns:xlink="http://www.w3.org/1999/xlink" x="0px" y="0px"
	 viewBox="0 0 39.7 33.5" style="enable-background:new 0 0 39.7 33.5;" xml:space="preserve">
<g>
	<g>
		<path style="fill:#FFFFFF;" d="M36.5,23.8c-0.1-0.3-0.5-0.6-0.9-0.6H4.3c-0.4,0-0.8,0.3-0.9,0.6l-3.2,7.5C0.1,31.7,0,32.3,0,32.6
			v0.2c0,0.4,0.3,0.7,0.7,0.7h38.4c0.4,0,0.7-0.3,0.7-0.7v-0.2c0-0.4-0.1-0.9-0.2-1.3L36.5,23.8z"/>
	</g>
	<path style="fill:#FFFFFF;" d="M34.4,0H5.3c-1.1,0-2,0.9-2,2v17.1c0,1.1,0.9,2,2,2h29.1c1.1,0,2-0.9,2-2V2C36.4,0.9,35.5,0,34.4,0z
		 M32.8,16.5c0,0.9-0.8,1.6-1.7,1.6H8.5c-0.9,0-1.7-0.7-1.7-1.6v-12c0-0.9,0.8-1.6,1.7-1.6h22.6c0.9,0,1.7,0.7,1.7,1.6V16.5z"/>
</g>
</svg>
