<?xml version="1.0" encoding="utf-8"?>
<!-- Generator: Adobe Illustrator 17.1.0, SVG Export Plug-In . SVG Version: 6.00 Build 0)  -->
<!DOCTYPE svg PUBLIC "-//W3C//DTD SVG 1.1//EN" "http://www.w3.org/Graphics/SVG/1.1/DTD/svg11.dtd">
<svg version="1.1" id="Layer_1" xmlns="http://www.w3.org/2000/svg" xmlns:xlink="http://www.w3.org/1999/xlink" x="0px" y="0px"
	 viewBox="0 0 36.8 30" style="enable-background:new 0 0 36.8 30;" xml:space="preserve">
<g>
	<g>
		<path style="fill:#FFFFFF;" d="M12.4,6.2V4.6c0-0.6,0.5-1.2,1.2-1.2h9.5c0.6,0,1.2,0.5,1.2,1.2v1.7h3.4V4.6c0-2.5-2-4.6-4.6-4.6
			h-9.5c-2.5,0-4.6,2-4.6,4.6v1.7H12.4z"/>
	</g>
	<path style="fill:#FFFFFF;" d="M33.9,8.4H2.9C1.3,8.4,0,9.7,0,11.3v15.9C0,28.7,1.3,30,2.9,30h31.1c1.6,0,2.9-1.3,2.9-2.9V11.3
		C36.8,9.7,35.5,8.4,33.9,8.4z M25.7,21h-5.6v5.6h-3.5V21h-5.6v-3.5h5.6v-5.6h3.5v5.6h5.6V21z"/>
</g>
</svg>
