<?xml version="1.0" encoding="utf-8"?>
<!-- Generator: Adobe Illustrator 18.0.0, SVG Export Plug-In . SVG Version: 6.00 Build 0)  -->
<!DOCTYPE svg PUBLIC "-//W3C//DTD SVG 1.1//EN" "http://www.w3.org/Graphics/SVG/1.1/DTD/svg11.dtd">
<svg version="1.1" id="Layer_1" xmlns="http://www.w3.org/2000/svg" xmlns:xlink="http://www.w3.org/1999/xlink" x="0px" y="0px"
	 viewBox="0 0 57.2 161.9" enable-background="new 0 0 57.2 161.9" xml:space="preserve">
<g>
	<g id="vohOiJ.tif_4_">
		<g>
			<path fill="#FFFFFF" d="M40.4,160.8c-2.4-5.9-2.1-25.2-1.9-31.4c0.4-9.6,1.2-73.2,1.9-82.8c0.2-2-0.6-3.3-2.1-4.4
				c-0.9-0.6-1.7-1.3-2.6-1.9c-3.6-2.7-5-6.4-4.8-10.8c0.4-7.8,0.7-15.6,1-23.4c0-0.6,0-1.1-0.1-1.7c0.1-0.1,0.1-0.1,0.2-0.2
				c1.7-0.1,3.3-0.2,5-0.2c-0.1,6.5-0.1,13-0.2,19.4c0,0.6-0.1,1.3,0.2,1.7c0.5,0.6,1.2,1.3,1.9,1.5c1,0.2,1.8-0.4,2.1-1.4
				c0.1-0.6,0.2-1.2,0.2-1.7c0.1-6,0.1-12,0.2-18.1c0-0.5,0-1,0.1-1.5c1.9,0,3.7,0,5.9,0c-0.1,0.6-0.3,1.1-0.3,1.6
				c-0.1,6-0.1,12-0.2,18.1c0,0.6-0.1,1.3,0.1,1.7c0.5,0.7,1.3,1.5,1.9,1.5c0.7,0,1.5-0.8,2-1.4c0.3-0.3,0.2-1,0.2-1.6
				c0.1-6.1,0.1-12.2,0.2-18.3c0-0.5,0-0.9,0.1-1.4c1.7,0.1,3.3,0.2,5,0.3c0.1,0.1,0.1,0.1,0.2,0.2c0,2.1,0,4.3,0.1,6.4
				c0.1,6.4,0.2,12.7,0.4,19.1c0.1,4.8-1.7,8.6-5.8,11c-3.2,1.8-4.3,4.2-3.9,7.8c0.7,8.2,1.1,70.5,1.3,78.7
				c0.1,4.4-0.1,21.7-0.4,26.1c-0.2,2.4-1.1,4.8-1.7,7.1c-0.1,0.1-0.3,0.3-0.4,0.4c-1.8,0.9-3.6,0.8-5.4,0
				C40.7,161.1,40.6,161,40.4,160.8z"/>
		</g>
	</g>
	<g id="vohOiJ.tif_1_">
		<path fill="#FFFFFF" d="M26.2,30C26.2,30,26.2,29.9,26.2,30C26.2,29.9,26.1,29.9,26.2,30C25.9,13.3,20,0,13,0
			C6,0,0.4,12.9,0.1,29.2c0,0,0,0,0,0c0,0.2,0,0.4,0,0.6c-0.2,4.4,1.3,8.1,4.9,10.7c0.9,0.6,1.7,1.2,2.6,1.9
			c1.5,1.1,2.3,2.4,2.2,4.4c-0.6,9.6-1.3,73.2-1.5,82.8c-0.2,6.2-0.4,25.4,2.1,31.3c0.1,0.1,0.3,0.3,0.4,0.4c1.8,0.9,3.6,0.9,5.4,0
			c0.1-0.1,0.3-0.3,0.4-0.4c0.6-2.4,1.4-4.7,1.6-7.1c0.3-4.3,0.5-21.7,0.3-26.1c-0.4-8.2-0.9-70.5-1.7-78.7c-0.4-3.7,0.7-6,3.8-7.9
			C24.6,38.6,26.4,34.7,26.2,30z"/>
	</g>
</g>
</svg>
