<?xml version="1.0" encoding="utf-8"?>
<!-- Generator: Adobe Illustrator 18.0.0, SVG Export Plug-In . SVG Version: 6.00 Build 0)  -->
<!DOCTYPE svg PUBLIC "-//W3C//DTD SVG 1.1//EN" "http://www.w3.org/Graphics/SVG/1.1/DTD/svg11.dtd">
<svg version="1.1" id="Layer_1" xmlns="http://www.w3.org/2000/svg" xmlns:xlink="http://www.w3.org/1999/xlink" x="0px" y="0px"
	 viewBox="0 0 142.1 142.1" enable-background="new 0 0 142.1 142.1" xml:space="preserve">
<path fill="#FFFFFF" d="M71.1,142.1C31.9,142.1,0,110.3,0,71.1S31.9,0,71.1,0c39.2,0,71.1,31.9,71.1,71.1S110.3,142.1,71.1,142.1z
	 M71.1,7.4C36,7.4,7.4,36,7.4,71.1s28.6,63.7,63.7,63.7c35.1,0,63.7-28.6,63.7-63.7S106.2,7.4,71.1,7.4z"/>
<g>
	<path fill="#09B9DF" d="M52.3,85h-6.8l-1.3,7.6h-8.1l1.3-7.6h-7.2l-1.3,7.6h-8.2L22,85h-4.3v-9.1h5.9l1.1-6.4h-5.1v-9h6.7l1.3-7.4
		h8.2l-1.3,7.4h7.2l1.3-7.4H51l-1.3,7.4h4.5v9h-6L47,75.9h5.3V85z M31.4,76.3h7.7l1.2-7.1h-7.7L31.4,76.3z"/>
	<path fill="#09B9DF" d="M76.7,62.3H58.4v-9.2h30.4v8.2L71.4,92.6H59.3L76.7,62.3z"/>
	<path fill="#09B9DF" d="M91.5,86.4l6.9-6.9c2.8,2.9,5.8,4.5,9.4,4.5c3.1,0,5-1.6,5-4v-0.1c0-2.5-2.3-4.1-6.4-4.1h-4.6l-1.5-5.7
		l9-8.2H94.3v-8.9h28.5v7.8l-9.4,8.1c5.6,1.2,10.2,4.3,10.2,11.1v0.1c0,8-6.4,13.2-15.2,13.2C100.7,93.4,95.4,90.7,91.5,86.4z"/>
</g>
</svg>
