<?xml version="1.0" encoding="utf-8"?>
<!-- Generator: Adobe Illustrator 18.0.0, SVG Export Plug-In . SVG Version: 6.00 Build 0)  -->
<!DOCTYPE svg PUBLIC "-//W3C//DTD SVG 1.1//EN" "http://www.w3.org/Graphics/SVG/1.1/DTD/svg11.dtd">
<svg version="1.1" id="Layer_1" xmlns="http://www.w3.org/2000/svg" xmlns:xlink="http://www.w3.org/1999/xlink" x="0px" y="0px"
	 viewBox="0 0 80.3 80.3" enable-background="new 0 0 80.3 80.3" xml:space="preserve">
<path fill="#FFFFFF" d="M40.1,80.3C18,80.3,0,62.3,0,40.1C0,18,18,0,40.1,0c22.1,0,40.1,18,40.1,40.1C80.3,62.3,62.3,80.3,40.1,80.3
	z M40.1,5.8C21.2,5.8,5.8,21.2,5.8,40.1s15.4,34.3,34.3,34.3s34.3-15.4,34.3-34.3S59.1,5.8,40.1,5.8z"/>
<g>
	<path fill="#09B9DF" d="M39,48.7h-5l-1,5.6h-6l1-5.6h-5.3l-1,5.6h-6.1l1-5.6h-3.2V42h4.3l0.8-4.7h-3.8v-6.7h4.9l1-5.5h6.1l-1,5.5
		H31l1-5.5h6l-1,5.5h3.3v6.7h-4.4L35.1,42H39V48.7z M23.5,42.2h5.7l0.9-5.2h-5.7L23.5,42.2z"/>
	<path fill="#09B9DF" d="M42.4,50.3l4.6-5.4c2.3,2,4.6,3.2,7.1,3.2c2.7,0,4.3-1.3,4.3-3.4v-0.1c0-2.1-1.8-3.4-4.3-3.4
		c-1.8,0-3.3,0.6-4.7,1.5l-4.8-2.7l0.8-14.8h19.6v6.7H51.9l-0.3,4.4c1.3-0.6,2.7-1,4.7-1c5.3,0,10,2.9,10,9.3v0.1
		c0,6.5-5,10.4-12.1,10.4C49.1,55,45.5,53.2,42.4,50.3z"/>
</g>
</svg>
