<?xml version="1.0" encoding="utf-8"?>
<!-- Generator: Adobe Illustrator 17.1.0, SVG Export Plug-In . SVG Version: 6.00 Build 0)  -->
<!DOCTYPE svg PUBLIC "-//W3C//DTD SVG 1.1//EN" "http://www.w3.org/Graphics/SVG/1.1/DTD/svg11.dtd">
<svg version="1.1" id="Layer_1" xmlns="http://www.w3.org/2000/svg" xmlns:xlink="http://www.w3.org/1999/xlink" x="0px" y="0px"
	 viewBox="0 0 124.7 89.1" style="enable-background:new 0 0 124.7 89.1;" xml:space="preserve">
<g>
	<path style="fill:#FFFFFF;" d="M124.5,39.5L88.1,7.8c-0.4-0.3-1-0.3-1.4,0l-7.3,6.3H8.6L0,40.1h50.6h7.1h2.7c0.5,0,1.2-0.3,1.6-0.6
		l23.1-20.3c0.4-0.3,1.1-0.7,1.5-0.9c0,0,1.1-0.5,2.1,0c0.4,0.2,1.1,0.6,1.5,0.9l23.1,20.3c0.4,0.3,1.1,0.6,1.6,0.6h9.4
		C124.8,40.1,124.9,39.8,124.5,39.5z"/>
	<g>
		<path style="fill:#FFFFFF;" d="M107.6,15.9c0,0.5-0.3,0.6-0.7,0.3l-6.2-5.5c-0.4-0.3-0.7-1-0.7-1.5V0.9c0-0.5,0.4-0.9,0.9-0.9h5.8
			c0.5,0,0.9,0.4,0.9,0.9V15.9z"/>
	</g>
	<g>
		<path style="fill:#FFFFFF;" d="M88.4,25.7c-0.4-0.3-0.7-0.6-0.8-0.6c-0.1,0-0.4,0.3-0.8,0.6L63.7,46c-0.4,0.3-1.1,0.6-1.6,0.6H7.7
			c-0.5,0-0.9,0.4-0.9,0.9v40.7c0,0.5,0.4,0.9,0.9,0.9h20.7c0.5,0,0.9-0.4,0.9-0.9v-20c0-0.5,0.4-0.9,0.9-0.9h10.6
			c0.5,0,0.9,0.4,0.9,0.9v20c0,0.5,0.4,0.9,0.9,0.9h68.5c0.5,0,0.9-0.4,0.9-0.9V47.3c0-0.5-0.3-1.2-0.7-1.5L88.4,25.7z M22.1,74.7
			c0,0.5-0.4,0.9-0.9,0.9h-7c-0.5,0-0.9-0.4-0.9-0.9V60c0-0.5,0.4-0.9,0.9-0.9h7c0.5,0,0.9,0.4,0.9,0.9V74.7z M59.4,74.7
			c0,0.5-0.4,0.9-0.9,0.9h-7c-0.5,0-0.9-0.4-0.9-0.9V60c0-0.5,0.4-0.9,0.9-0.9h7c0.5,0,0.9,0.4,0.9,0.9V74.7z M82.6,74.7
			c0,0.5-0.4,0.9-0.9,0.9h-7c-0.5,0-0.9-0.4-0.9-0.9V60c0-0.5,0.4-0.9,0.9-0.9h7c0.5,0,0.9,0.4,0.9,0.9V74.7z M91.8,50.7
			c0,0.5-0.4,0.9-0.9,0.9h-7c-0.5,0-0.9-0.4-0.9-0.9V38.5c0-0.5,0.4-0.9,0.9-0.9h7c0.5,0,0.9,0.4,0.9,0.9V50.7z M101,74.7
			c0,0.5-0.4,0.9-0.9,0.9h-7c-0.5,0-0.9-0.4-0.9-0.9V60c0-0.5,0.4-0.9,0.9-0.9h7c0.5,0,0.9,0.4,0.9,0.9V74.7z"/>
	</g>
</g>
</svg>
