<?xml version="1.0" encoding="utf-8"?>
<!-- Generator: Adobe Illustrator 17.1.0, SVG Export Plug-In . SVG Version: 6.00 Build 0)  -->
<!DOCTYPE svg PUBLIC "-//W3C//DTD SVG 1.1//EN" "http://www.w3.org/Graphics/SVG/1.1/DTD/svg11.dtd">
<svg version="1.1" id="Layer_1" xmlns="http://www.w3.org/2000/svg" xmlns:xlink="http://www.w3.org/1999/xlink" x="0px" y="0px"
	 viewBox="0 0 137.9 137.9" style="enable-background:new 0 0 137.9 137.9;" xml:space="preserve">
<g id="JBZFdd.tif_4_">
	<g>
		<path style="fill:#FFFFFF;" d="M70.7,52.7c-1.7,0.3-3.4,0.5-4.9,0.8c-0.2,0-0.5,0.4-0.6,0.7c-0.8,2.4-1.6,4.9-2.4,7.3
			c-0.6,1.9-2.4,3.1-4.3,3.1c-1.9,0-3.7-1.1-4.3-2.9c-0.3-1-0.4-2.2-0.1-3.1c1-3.6,2.2-7.1,3.4-10.7c0.6-1.8,1.9-2.9,3.7-3.2
			c4.7-0.7,9.5-1.2,14.2-1.9c3.7-0.6,7.2,0.4,10.8,0.9c1.5,0.2,2.6,1.2,3.4,2.5c2.5,3.9,5.1,7.7,7.6,11.6c0.3,0.5,0.7,0.7,1.3,0.7
			c2.2,0,4.4,0,6.7,0c2.8,0,4.8,2,4.8,4.7c0,2.6-2.1,4.6-4.8,4.6c-3.3,0-6.5,0-9.8,0c-1.8,0-3.2-0.7-4.2-2.2
			c-1.6-2.4-3.2-4.8-4.8-7.3c-0.2-0.3-0.4-0.5-0.7-1c-0.1,0.4-0.2,0.7-0.3,1c-1.2,5.6-2.4,11.3-3.7,16.9c-0.2,0.7,0,1.1,0.6,1.5
			c3.2,2.2,6.3,4.5,9.4,6.6c1.5,1,2.2,2.4,2.5,4.1c1,6,2,12.1,3,18.1c0.5,2.6-0.7,4.9-3,5.8c-2.2,0.8-4.7-0.1-5.8-2.2
			c-0.5-1-0.7-2.2-0.9-3.3c-0.9-4.9-1.6-9.8-2.5-14.6c-0.1-0.5-0.4-1-0.8-1.3c-4.7-3.3-9.4-6.5-14.2-9.7c-2.4-1.6-4-3.6-4.2-6.6
			c-0.1-0.9,0-1.8,0.2-2.7c1.4-5.6,2.8-11.2,4.3-16.9C70.5,53.7,70.6,53.3,70.7,52.7z"/>
		<path style="fill:#FFFFFF;" d="M49.7,99.7c-5.4-2.6-11.8,0.5-12.3,7.4c-2.2-0.6-4.4-1.1-6.5-1.9c-1.8-0.7-2.7-2.9-2.2-4.7
			c1.6-6.2,3.2-12.3,5-18.5c1.1-3.9,5.4-6.3,9.4-5.4c2.3,0.6,4.7,1.2,7.1,1.8c0.3-1.2,0.7-2.4,1-3.6c0.5-1.8,0.9-3.6,1.4-5.4
			c0.6-1.9,2.8-2.6,4.1-1.2c0.7,0.7,0.8,1.5,0.6,2.4c-2.1,7.9-4.2,15.9-6.2,23.8C50.7,96.1,50.2,97.8,49.7,99.7z"/>
		<path style="fill:#FFFFFF;" d="M75.6,30.2c0-5.2,4.2-9.4,9.4-9.4c5.1,0,9.3,4.2,9.3,9.4c0,5.2-4.2,9.4-9.4,9.4
			C79.7,39.5,75.6,35.3,75.6,30.2z"/>
		<path style="fill:#FFFFFF;" d="M64,79c1.8,3.1,4.8,4.5,7.4,6.4c0.5,0.4,0.7,0.6,0.5,1.3c-1.9,7.1-3.7,14.1-5.6,21.2
			c-0.6,2.4-2.6,3.8-4.9,3.7c-2.3-0.1-4.2-1.7-4.6-4c-0.1-0.7-0.1-1.5,0.1-2.2c2.2-8.6,4.5-17.2,6.8-25.8C63.8,79.5,63.8,79.4,64,79
			z"/>
		<path style="fill:#FFFFFF;" d="M45.8,111.6c-2.6,0-4.7-2.1-4.7-4.6c0-2.6,2.1-4.7,4.6-4.7c2.6,0,4.7,2.1,4.7,4.7
			C50.4,109.5,48.3,111.6,45.8,111.6z"/>
	</g>
</g>
<circle style="fill:none;stroke:#FFFFFF;stroke-width:7.1899;stroke-miterlimit:10;" cx="69" cy="69" r="65.4"/>
</svg>
