<?xml version="1.0" encoding="utf-8"?>
<!-- Generator: Adobe Illustrator 17.1.0, SVG Export Plug-In . SVG Version: 6.00 Build 0)  -->
<!DOCTYPE svg PUBLIC "-//W3C//DTD SVG 1.1//EN" "http://www.w3.org/Graphics/SVG/1.1/DTD/svg11.dtd">
<svg version="1.1" id="Layer_1" xmlns="http://www.w3.org/2000/svg" xmlns:xlink="http://www.w3.org/1999/xlink" x="0px" y="0px"
	 viewBox="0 0 126.2 182.9" style="enable-background:new 0 0 126.2 182.9;" xml:space="preserve">
<g>
	<rect x="66.3" y="19.1" style="fill:#FFFFFF;" width="45.8" height="11.3"/>
	<rect x="74.8" y="0" style="fill:#FFFFFF;" width="28.7" height="11.3"/>
	<g>
		<path style="fill:#FFFFFF;" d="M0,85.1v97.8h24v-26.7H44v26.7h24V85.1H0z M18,143.2H6.7v-18.5H18V143.2z M18,111.8H6.7V93.4H18
			V111.8z M39.6,143.2H28.4v-18.5h11.3V143.2z M39.6,111.8H28.4V93.4h11.3V111.8z M61.3,143.2H50v-18.5h11.3V143.2z M61.3,111.8H50
			V93.4h11.3V111.8z"/>
		<path style="fill:#FFFFFF;" d="M52.2,37.9V77h23.5v105.9h50.5v-145H52.2z M73.2,70.1H61.9V51.7h11.3V70.1z M94.8,165.3H83.6v-18.5
			h11.3V165.3z M94.8,132.9H83.6v-18.5h11.3V132.9z M94.8,101.5H83.6V83h11.3V101.5z M94.8,70.1H83.6V51.7h11.3V70.1z M116.5,165.3
			h-11.3v-18.5h11.3V165.3z M116.5,132.9h-11.3v-18.5h11.3V132.9z M116.5,101.5h-11.3V83h11.3V101.5z M116.5,70.1h-11.3V51.7h11.3
			V70.1z"/>
	</g>
</g>
</svg>
