<?xml version="1.0" encoding="utf-8"?>
<!-- Generator: Adobe Illustrator 18.0.0, SVG Export Plug-In . SVG Version: 6.00 Build 0)  -->
<!DOCTYPE svg PUBLIC "-//W3C//DTD SVG 1.1//EN" "http://www.w3.org/Graphics/SVG/1.1/DTD/svg11.dtd">
<svg version="1.1" id="Layer_1" xmlns="http://www.w3.org/2000/svg" xmlns:xlink="http://www.w3.org/1999/xlink" x="0px" y="0px"
	 viewBox="0 0 80.3 80.3" enable-background="new 0 0 80.3 80.3" xml:space="preserve">
<path fill="#FFFFFF" d="M40.1,80.3C18,80.3,0,62.3,0,40.1S18,0,40.1,0c22.1,0,40.1,18,40.1,40.1S62.3,80.3,40.1,80.3z M40.1,5.8
	C21.2,5.8,5.8,21.2,5.8,40.1c0,18.9,15.4,34.3,34.3,34.3s34.3-15.4,34.3-34.3C74.5,21.2,59.1,5.8,40.1,5.8z"/>
<g>
	<path fill="#09B9DF" d="M39,48.7h-5l-1,5.6h-6l1-5.6h-5.3l-1,5.6h-6.1l1-5.6h-3.2V42h4.3l0.8-4.7h-3.8v-6.7h4.9l1-5.5h6.1l-1,5.5
		H31l1-5.5h6l-1,5.5h3.3v6.7h-4.4L35.1,42H39V48.7z M23.5,42.2h5.7l0.9-5.2h-5.7L23.5,42.2z"/>
	<path fill="#09B9DF" d="M42.8,46.3L42.8,46.3c0-3.6,1.8-5.8,5-7.1c-2.2-1.3-4-3.2-4-6.4v-0.1c0-4.6,4.4-8.1,11-8.1s11,3.5,11,8.1
		v0.1c0,3.2-1.8,5.1-4,6.4c3,1.4,5,3.3,5,6.9v0.1c0,5.3-5,8.7-12,8.7C47.8,54.9,42.8,51.4,42.8,46.3z M59,45.5L59,45.5
		c0-2-1.7-3.3-4.2-3.3c-2.5,0-4.2,1.3-4.2,3.2v0.1c0,1.8,1.5,3.3,4.2,3.3S59,47.3,59,45.5z M58.4,33.8L58.4,33.8
		c0-1.7-1.4-3.2-3.6-3.2c-2.2,0-3.6,1.5-3.6,3.1v0.1c0,1.8,1.4,3.2,3.6,3.2C57,37,58.4,35.6,58.4,33.8z"/>
</g>
</svg>
