<?xml version="1.0" encoding="utf-8"?>
<!-- Generator: Adobe Illustrator 17.1.0, SVG Export Plug-In . SVG Version: 6.00 Build 0)  -->
<!DOCTYPE svg PUBLIC "-//W3C//DTD SVG 1.1//EN" "http://www.w3.org/Graphics/SVG/1.1/DTD/svg11.dtd">
<svg version="1.1" id="Layer_1" xmlns="http://www.w3.org/2000/svg" xmlns:xlink="http://www.w3.org/1999/xlink" x="0px" y="0px"
	 viewBox="0 0 137.9 137.9" style="enable-background:new 0 0 137.9 137.9;" xml:space="preserve">
<g>
	<circle style="fill:none;stroke:#FFFFFF;stroke-width:7.1899;stroke-miterlimit:10;" cx="69" cy="69" r="65.4"/>
	<g>
		<path style="fill:#FFFFFF;" d="M29.3,99c-2.1,0-3.8-1.7-3.8-3.8V45c0-2.1,1.7-3.8,3.8-3.8s3.8,1.7,3.8,3.8v50.2
			C33.1,97.3,31.4,99,29.3,99z"/>
		<path style="fill:#FFFFFF;" d="M109.8,97.9c-2.1,0-3.8-1.7-3.8-3.8V57.2c0-2.1,1.7-3.8,3.8-3.8s3.8,1.7,3.8,3.8v36.9
			C113.6,96.2,111.9,97.9,109.8,97.9z"/>
		<rect x="35.7" y="73.4" style="fill:#FFFFFF;" width="67.8" height="10.5"/>
		<path style="fill:#FFFFFF;" d="M103.2,70.5v-12c0-2.8-1.7-5.1-3.9-5.1H68.4c-2.1,0-3.9,2.3-3.9,5.1v12H103.2z"/>
		<path style="fill:#FFFFFF;" d="M59.1,70.9H42.5c-1.9,0-3.4-1.5-3.4-3.4s1.5-3.4,3.4-3.4h13.2V56c0-1.9,1.5-3.4,3.4-3.4
			s3.4,1.5,3.4,3.4v11.6C62.5,69.4,61,70.9,59.1,70.9z"/>
		<circle style="fill:#FFFFFF;" cx="45.4" cy="55" r="6.9"/>
	</g>
</g>
</svg>
