<?xml version="1.0" encoding="utf-8"?>
<!-- Generator: Adobe Illustrator 18.0.0, SVG Export Plug-In . SVG Version: 6.00 Build 0)  -->
<!DOCTYPE svg PUBLIC "-//W3C//DTD SVG 1.1//EN" "http://www.w3.org/Graphics/SVG/1.1/DTD/svg11.dtd">
<svg version="1.1" id="Layer_1" xmlns="http://www.w3.org/2000/svg" xmlns:xlink="http://www.w3.org/1999/xlink" x="0px" y="0px"
	 viewBox="0 0 80.3 80.3" enable-background="new 0 0 80.3 80.3" xml:space="preserve">
<path fill="#FFFFFF" d="M40.1,80.3C18,80.3,0,62.3,0,40.1C0,18,18,0,40.1,0s40.1,18,40.1,40.1C80.3,62.3,62.3,80.3,40.1,80.3z
	 M40.1,5.8C21.2,5.8,5.8,21.2,5.8,40.1s15.4,34.3,34.3,34.3c18.9,0,34.3-15.4,34.3-34.3S59.1,5.8,40.1,5.8z"/>
<g>
	<path fill="#09B9DF" d="M39.1,48.7h-5l-1,5.6h-6l1-5.6h-5.3l-1,5.6h-6.1l1-5.6h-3.2V42h4.3l0.8-4.7h-3.8v-6.7h4.9l1-5.5h6.1l-1,5.5
		h5.3l1-5.5h6l-1,5.5h3.3v6.7H36L35.2,42h3.9V48.7z M23.7,42.2h5.7l0.9-5.2h-5.7L23.7,42.2z"/>
	<path fill="#09B9DF" d="M43.1,48.3l11-8.4c2.7-2.1,3.8-3.5,3.8-5.3c0-1.9-1.3-3-3.3-3c-2,0-3.5,1.2-5.8,3.8l-5.5-4.6
		c3.1-4.1,6.3-6.3,11.9-6.3c6.4,0,10.8,3.8,10.8,9.3V34c0,4.7-2.4,7.1-6.8,10.2l-5,3.5h12.1v6.6H43.1V48.3z"/>
</g>
</svg>
