<?xml version="1.0" encoding="utf-8"?>
<!-- Generator: Adobe Illustrator 18.0.0, SVG Export Plug-In . SVG Version: 6.00 Build 0)  -->
<!DOCTYPE svg PUBLIC "-//W3C//DTD SVG 1.1//EN" "http://www.w3.org/Graphics/SVG/1.1/DTD/svg11.dtd">
<svg version="1.1" id="Layer_1" xmlns="http://www.w3.org/2000/svg" xmlns:xlink="http://www.w3.org/1999/xlink" x="0px" y="0px"
	 viewBox="0 0 80.3 80.3" enable-background="new 0 0 80.3 80.3" xml:space="preserve">
<path fill="#FFFFFF" d="M40.1,80.3C18,80.3,0,62.3,0,40.1S18,0,40.1,0s40.1,18,40.1,40.1S62.3,80.3,40.1,80.3z M40.1,5.8
	C21.2,5.8,5.8,21.2,5.8,40.1c0,18.9,15.4,34.3,34.3,34.3c18.9,0,34.3-15.4,34.3-34.3C74.5,21.2,59.1,5.8,40.1,5.8z"/>
<g>
	<path fill="#09B9DF" d="M43.3,48.7h-5l-1,5.6h-6l1-5.6H27l-1,5.6h-6.1l1-5.6h-3.2V42H22l0.8-4.7h-3.8v-6.7H24l1-5.5H31l-1,5.5h5.3
		l1-5.5h6l-1,5.5h3.3v6.7h-4.4L39.4,42h3.9V48.7z M27.9,42.2h5.7l0.9-5.2h-5.7L27.9,42.2z"/>
	<path fill="#09B9DF" d="M52.8,32.4l-4.9,1.2l-1.5-6.3l8.6-2.4h5.9v29.5h-8V32.4z"/>
</g>
</svg>
