<?xml version="1.0" encoding="utf-8"?>
<!-- Generator: Adobe Illustrator 17.1.0, SVG Export Plug-In . SVG Version: 6.00 Build 0)  -->
<!DOCTYPE svg PUBLIC "-//W3C//DTD SVG 1.1//EN" "http://www.w3.org/Graphics/SVG/1.1/DTD/svg11.dtd">
<svg version="1.1" id="Layer_1" xmlns="http://www.w3.org/2000/svg" xmlns:xlink="http://www.w3.org/1999/xlink" x="0px" y="0px"
	 viewBox="0 0 217.4 140.5" style="enable-background:new 0 0 217.4 140.5;" xml:space="preserve">
<text transform="matrix(1 0 0 1 136.6719 71.3408)"><tspan x="0" y="0" style="fill:#FFFFFF; font-family:'Gotham-Book'; font-size:14.6705;">Why are</tspan><tspan x="-8.2" y="19.9" style="fill:#FFFFFF; font-family:'Gotham-Book'; font-size:14.6705;">businesses</tspan><tspan x="-20.3" y="39.8" style="fill:#FFFFFF; font-family:'Gotham-Book'; font-size:14.6705;">taking notice?</tspan></text>
<g>
	<path style="fill:#FFFFFF;" d="M65.3,14.5c0-8,6.5-14.5,14.6-14.5c7.9,0,14.4,6.5,14.4,14.5c0,8-6.5,14.5-14.6,14.5
		C71.8,29,65.3,22.5,65.3,14.5z"/>
	<path style="fill:#FFFFFF;" d="M36.7,91.5L24,88c-3.3-0.9-5.3-4.4-4.4-7.7l1.9-7c0.9-3.3,4.4-5.3,7.7-4.4L42,72.3
		c3.3,0.9,5.3,4.4,4.4,7.7l-1.9,7C43.5,90.4,40,92.4,36.7,91.5z M28.1,73.3c-0.9-0.2-1.8,0.3-2,1.2l-1.9,7c-0.2,0.9,0.3,1.8,1.2,2
		L37.9,87c0.9,0.2,1.8-0.3,2-1.2l1.9-7c0.2-0.9-0.3-1.8-1.2-2L28.1,73.3z"/>
	<g>
		<path style="fill:#FFFFFF;" d="M46.3,111.5L49.7,99c-1.4,0.4-3,0.9-5.1,1.4c-0.2,0.6-0.9,3.2-0.9,3.4c-0.8,3.1-1.4,5.4-2,7.4
			l3.3,0.9C45.6,112.3,46.1,112,46.3,111.5z"/>
		<path style="fill:#FFFFFF;" d="M58.9,99.9c-1-0.7-1.9-1.2-2.8-1.5L52,113.1c-0.8,3-3.6,5.1-6.7,5.1c-0.6,0-1.3-0.1-1.9-0.3
			l-3.2-0.9c-0.9,3.6-1.9,7.1-3.7,13.9c-0.3,1.1-0.4,2.3-0.2,3.4c0.6,3.6,3.5,6,7.1,6.2c3.5,0.1,6.5-2.1,7.5-5.8
			c2.9-10.9,5.8-21.9,8.7-32.9C60,100.9,59.7,100.5,58.9,99.9z"/>
	</g>
	<g>
		<path style="fill:#FFFFFF;" d="M22.6,93.3l11.1,3.1l21.2-4.6l0.2-0.6c0.6-2.1-0.7-4.3-2.8-4.9L10.9,74.8c-2.1-0.6-4.3,0.7-4.9,2.8
			l-0.2,0.6L22.6,93.3z"/>
		<path style="fill:#FFFFFF;" d="M33.6,101.1l-13.2-3.7L4.5,83.1L0.1,98.7c-0.6,2.1,0.7,4.3,2.8,4.9l41.4,11.5
			c2.1,0.6,4.3-0.7,4.9-2.8l4.3-15.5L33.6,101.1z"/>
	</g>
	<path style="fill:#FFFFFF;" d="M111.1,58.2c-3.4,0-6.9,0-10.3,0c-1,0-1.5-0.3-2.1-1.1c-3.9-6-7.9-12-11.8-18
		c-1.3-1.9-3-3.5-5.2-3.9c-5.5-0.8-11-2.2-16.7-1.4c-7.3,1.1-14.7,2-22,3c-2.9,0.4-4.9,2.1-5.8,4.9c-1.8,5.5-3.7,11-5.3,16.6
		c-0.4,1.5-0.3,3.3,0.2,4.8c0.9,2.8,3.8,4.6,6.7,4.6c3,0,5.7-1.9,6.7-4.8c1.3-3.8,2.5-7.6,3.7-11.4c0.1-0.4,0.6-1.1,1-1.1
		c2.5-0.4,4.9-0.8,7.7-1.2c-0.2,0.9-0.4,1.5-0.5,2.1c-2.2,8.7-4.4,17.4-6.6,26.1c-0.3,1.3-0.4,2.8-0.3,4.2c0,0,0,0,0,0.1l3.3,0.9
		c3.7,1,5.9,4.9,4.8,8.6l-0.4,1.5c7,4.7,13.9,9.4,20.8,14.2c0.6,0.4,1.1,1.3,1.3,2c1.3,7.5,2.6,15.1,3.9,22.7
		c0.3,1.7,0.6,3.5,1.4,5.1c1.7,3.3,5.6,4.6,9,3.3c3.6-1.3,5.4-4.8,4.7-8.9c-1.6-9.3-3.2-18.7-4.7-28.1c-0.4-2.7-1.6-4.8-3.9-6.4
		c-4.9-3.4-9.7-6.9-14.6-10.3c-0.9-0.6-1.2-1.2-1-2.3c1.9-8.7,3.8-17.4,5.7-26.2c0.1-0.4,0.2-0.8,0.4-1.5c0.5,0.7,0.8,1.1,1,1.5
		c2.5,3.7,4.9,7.5,7.4,11.3c1.5,2.3,3.7,3.5,6.5,3.5c5.1,0,10.1,0,15.2,0c4.2,0,7.5-3.2,7.5-7.1C118.6,61.4,115.4,58.2,111.1,58.2z"
		/>
</g>
</svg>
