<?xml version="1.0" encoding="utf-8"?>
<!-- Generator: Adobe Illustrator 18.0.0, SVG Export Plug-In . SVG Version: 6.00 Build 0)  -->
<!DOCTYPE svg PUBLIC "-//W3C//DTD SVG 1.1//EN" "http://www.w3.org/Graphics/SVG/1.1/DTD/svg11.dtd">
<svg version="1.1" id="Layer_1" xmlns="http://www.w3.org/2000/svg" xmlns:xlink="http://www.w3.org/1999/xlink" x="0px" y="0px"
	 viewBox="0 0 76 76" enable-background="new 0 0 76 76" xml:space="preserve">
<g>
	<path fill="#FFFFFF" d="M38,76C17,76,0,58.9,0,38C0,17,17,0,38,0c20.9,0,38,17,38,38C76,58.9,58.9,76,38,76z M38,5.5
		C20.1,5.5,5.5,20.1,5.5,38S20.1,70.5,38,70.5S70.5,55.9,70.5,38S55.9,5.5,38,5.5z"/>
	<g>
		<path fill="#09B9DF" d="M25.9,22.3h-3.2v-2.6H32v2.6h-3.2v8.1h-3V22.3z"/>
		<path fill="#09B9DF" d="M32.7,25.1L32.7,25.1c0-3.1,2.5-5.6,5.8-5.6c3.3,0,5.7,2.5,5.7,5.5v0c0,3.1-2.5,5.5-5.8,5.5
			C35.2,30.6,32.7,28.2,32.7,25.1z M41.2,25.1L41.2,25.1c0-1.6-1.1-2.9-2.7-2.9s-2.7,1.3-2.7,2.8v0c0,1.5,1.1,2.9,2.7,2.9
			C40.1,28,41.2,26.7,41.2,25.1z"/>
		<path fill="#09B9DF" d="M45.5,19.8h4.6c2.7,0,4.4,1.4,4.4,3.7v0c0,2.5-1.9,3.9-4.6,3.9h-1.5v3h-3V19.8z M49.9,25.1
			c1,0,1.7-0.6,1.7-1.4v0c0-0.9-0.7-1.4-1.7-1.4h-1.4v2.8H49.9z"/>
		<path fill="#09B9DF" d="M12.9,48.5l6.8-5.2c1.7-1.3,2.3-2.2,2.3-3.3c0-1.2-0.8-1.9-2-1.9c-1.2,0-2.2,0.7-3.6,2.3L13,37.7
			c1.9-2.5,3.9-3.9,7.4-3.9c4,0,6.7,2.3,6.7,5.8v0.1c0,2.9-1.5,4.4-4.2,6.3l-3.1,2.2h7.5v4.1H12.9V48.5z"/>
		<path fill="#09B9DF" d="M28.8,43.3L28.8,43.3c0-5.2,3.3-9.4,8.4-9.4s8.3,4.2,8.3,9.3v0.1c0,5.1-3.2,9.4-8.4,9.4
			C32,52.6,28.8,48.4,28.8,43.3z M40.5,43.3L40.5,43.3c0-2.9-1.3-5-3.4-5c-2,0-3.3,2-3.3,4.9v0.1c0,2.9,1.3,5,3.4,5
			S40.5,46.1,40.5,43.3z"/>
		<path fill="#09B9DF" d="M47.3,43.3L47.3,43.3c0-5.2,3.3-9.4,8.4-9.4c5.1,0,8.3,4.2,8.3,9.3v0.1c0,5.1-3.2,9.4-8.4,9.4
			C50.5,52.6,47.3,48.4,47.3,43.3z M59,43.3L59,43.3c0-2.9-1.3-5-3.4-5c-2,0-3.3,2-3.3,4.9v0.1c0,2.9,1.3,5,3.4,5
			C57.7,48.2,59,46.1,59,43.3z"/>
	</g>
</g>
</svg>
