<?xml version="1.0" encoding="utf-8"?>
<!-- Generator: Adobe Illustrator 18.0.0, SVG Export Plug-In . SVG Version: 6.00 Build 0)  -->
<!DOCTYPE svg PUBLIC "-//W3C//DTD SVG 1.1//EN" "http://www.w3.org/Graphics/SVG/1.1/DTD/svg11.dtd">
<svg version="1.1" id="Layer_1" xmlns="http://www.w3.org/2000/svg" xmlns:xlink="http://www.w3.org/1999/xlink" x="0px" y="0px"
	 viewBox="0 0 142.1 142.1" enable-background="new 0 0 142.1 142.1" xml:space="preserve">
<path fill="#FFFFFF" d="M71.1,142.1C31.9,142.1,0,110.3,0,71.1C0,31.9,31.9,0,71.1,0s71.1,31.9,71.1,71.1
	C142.1,110.3,110.3,142.1,71.1,142.1z M71.1,7.4C36,7.4,7.4,36,7.4,71.1c0,35.1,28.6,63.7,63.7,63.7s63.7-28.6,63.7-63.7
	C134.7,36,106.2,7.4,71.1,7.4z"/>
<g>
	<path fill="#09B9DF" d="M52.7,85h-6.8l-1.3,7.6h-8.1l1.3-7.6h-7.2l-1.3,7.6h-8.2l1.3-7.6h-4.3v-9.1H24l1.1-6.4H20v-9h6.7l1.3-7.4
		h8.2l-1.3,7.4H42l1.3-7.4h8.1l-1.3,7.4h4.5v9h-6l-1.1,6.4h5.3V85z M31.9,76.3h7.7l1.2-7.1h-7.7L31.9,76.3z"/>
	<path fill="#09B9DF" d="M58.1,84.4l14.8-11.3c3.7-2.9,5.1-4.7,5.1-7.1c0-2.5-1.8-4.1-4.5-4.1c-2.7,0-4.7,1.6-7.8,5.1l-7.4-6.2
		c4.2-5.5,8.5-8.5,16.1-8.5C83.1,52.4,89,57.6,89,65v0.1c0,6.3-3.3,9.6-9.1,13.8l-6.8,4.7h16.3v8.9H58.1V84.4z"/>
	<path fill="#09B9DF" d="M93.1,81.7v-0.1c0-4.8,2.5-7.7,6.7-9.5c-3-1.7-5.4-4.3-5.4-8.6v-0.1c0-6.3,6-11,14.8-11
		c8.9,0,14.9,4.7,14.9,11v0.1c0,4.3-2.4,6.9-5.4,8.6c4,1.9,6.8,4.5,6.8,9.4v0.1c0,7.1-6.8,11.7-16.3,11.7
		C99.8,93.3,93.1,88.6,93.1,81.7z M115,80.7v-0.1c0-2.6-2.3-4.3-5.7-4.3c-3.3,0-5.7,1.8-5.7,4.3v0.1c0,2.4,2,4.5,5.7,4.5
		S115,83,115,80.7z M114.2,64.8v-0.1c0-2.2-1.9-4.2-4.9-4.2c-3,0-4.9,2-4.9,4.2v0.1c0,2.5,1.9,4.3,4.9,4.3
		C112.2,69.2,114.2,67.3,114.2,64.8z"/>
</g>
</svg>
