<?xml version="1.0" encoding="utf-8"?>
<!-- Generator: Adobe Illustrator 17.1.0, SVG Export Plug-In . SVG Version: 6.00 Build 0)  -->
<!DOCTYPE svg PUBLIC "-//W3C//DTD SVG 1.1//EN" "http://www.w3.org/Graphics/SVG/1.1/DTD/svg11.dtd">
<svg version="1.1" id="Layer_1" xmlns="http://www.w3.org/2000/svg" xmlns:xlink="http://www.w3.org/1999/xlink" x="0px" y="0px"
	 viewBox="0 0 33.8 25.4" style="enable-background:new 0 0 33.8 25.4;" xml:space="preserve">
<path style="fill:#00B6DC;" d="M16.7,4.1c-5.2,0-9.4,4.2-9.4,9.4s4.2,9.4,9.4,9.4c5.2,0,9.4-4.2,9.4-9.4S21.9,4.1,16.7,4.1
	 M21.4,11.8c0.1,3.1-2.1,6.5-6.2,6.5c-1.2,0-2.4-0.4-3.3-1c1.2,0.1,2.3-0.2,3.2-0.9c-1,0-1.8-0.6-2-1.5c0.3,0.1,0.7,0,1,0
	c-1-0.2-1.8-1.2-1.7-2.2c0.3,0.2,0.6,0.3,1,0.3c-1-0.6-1.2-1.9-0.7-2.9c1.1,1.3,2.7,2.2,4.5,2.3c-0.3-1.4,0.7-2.7,2.1-2.7
	c0.6,0,1.2,0.3,1.6,0.7c0.5-0.1,1-0.3,1.4-0.5c-0.2,0.5-0.5,0.9-1,1.2c0.4-0.1,0.9-0.2,1.2-0.3C22.2,11.1,21.8,11.5,21.4,11.8"/>
</svg>
