<?xml version="1.0" encoding="utf-8"?>
<!-- Generator: Adobe Illustrator 17.1.0, SVG Export Plug-In . SVG Version: 6.00 Build 0)  -->
<!DOCTYPE svg PUBLIC "-//W3C//DTD SVG 1.1//EN" "http://www.w3.org/Graphics/SVG/1.1/DTD/svg11.dtd">
<svg version="1.1" id="Layer_1" xmlns="http://www.w3.org/2000/svg" xmlns:xlink="http://www.w3.org/1999/xlink" x="0px" y="0px"
	 viewBox="0 0 19.7 19.7" style="enable-background:new 0 0 19.7 19.7;" xml:space="preserve">
<path style="fill:#00B6DC;" d="M11.3,11.2c-0.2,0-0.4,0.1-0.5,0.3v-1.4h-0.6v4.4h0.6v-0.2c0.2,0.2,0.3,0.3,0.6,0.3
	c0.4,0,0.5-0.3,0.5-0.7V12C11.9,11.6,11.7,11.2,11.3,11.2 M11.2,13.7c0,0.1,0,0.2-0.1,0.2c-0.1,0.1-0.2,0.1-0.3,0
	c0,0-0.1-0.1-0.1-0.1v-2c0,0,0.1-0.1,0.1-0.1c0.1-0.1,0.2,0,0.3,0.1c0,0.1,0.1,0.1,0.1,0.2V13.7z M9.2,7.4V5.8
	c0-0.2,0.1-0.3,0.3-0.3c0.2,0,0.3,0.1,0.3,0.3v1.6c0,0.2-0.1,0.3-0.3,0.3C9.3,7.7,9.2,7.6,9.2,7.4 M8.9,11.3h0.6v3.2H8.9v-0.4
	c-0.1,0.1-0.2,0.2-0.3,0.3c-0.3,0.2-0.8,0.2-0.8-0.5v-2.7h0.6v2.5c0,0.1,0,0.2,0.2,0.2c0.1,0,0.3-0.1,0.4-0.2V11.3z M7.8,10.8H7.1
	v3.7H6.5v-3.7H5.8v-0.6h2.1V10.8z M13.2,11.2c-0.5,0-0.9,0.4-0.9,0.9v1.4c0,0.6,0.3,1,0.9,1c0.6,0,0.9-0.4,0.9-1v-0.2h-0.6v0.2
	c0,0.3,0,0.5-0.3,0.5c-0.2,0-0.3-0.2-0.3-0.5V13h1.1v-0.8C14.1,11.6,13.8,11.2,13.2,11.2 M13.5,12.5h-0.5v-0.3c0-0.2,0-0.4,0.3-0.4
	c0.2,0,0.3,0.2,0.3,0.4V12.5z M9.8,0.4c-5.2,0-9.4,4.2-9.4,9.4s4.2,9.4,9.4,9.4c5.2,0,9.4-4.2,9.4-9.4S15,0.4,9.8,0.4 M10.9,4.9h0.6
	v2.6c0,0.1,0,0.2,0.2,0.2c0.1,0,0.3-0.2,0.4-0.3V4.9h0.6v3.4h-0.6V7.9c-0.3,0.3-0.5,0.4-0.7,0.4c-0.3,0-0.4-0.3-0.4-0.6V4.9z
	 M9.5,4.9c0.5,0,0.9,0.4,0.9,0.9v1.7c0,0.6-0.4,0.9-0.9,0.9C8.9,8.3,8.6,8,8.6,7.4V5.8C8.6,5.2,8.9,4.9,9.5,4.9 M6.9,3.7l0.5,1.8
	l0.5-1.8h0.7L7.8,6.4v1.9H7.1V6.4L6.2,3.7H6.9z M15,14.1c0,0.8-0.6,1.4-1.4,1.4H6.2c-0.8,0-1.4-0.6-1.4-1.4v-3.6
	c0-0.8,0.6-1.4,1.4-1.4h7.4c0.8,0,1.4,0.6,1.4,1.4V14.1z"/>
</svg>
